<svg width="32" height="32" viewBox="0 0 32 32" fill="none" xmlns="http://www.w3.org/2000/svg">
<g id="vuesax/bulk/menu">
<g id="menu">
<path id="Vector" opacity="0.4" d="M21.5867 2.66666H10.4134C5.56008 2.66666 2.66675 5.55999 2.66675 10.4133V21.5733C2.66675 26.44 5.56008 29.3333 10.4134 29.3333H21.5734C26.4267 29.3333 29.3201 26.44 29.3201 21.5867V10.4133C29.3334 5.55999 26.4401 2.66666 21.5867 2.66666Z" fill="white"/>
<path id="Vector_2" d="M22.6666 11H9.33325C8.78659 11 8.33325 10.5467 8.33325 10C8.33325 9.45333 8.78659 9 9.33325 9H22.6666C23.2133 9 23.6666 9.45333 23.6666 10C23.6666 10.5467 23.2133 11 22.6666 11Z" fill="white"/>
<path id="Vector_3" d="M22.6666 17H9.33325C8.78659 17 8.33325 16.5467 8.33325 16C8.33325 15.4533 8.78659 15 9.33325 15H22.6666C23.2133 15 23.6666 15.4533 23.6666 16C23.6666 16.5467 23.2133 17 22.6666 17Z" fill="white"/>
<path id="Vector_4" d="M22.6666 23H9.33325C8.78659 23 8.33325 22.5467 8.33325 22C8.33325 21.4533 8.78659 21 9.33325 21H22.6666C23.2133 21 23.6666 21.4533 23.6666 22C23.6666 22.5467 23.2133 23 22.6666 23Z" fill="white"/>
</g>
</g>
</svg>
