<svg width="36" height="36" viewBox="0 0 66 66" fill="none" xmlns="http://www.w3.org/2000/svg">
<g id="OBJECTS" clip-path="url(#clip0_138_1263)">
<path id="Vector" d="M65.9938 33.0031C34.9203 34.0675 34.0613 34.9265 32.9969 66C31.9387 34.9203 31.0797 34.0613 0 33.0031C31.0797 31.9387 31.9387 31.0797 33.0031 0C34.0675 31.0735 34.9265 31.9325 66 32.9969L65.9938 33.0031Z" stroke="white" stroke-width="0.49" stroke-miterlimit="10"/>
<path id="Vector_2" d="M33.0032 3.00684C32.0384 31.2543 31.2603 32.0386 3.00659 33.0034C31.2541 33.9683 32.0384 34.7463 33.0032 63C33.968 34.7526 34.7461 33.9683 62.9998 33.0034C34.7523 32.0386 33.968 31.2605 33.0032 3.00684Z" stroke="white" stroke-width="0.49" stroke-miterlimit="10"/>
<path id="Vector_3" d="M59.9995 33.0032C34.5718 33.8746 33.8746 34.5718 33.0032 59.9995C32.1317 34.5718 31.4345 33.8746 6.00684 33.0032C31.4345 32.1317 32.1317 31.4345 33.0032 6.00684C33.8746 31.4345 34.5718 32.1317 59.9995 33.0032Z" stroke="white" stroke-width="0.49" stroke-miterlimit="10"/>
<path id="Vector_4" d="M33.0031 9.00098C32.2313 31.6027 31.6088 32.2252 9.00708 32.997C31.6088 33.7689 32.2313 34.3913 33.0031 56.9931C33.775 34.3913 34.3974 33.7689 56.9992 32.997C34.3974 32.2252 33.775 31.6027 33.0031 9.00098Z" stroke="white" stroke-width="0.49" stroke-miterlimit="10"/>
<path id="Vector_5" d="M53.9988 33.0036C34.2231 33.6821 33.6753 34.2236 33.0031 53.9993C32.3246 34.2236 31.783 33.6758 12.0073 33.0036C31.783 32.3251 32.3308 31.7835 33.0031 12.0078C33.6816 31.7835 34.2231 32.3313 53.9988 33.0036Z" stroke="white" stroke-width="0.49" stroke-miterlimit="10"/>
<path id="Vector_6" d="M33.003 15.001C32.4241 31.9507 31.9573 32.4176 15.0076 32.9964C31.9573 33.5753 32.4241 34.0422 33.003 50.9919C33.5819 34.0422 34.0488 33.5753 50.9985 32.9964C34.0488 32.4176 33.5819 31.9507 33.003 15.001Z" stroke="white" stroke-width="0.49" stroke-miterlimit="10"/>
<path id="Vector_7" d="M47.9982 33.003C33.8745 33.4885 33.4823 33.8745 33.003 47.9982C32.5175 33.8745 32.1316 33.4823 18.0078 33.003C32.1316 32.5175 32.5237 32.1316 33.003 18.0078C33.4885 32.1316 33.8745 32.5237 47.9982 33.003Z" stroke="white" stroke-width="0.49" stroke-miterlimit="10"/>
<path id="Vector_8" d="M33.0031 21.002C32.6172 32.2997 32.3059 32.6172 21.002 33.0031C32.2997 33.389 32.6172 33.7002 33.0031 45.0042C33.389 33.7065 33.7002 33.389 45.0042 33.0031C33.7065 32.6172 33.389 32.3059 33.0031 21.002Z" stroke="white" stroke-width="0.49" stroke-miterlimit="10"/>
<path id="Vector_9" d="M41.9978 33.0028C33.5198 33.2954 33.2895 33.5257 32.9969 42.0037C32.7044 33.5257 32.4741 33.2954 23.9961 33.0028C32.4741 32.7102 32.7044 32.4799 32.9969 24.002C33.2895 32.4799 33.5198 32.7102 41.9978 33.0028Z" stroke="white" stroke-width="0.49" stroke-miterlimit="10"/>
<path id="Vector_10" d="M33.003 27.0029C32.81 32.6549 32.6544 32.8105 27.0024 33.0035C32.6544 33.1965 32.81 33.3521 33.003 39.0041C33.196 33.3521 33.3516 33.1965 39.0036 33.0035C33.3516 32.8105 33.196 32.6549 33.003 27.0029Z" stroke="white" stroke-width="0.49" stroke-miterlimit="10"/>
<path id="Vector_11" d="M35.9972 33.0032C33.1712 33.1028 33.0965 33.1775 32.9969 36.0035C32.8973 33.1775 32.8226 33.1028 29.9966 33.0032C32.8226 32.9098 32.8973 32.8289 32.9969 30.0029C33.0965 32.8289 33.1712 32.9036 35.9972 33.0032Z" stroke="white" stroke-width="0.49" stroke-miterlimit="10"/>
</g>
<defs>
<clipPath id="clip0_138_1263">
<rect width="66" height="66" fill="white"/>
</clipPath>
</defs>
</svg>
