<svg width="24" height="24" viewBox="0 0 24 24" fill="none" xmlns="http://www.w3.org/2000/svg">
<g id="OBJECTS" clip-path="url(#clip0_441_1709)">
<path id="Vector" d="M23.9977 12.0011C12.6983 12.3882 12.3859 12.7006 11.9989 24C11.6141 12.6983 11.3017 12.3859 0 12.0011C11.3017 11.6141 11.6141 11.3017 12.0011 0C12.3882 11.2994 12.7006 11.6118 24 11.9989L23.9977 12.0011Z" stroke="white" stroke-width="0.49" stroke-miterlimit="10"/>
<path id="Vector_2" d="M12.0011 1.09326C11.6503 11.3651 11.3673 11.6503 1.09326 12.0011C11.3651 12.352 11.6503 12.6349 12.0011 22.909C12.352 12.6372 12.6349 12.352 22.909 12.0011C12.6372 11.6503 12.352 11.3673 12.0011 1.09326Z" stroke="white" stroke-width="0.49" stroke-miterlimit="10"/>
<path id="Vector_3" d="M21.818 12.0011C12.5716 12.318 12.3181 12.5715 12.0012 21.818C11.6843 12.5715 11.4308 12.318 2.18433 12.0011C11.4308 11.6842 11.6843 11.4307 12.0012 2.1843C12.3181 11.4307 12.5716 11.6842 21.818 12.0011Z" stroke="white" stroke-width="0.49" stroke-miterlimit="10"/>
<path id="Vector_4" d="M12.0012 3.27304C11.7205 11.4918 11.4942 11.7182 3.27539 11.9989C11.4942 12.2795 11.7205 12.5059 12.0012 20.7247C12.2819 12.5059 12.5082 12.2795 20.7271 11.9989C12.5082 11.7182 12.2819 11.4918 12.0012 3.27304Z" stroke="white" stroke-width="0.49" stroke-miterlimit="10"/>
<path id="Vector_5" d="M19.6359 12.0011C12.4447 12.2478 12.2455 12.4448 12.001 19.6359C11.7543 12.4448 11.5574 12.2456 4.36621 12.0011C11.5574 11.7544 11.7566 11.5575 12.001 4.3663C12.2478 11.5575 12.4447 11.7567 19.6359 12.0011Z" stroke="white" stroke-width="0.49" stroke-miterlimit="10"/>
<path id="Vector_6" d="M12.0011 5.45505C11.7906 11.6186 11.6208 11.7883 5.45728 11.9989C11.6208 12.2094 11.7906 12.3791 12.0011 18.5427C12.2116 12.3791 12.3814 12.2094 18.5449 11.9989C12.3814 11.7883 12.2116 11.6186 12.0011 5.45505Z" stroke="white" stroke-width="0.49" stroke-miterlimit="10"/>
<path id="Vector_7" d="M17.4539 12.0011C12.318 12.1777 12.1754 12.318 12.0011 17.4539C11.8246 12.318 11.6842 12.1754 6.54834 12.0011C11.6842 11.8246 11.8268 11.6842 12.0011 6.54834C12.1777 11.6842 12.318 11.8268 17.4539 12.0011Z" stroke="white" stroke-width="0.49" stroke-miterlimit="10"/>
<path id="Vector_8" d="M12.001 7.63708C11.8607 11.7454 11.7475 11.8608 7.63696 12.0011C11.7452 12.1415 11.8607 12.2546 12.001 16.3652C12.1413 12.2569 12.2545 12.1415 16.3651 12.0011C12.2568 11.8608 12.1413 11.7476 12.001 7.63708Z" stroke="white" stroke-width="0.49" stroke-miterlimit="10"/>
<path id="Vector_9" d="M15.2719 12.0011C12.189 12.1075 12.1053 12.1913 11.9989 15.2742C11.8925 12.1913 11.8087 12.1075 8.72583 12.0011C11.8087 11.8947 11.8925 11.811 11.9989 8.72809C12.1053 11.811 12.189 11.8947 15.2719 12.0011Z" stroke="white" stroke-width="0.49" stroke-miterlimit="10"/>
<path id="Vector_10" d="M12.0011 9.81912C11.9309 11.8744 11.8744 11.931 9.81909 12.0011C11.8744 12.0713 11.9309 12.1279 12.0011 14.1832C12.0713 12.1279 12.1279 12.0713 14.1831 12.0011C12.1279 11.931 12.0713 11.8744 12.0011 9.81912Z" stroke="white" stroke-width="0.49" stroke-miterlimit="10"/>
<path id="Vector_11" d="M13.09 12.0011C12.0624 12.0374 12.0352 12.0645 11.999 13.0921C11.9628 12.0645 11.9356 12.0374 10.908 12.0011C11.9356 11.9672 11.9628 11.9378 11.999 10.9101C12.0352 11.9378 12.0624 11.9649 13.09 12.0011Z" stroke="white" stroke-width="0.49" stroke-miterlimit="10"/>
</g>
<defs>
<clipPath id="clip0_441_1709">
<rect width="24" height="24" fill="white"/>
</clipPath>
</defs>
</svg>
