<svg width="390" height="6227" viewBox="0 0 390 6227" fill="none" xmlns="http://www.w3.org/2000/svg">
<g clip-path="url(#clip0_441_3288)" filter="url(#filter0_f_441_3288)">
<rect width="390" height="6521" fill="#73CBD5" fill-opacity="0.05"/>
<ellipse cx="356" cy="44" rx="134" ry="83" fill="#59C5D4"/>
<ellipse cx="29.5" cy="385" rx="137.5" ry="96" fill="#8F5CBE" fill-opacity="0.8"/>
<ellipse cx="29.5" cy="3672" rx="137.5" ry="96" fill="#8F5CBE" fill-opacity="0.8"/>
<ellipse cx="233.5" cy="4313.5" rx="132.5" ry="35.5" fill="#3B378B"/>
<ellipse cx="273.5" cy="4233.5" rx="116.5" ry="27.5" fill="#59C5D4"/>
<path d="M231.5 882.344C231.5 948.342 165.686 1001.84 84.5 1001.84C3.31414 1001.84 -62.5 948.342 -62.5 882.344C-62.5 816.346 3.31414 882.344 84.5 882.344C165.686 882.344 231.5 816.346 231.5 882.344Z" fill="#233269"/>
<path d="M231 1006.5C231 1072.5 165.186 1126 84 1126C2.81414 1126 -63 1072.5 -63 1006.5C-63 940.502 2.81414 1006.5 84 1006.5C165.186 1006.5 231 940.502 231 1006.5Z" fill="#1D8BBE"/>
<path d="M323 2960.33C323 3026.33 257.186 3079.83 176 3079.83C94.8141 3079.83 29 3026.33 29 2960.33C29 2894.33 94.8141 2960.33 176 2960.33C257.186 2960.33 323 2894.33 323 2960.33Z" fill="#1D8BBE"/>
<ellipse cx="331" cy="1547" rx="247" ry="116" fill="#8F5CBE" fill-opacity="0.8"/>
<ellipse cx="256.5" cy="2515" rx="168.5" ry="79" fill="#8F5CBE" fill-opacity="0.8"/>
<ellipse cx="400" cy="1455" rx="247" ry="116" fill="#73CBD5" fill-opacity="0.8"/>
<ellipse cx="303.5" cy="2452" rx="168.5" ry="79" fill="#73CBD5" fill-opacity="0.8"/>
<path d="M220 2058.5C220 2097.44 160.902 2058.5 88 2058.5C15.0984 2058.5 -44 2097.44 -44 2058.5C-44 2019.56 15.0984 1988 88 1988C160.902 1988 220 2019.56 220 2058.5Z" fill="#3B378B"/>
<ellipse cx="195.5" cy="498" rx="141.5" ry="48" fill="#59C5D4"/>
<ellipse cx="194.5" cy="4885.5" rx="123.5" ry="78.5" fill="#3B378B"/>
<ellipse cx="0.5" cy="5045.5" rx="151.5" ry="57.5" fill="#73CBD5"/>
<ellipse cx="78.5" cy="5116.5" rx="151.5" ry="57.5" fill="#3B378B"/>
<path d="M459.5 5409C459.5 5520.29 349.221 5610.5 276.043 5610.5C202.865 5610.5 215.043 5520.29 215.043 5409C215.043 5297.71 260.322 5256 333.5 5256C406.678 5256 459.5 5297.71 459.5 5409Z" fill="#3B378B"/>
<path d="M171 5758.54C171 5859.31 70.712 5941 4.16407 5941C-62.3839 5941 -51.3094 5859.31 -51.3094 5758.54C-51.3094 5657.77 -10.1325 5620 56.4154 5620C122.963 5620 171 5657.77 171 5758.54Z" fill="#3B378B"/>
<path d="M265.798 5673.48C235.791 5732.88 160.887 5755.49 127.325 5738.54C93.7631 5721.58 123.673 5676.25 153.68 5616.85C183.687 5557.44 215.701 5545.67 249.263 5562.62C282.826 5579.57 295.804 5614.08 265.798 5673.48Z" fill="#8F5CBE"/>
<path d="M304 6034.5C304 6055.21 255.199 6072 195 6072C134.801 6072 86 6055.21 86 6034.5C86 6013.79 134.801 5997 195 5997C255.199 5997 304 6013.79 304 6034.5Z" fill="#59C5D4"/>
</g>
<defs>
<filter id="filter0_f_441_3288" x="-160" y="-160" width="710" height="6841" filterUnits="userSpaceOnUse" color-interpolation-filters="sRGB">
<feFlood flood-opacity="0" result="BackgroundImageFix"/>
<feBlend mode="normal" in="SourceGraphic" in2="BackgroundImageFix" result="shape"/>
<feGaussianBlur stdDeviation="80" result="effect1_foregroundBlur_441_3288"/>
</filter>
<clipPath id="clip0_441_3288">
<rect width="390" height="6521" fill="white"/>
</clipPath>
</defs>
</svg>
