<svg width="175" height="248" viewBox="0 0 175 248" fill="none" xmlns="http://www.w3.org/2000/svg">
<g style="mix-blend-mode:color-dodge">
<path d="M143.623 134.73C127.492 162.397 85.3155 138.046 101.21 110.243C117.341 82.5758 159.518 106.926 143.623 134.73Z" fill="#73CBD5"/>
<path d="M67.7606 69.1445C67.7606 69.1445 67.6097 69.058 67.5626 68.9852L61.8096 63.1906C61.4268 62.8108 61.4549 62.1856 61.832 61.8063C62.219 61.4098 62.8384 61.4213 63.2044 61.7915L68.9574 67.5861C69.3402 67.9659 69.3121 68.5911 68.935 68.9704C68.6147 69.2906 68.1295 69.356 67.7606 69.1445Z" fill="#59C5D4"/>
<path d="M80.5485 81.9299C80.5485 81.9299 80.3975 81.8434 80.3504 81.7705L73.2455 74.6034C72.8625 74.2234 72.8907 73.598 73.2678 73.2185C73.645 72.839 74.2745 72.8334 74.6407 73.2037L81.7456 80.3708C82.1286 80.7508 82.1004 81.3762 81.7233 81.7557C81.4028 82.0761 80.9175 82.1415 80.5485 81.9299Z" fill="#59C5D4"/>
<path d="M102.618 53.6297C102.401 53.5057 102.217 53.2868 102.16 53.0038L100.633 45.8966C100.515 45.3742 100.849 44.8377 101.388 44.7139C101.91 44.5805 102.434 44.9028 102.542 45.4424L104.069 52.5495C104.187 53.072 103.852 53.6084 103.313 53.7322C103.057 53.7904 102.818 53.7441 102.618 53.6297Z" fill="#59C5D4"/>
<path d="M109.077 82.099C108.861 81.975 108.677 81.7562 108.62 81.4732L105.111 65.0655C104.993 64.5431 105.328 64.0067 105.867 63.8828C106.389 63.7494 106.912 64.0717 107.02 64.6112L110.528 81.0188C110.646 81.5412 110.312 82.0776 109.773 82.2015C109.517 82.2597 109.277 82.2135 109.077 82.099Z" fill="#59C5D4"/>
<path d="M139.895 56.1656C139.531 55.9567 139.348 55.5123 139.465 55.0821L142.145 45.4212C142.295 44.8967 142.826 44.5906 143.326 44.7187C143.842 44.8563 144.131 45.3842 143.991 45.8917L141.311 55.5526C141.161 56.0771 140.63 56.3833 140.13 56.2551C140.054 56.2341 139.962 56.2036 139.895 56.1656Z" fill="#59C5D4"/>
<path d="M130.638 90.4465C130.274 90.2378 130.091 89.7938 130.208 89.3639L136.325 67.3755C136.475 66.8514 137.005 66.5455 137.504 66.6735C138.02 66.8109 138.309 67.3384 138.168 67.8456L132.052 89.8339C131.902 90.358 131.371 90.664 130.872 90.536C130.796 90.515 130.704 90.4845 130.638 90.4465Z" fill="#59C5D4"/>
<path d="M164.012 113.864C163.812 113.75 163.652 113.567 163.574 113.318C163.43 112.804 163.721 112.265 164.23 112.078L180.316 106.887C180.832 106.727 181.375 107.015 181.529 107.513C181.674 108.028 181.382 108.566 180.874 108.753L164.787 113.944C164.511 114.037 164.245 113.998 164.012 113.864Z" fill="#59C5D4"/>
<path d="M171.096 74.1886C171.096 74.1886 170.947 74.1032 170.901 74.0313C170.523 73.6561 170.551 73.0386 170.923 72.664L178.007 65.529C178.389 65.1374 179.001 65.1488 179.362 65.5145C179.74 65.8896 179.713 66.5071 179.34 66.8817L172.256 74.0167C171.94 74.333 171.461 74.3975 171.096 74.1886Z" fill="#59C5D4"/>
<path d="M145.989 99.3282C145.989 99.3282 145.841 99.2429 145.794 99.171C145.417 98.7962 145.444 98.1792 145.816 97.8048L161.92 81.5468C162.302 81.1555 162.913 81.1669 163.274 81.5322C163.651 81.907 163.624 82.524 163.252 82.8984L147.148 99.1564C146.832 99.4724 146.353 99.537 145.989 99.3282Z" fill="#59C5D4"/>
<path d="M40.0367 101.392C39.6678 101.181 39.4822 100.731 39.6013 100.295C39.7536 99.7643 40.2916 99.4543 40.7975 99.584L48.7278 101.634C49.2504 101.773 49.5434 102.308 49.4011 102.821C49.2488 103.353 48.7108 103.663 48.2049 103.533L40.2746 101.483C40.2746 101.483 40.1037 101.431 40.0367 101.392Z" fill="#59C5D4"/>
<path d="M55.6345 105.594C55.2655 105.382 55.0799 104.932 55.199 104.496C55.3514 103.965 55.8895 103.655 56.3955 103.785L66.1979 106.312C66.7207 106.451 67.0137 106.986 66.8714 107.5C66.7191 108.031 66.181 108.341 65.6749 108.212L55.8725 105.685C55.8725 105.685 55.7016 105.632 55.6345 105.594Z" fill="#59C5D4"/>
<path d="M45.0115 143.614C44.8115 143.499 44.6513 143.317 44.5741 143.068C44.4295 142.553 44.7209 142.014 45.2295 141.828L52.2013 139.586C52.7167 139.426 53.2599 139.714 53.4144 140.212C53.5589 140.727 53.2676 141.265 52.759 141.452L45.7871 143.694C45.5112 143.786 45.2448 143.747 45.0115 143.614Z" fill="#59C5D4"/>
<path d="M63.7993 137.906C63.5994 137.792 63.4392 137.609 63.362 137.36C63.2175 136.846 63.5088 136.307 64.0174 136.12L80.104 130.929C80.6193 130.769 81.1625 131.057 81.3169 131.555C81.4614 132.07 81.17 132.608 80.6615 132.795L64.5748 137.986C64.2989 138.079 64.0326 138.04 63.7993 137.906Z" fill="#59C5D4"/>
<path d="M65.7322 179.542C65.7322 179.542 65.5832 179.456 65.5367 179.384C65.1586 179.009 65.1698 178.382 65.5587 178.017L72.6429 170.882C73.0251 170.49 73.6367 170.502 73.9982 170.867C74.3763 171.243 74.3651 171.87 73.9762 172.235L66.892 179.37C66.5757 179.686 66.0966 179.751 65.7322 179.542Z" fill="#59C5D4"/>
<path d="M81.8122 163.498C81.8122 163.498 81.6634 163.413 81.6169 163.341C81.2394 162.966 81.2671 162.349 81.639 161.975L97.7432 145.717C98.1248 145.325 98.7356 145.337 99.0966 145.702C99.4741 146.077 99.4464 146.694 99.0746 147.068L82.9704 163.326C82.6545 163.642 82.176 163.707 81.8122 163.498Z" fill="#59C5D4"/>
<path d="M181.893 183.266C181.893 183.266 181.742 183.179 181.695 183.106L175.942 177.312C175.559 176.932 175.587 176.307 175.964 175.927C176.351 175.531 176.97 175.542 177.337 175.913L183.089 181.707C183.472 182.087 183.444 182.712 183.067 183.091C182.747 183.412 182.262 183.477 181.893 183.266Z" fill="#59C5D4"/>
<path d="M170.456 171.854C170.456 171.854 170.305 171.767 170.258 171.695L163.153 164.528C162.77 164.148 162.798 163.522 163.176 163.143C163.563 162.746 164.192 162.74 164.548 163.128L171.653 170.295C172.036 170.675 172.008 171.3 171.631 171.68C171.31 172 170.825 172.066 170.456 171.854Z" fill="#59C5D4"/>
<path d="M142.825 200.066C142.608 199.942 142.424 199.723 142.367 199.44L140.84 192.333C140.722 191.811 141.056 191.274 141.595 191.15C142.117 191.017 142.64 191.339 142.748 191.879L144.276 198.986C144.394 199.508 144.059 200.045 143.52 200.169C143.264 200.227 143.024 200.181 142.825 200.066Z" fill="#59C5D4"/>
<path d="M138.345 180.898C138.129 180.774 137.945 180.555 137.888 180.272L134.379 163.864C134.261 163.342 134.596 162.806 135.135 162.682C135.657 162.548 136.18 162.871 136.288 163.41L139.796 179.818C139.914 180.34 139.58 180.876 139.041 181C138.785 181.059 138.545 181.012 138.345 180.898Z" fill="#59C5D4"/>
<path d="M101.322 200.08C100.957 199.871 100.774 199.426 100.892 198.996L103.571 189.335C103.721 188.811 104.252 188.505 104.752 188.633C105.252 188.761 105.557 189.298 105.417 189.806L102.738 199.467C102.587 199.991 102.056 200.297 101.557 200.169C101.48 200.148 101.388 200.118 101.322 200.08Z" fill="#59C5D4"/>
<path d="M107.152 178.11C106.789 177.901 106.606 177.457 106.723 177.027L112.839 155.039C112.99 154.514 113.52 154.209 114.019 154.337C114.534 154.474 114.823 155.001 114.683 155.509L108.567 177.497C108.416 178.021 107.886 178.327 107.387 178.199C107.311 178.178 107.219 178.148 107.152 178.11Z" fill="#59C5D4"/>
<path d="M105.41 151.943C74.4189 134.05 60.9019 113.514 64.0307 89.1601C64.0632 88.9089 64.1996 88.6727 64.4008 88.519C82.2038 74.4365 111.881 75.8251 139.988 92.0523C168.094 108.279 184.135 133.287 180.841 155.746C180.809 155.997 180.672 156.233 180.471 156.387C160.961 171.283 136.401 169.835 105.41 151.943ZM65.9294 89.8064C63.0527 113.451 75.9159 132.665 106.401 150.265C136.886 167.866 159.957 169.399 178.979 155.075C181.914 133.511 166.276 109.48 139.031 93.7491C111.768 78.0089 83.137 76.4824 65.9294 89.8064Z" fill="#56C4D4"/>
<path d="M64.5318 90.1234L45.1813 78.9514C44.7089 78.6787 44.552 78.0932 44.8248 77.6209C45.0975 77.1485 45.6829 76.9916 46.1553 77.2644L65.5058 88.4364C65.9782 88.7091 66.135 89.2945 65.8623 89.7669C65.5896 90.2393 65.0041 90.3961 64.5318 90.1234Z" fill="#56C4D4"/>
<path d="M97.0625 80.1807C96.9106 80.0931 96.7951 79.9814 96.7089 79.8191L77.2773 46.1513C77.0088 45.6814 77.1661 45.0973 77.636 44.8288C78.106 44.5603 78.69 44.7175 78.9585 45.1874L98.4069 78.865C98.6755 79.335 98.5182 79.919 98.0483 80.1875C97.7406 80.3698 97.3661 80.3561 97.0793 80.1905L97.0625 80.1807Z" fill="#56C4D4"/>
<path d="M121.966 85.3587C121.679 85.1931 121.48 84.8757 121.484 84.5181L121.466 33.7836C121.463 33.2424 121.891 32.8142 122.432 32.8118C122.973 32.8093 123.418 33.2463 123.404 33.7778L123.405 84.5025C123.407 85.0438 122.98 85.472 122.439 85.4744C122.255 85.4808 122.101 85.4366 121.949 85.349L121.966 85.3587Z" fill="#56C4D4"/>
<path d="M171.731 123.291C171.444 123.126 171.245 122.808 171.249 122.45C171.247 121.909 171.674 121.481 172.215 121.479L211.105 121.483C211.646 121.48 212.075 121.907 212.077 122.449C212.079 122.99 211.652 123.418 211.111 123.421L172.221 123.416C172.038 123.423 171.883 123.379 171.731 123.291Z" fill="#56C4D4"/>
<path d="M154.813 104.323C154.661 104.235 154.545 104.123 154.459 103.961C154.19 103.491 154.348 102.907 154.818 102.638L198.747 77.2771C199.217 77.0086 199.801 77.1658 200.07 77.6358C200.338 78.1057 200.181 78.6898 199.711 78.9583L155.781 104.32C155.474 104.502 155.099 104.488 154.813 104.323Z" fill="#56C4D4"/>
<path d="M138.498 94.6338C138.025 94.361 137.868 93.7756 138.141 93.3032L165.93 45.1717C166.203 44.6993 166.788 44.5424 167.261 44.8151C167.733 45.0879 167.89 45.6733 167.617 46.1457L139.828 94.2773C139.556 94.7496 138.97 94.9065 138.498 94.6338Z" fill="#56C4D4"/>
<path d="M33.3033 123.29C33.0165 123.125 32.8173 122.807 32.8213 122.45C32.8189 121.908 33.2461 121.48 33.7874 121.478L72.6772 121.482C73.2184 121.479 73.6466 121.906 73.6491 122.448C73.6515 122.989 73.2146 123.434 72.6831 123.42L33.7932 123.416C33.6096 123.422 33.4551 123.378 33.3033 123.29Z" fill="#56C4D4"/>
<path d="M45.1824 167.624C45.0474 167.546 44.9151 167.425 44.8288 167.263C44.5603 166.793 44.7175 166.209 45.1875 165.94L89.117 140.579C89.587 140.31 90.171 140.468 90.4396 140.938C90.7081 141.407 90.5508 141.992 90.0809 142.26L46.1513 167.621C45.8437 167.804 45.4692 167.79 45.1824 167.624Z" fill="#56C4D4"/>
<path d="M166.294 200.072C166.142 199.985 166.026 199.873 165.94 199.711L146.492 166.033C146.223 165.563 146.38 164.979 146.85 164.711C147.32 164.442 147.904 164.599 148.173 165.069L167.621 198.747C167.89 199.217 167.733 199.801 167.263 200.069C166.955 200.252 166.58 200.238 166.294 200.072Z" fill="#56C4D4"/>
<path d="M121.96 211.952C121.673 211.787 121.474 211.469 121.478 211.112L121.477 160.387C121.474 159.846 121.911 159.401 122.443 159.415C122.984 159.413 123.412 159.84 123.415 160.381L123.416 211.106C123.418 211.647 122.991 212.075 122.45 212.078C122.266 212.084 122.112 212.04 121.96 211.952Z" fill="#56C4D4"/>
<path d="M77.6213 200.074C77.1489 199.801 76.992 199.216 77.2647 198.744L105.054 150.612C105.326 150.14 105.912 149.983 106.384 150.256C106.856 150.528 107.013 151.114 106.741 151.586L78.9518 199.718C78.6791 200.19 78.0936 200.347 77.6213 200.074Z" fill="#56C4D4"/>
<path d="M136.099 130.228C126.388 147.633 99.2771 131.98 109.494 114.868C119.206 97.4631 146.316 113.116 136.099 130.228Z" fill="#1C1B42"/>
</g>
</svg>
