<svg width="157" height="248" viewBox="0 0 157 248" fill="none" xmlns="http://www.w3.org/2000/svg">
<g style="mix-blend-mode:color-dodge">
<path d="M51.6712 112.463C67.566 140.266 25.3897 164.617 9.25869 136.95C-6.6361 109.146 35.5402 84.796 51.6712 112.463Z" fill="#73CBD5"/>
<path d="M6.89194 101.548C6.52815 101.756 6.04968 101.692 5.73377 101.376L-10.3704 85.1177C-10.7521 84.7264 -10.7534 84.1169 -10.3924 83.7515C-10.0149 83.3767 -9.41083 83.3918 -9.03899 83.7662L7.06516 100.024C7.44685 100.415 7.4482 101.025 7.08721 101.39C7.03091 101.445 6.95809 101.51 6.89194 101.548Z" fill="#59C5D4"/>
<path d="M85.1381 71.3558C84.7692 71.5673 84.284 71.5019 83.9637 71.1817C83.5766 70.7852 83.5752 70.1676 83.9413 69.7974L89.6943 64.0028C90.0771 63.623 90.6897 63.6383 91.0667 64.0176C91.4538 64.4141 91.4551 65.0317 91.0891 65.4019L85.3361 71.1965C85.3361 71.1965 85.2052 71.3174 85.1381 71.3558Z" fill="#59C5D4"/>
<path d="M72.3508 84.1419C71.9818 84.3534 71.4965 84.288 71.176 83.9676C70.7889 83.571 70.7875 82.9531 71.1537 82.5827L78.2586 75.4156C78.6416 75.0357 79.2543 75.051 79.6315 75.4304C80.0186 75.8271 80.02 76.445 79.6538 76.8153L72.5489 83.9825C72.5489 83.9825 72.4179 84.1034 72.3508 84.1419Z" fill="#59C5D4"/>
<path d="M50.2813 55.8397C50.0813 55.9541 49.8416 56.0003 49.5855 55.9422C49.0634 55.8088 48.7388 55.2895 48.8301 54.7595L50.3574 47.6525C50.4753 47.13 50.9987 46.8077 51.5108 46.924C52.0329 47.0574 52.3575 47.5767 52.2662 48.1067L50.7389 55.2137C50.6815 55.4968 50.5146 55.7061 50.2813 55.8397Z" fill="#59C5D4"/>
<path d="M43.8216 84.3093C43.6216 84.4237 43.3819 84.4699 43.1259 84.4118C42.6039 84.2784 42.2792 83.759 42.3705 83.2291L45.879 66.8216C45.9968 66.2992 46.5201 65.9769 47.0322 66.0932C47.5542 66.2267 47.8789 66.746 47.7876 67.2759L44.2791 83.6834C44.2218 83.9665 44.0548 84.1758 43.8216 84.3093Z" fill="#59C5D4"/>
<path d="M13.0036 58.3763C13.0036 58.3763 12.8546 58.4618 12.7687 58.4659C12.2525 58.6035 11.728 58.2709 11.5875 57.7633L8.90826 48.1024C8.7579 47.5779 9.07364 47.0575 9.57322 46.9294C10.0894 46.7918 10.6139 47.1244 10.7544 47.6319L13.4336 57.2928C13.5512 57.723 13.368 58.1674 13.0036 58.3763Z" fill="#59C5D4"/>
<path d="M22.2445 92.6662C22.2445 92.6662 22.0957 92.7516 22.0099 92.7556C21.4944 92.8931 20.9706 92.5607 20.8303 92.0535L14.7139 70.0652C14.5637 69.541 14.879 69.0211 15.3779 68.8931C15.8933 68.7556 16.4172 69.088 16.5575 69.5952L22.6738 91.5835C22.7913 92.0134 22.6083 92.4575 22.2445 92.6662Z" fill="#59C5D4"/>
<path d="M10.0742 202.275C9.87425 202.39 9.63453 202.436 9.37846 202.378C8.85639 202.244 8.53173 201.725 8.62305 201.195L10.1503 194.088C10.2683 193.566 10.7916 193.243 11.3038 193.36C11.8258 193.493 12.1505 194.012 12.0592 194.542L10.5319 201.649C10.4745 201.932 10.3075 202.142 10.0742 202.275Z" fill="#59C5D4"/>
<path d="M14.5364 183.117C14.3365 183.231 14.0968 183.278 13.8407 183.219C13.3187 183.086 12.9941 182.567 13.0853 182.037L16.5938 165.629C16.7117 165.107 17.235 164.785 17.747 164.901C18.2691 165.034 18.5937 165.554 18.5024 166.084L14.994 182.491C14.9366 182.774 14.7697 182.983 14.5364 183.117Z" fill="#59C5D4"/>
<path d="M51.5609 202.3C51.5609 202.3 51.4119 202.385 51.3259 202.389C50.8097 202.527 50.2686 202.204 50.1447 201.687L47.4654 192.026C47.315 191.501 47.6308 190.981 48.1304 190.853C48.6465 190.715 49.1876 191.038 49.3116 191.555L51.9909 201.216C52.1085 201.647 51.9252 202.091 51.5609 202.3Z" fill="#59C5D4"/>
<path d="M45.7294 180.33C45.7294 180.33 45.5806 180.416 45.4947 180.42C44.9793 180.557 44.4555 180.225 44.3151 179.718L38.1988 157.729C38.0486 157.205 38.3639 156.685 38.8628 156.557C39.3782 156.42 39.902 156.752 40.0424 157.259L46.1587 179.248C46.2762 179.677 46.0932 180.122 45.7294 180.33Z" fill="#59C5D4"/>
<path d="M112.863 103.603C112.863 103.603 112.712 103.69 112.625 103.694L104.695 105.744C104.172 105.883 103.641 105.546 103.498 105.032C103.346 104.501 103.666 103.974 104.172 103.845L112.102 101.795C112.625 101.655 113.156 101.992 113.298 102.506C113.417 102.942 113.232 103.392 112.863 103.603Z" fill="#59C5D4"/>
<path d="M97.2652 107.805C97.2652 107.805 97.1143 107.892 97.0272 107.896L87.2249 110.423C86.7021 110.562 86.1708 110.225 86.0284 109.711C85.8761 109.18 86.1859 108.636 86.7019 108.523L96.5042 105.996C97.027 105.857 97.5584 106.194 97.7007 106.708C97.8199 107.143 97.6342 107.594 97.2652 107.805Z" fill="#59C5D4"/>
<path d="M107.888 145.824C107.671 145.948 107.388 145.996 107.112 145.904L100.14 143.662C99.6249 143.502 99.3236 142.946 99.4848 142.422C99.6293 141.907 100.173 141.619 100.698 141.796L107.67 144.038C108.185 144.198 108.486 144.753 108.325 145.278C108.248 145.527 108.088 145.71 107.888 145.824Z" fill="#59C5D4"/>
<path d="M89.083 140.126C88.8664 140.25 88.5835 140.298 88.3075 140.206L72.2208 135.014C71.7055 134.854 71.4042 134.299 71.5653 133.774C71.7098 133.26 72.253 132.971 72.7782 133.148L88.865 138.34C89.3803 138.5 89.6816 139.055 89.5204 139.58C89.4432 139.829 89.283 140.011 89.083 140.126Z" fill="#59C5D4"/>
<path d="M87.1496 181.761C86.7853 181.97 86.3062 181.906 85.9898 181.589L78.9058 174.454C78.5236 174.063 78.5223 173.453 78.8838 173.087C79.2453 172.722 79.8668 172.727 80.2391 173.102L87.3231 180.237C87.7053 180.628 87.7066 181.238 87.3451 181.604C87.2888 181.659 87.2158 181.723 87.1496 181.761Z" fill="#59C5D4"/>
<path d="M71.0687 165.718C70.7049 165.927 70.2264 165.863 69.9105 165.547L53.8064 149.289C53.4247 148.897 53.4233 148.288 53.7843 147.922C54.1619 147.548 54.7659 147.563 55.1378 147.937L71.2419 164.195C71.6236 164.586 71.625 165.196 71.264 165.561C71.2077 165.616 71.1348 165.68 71.0687 165.718Z" fill="#59C5D4"/>
<path d="M47.4715 154.162C16.4803 172.055 -8.06256 173.493 -27.5895 158.607C-27.7907 158.453 -27.9271 158.217 -27.9596 157.965C-31.2539 135.506 -15.2125 110.499 12.8938 94.2719C41 78.0448 70.6777 76.6562 88.4807 90.7386C88.6819 90.8924 88.8183 91.1286 88.8508 91.3797C91.9965 115.724 78.4626 136.27 47.4715 154.162ZM-26.0804 157.285C-7.04167 171.599 16.0293 170.066 46.5143 152.465C76.9993 134.865 89.8626 115.651 86.969 92.0163C69.7614 78.6923 41.1305 80.2188 13.8847 95.9492C-13.3781 111.689 -29.0155 135.721 -26.0804 157.285Z" fill="#56C4D4"/>
<path d="M112.472 80.5544L93.1217 91.7264C92.6494 91.9991 92.0639 91.8423 91.7912 91.3699C91.5185 90.8975 91.6754 90.3121 92.1477 90.0394L111.498 78.8673C111.971 78.5946 112.556 78.7515 112.829 79.2239C113.101 79.6962 112.945 80.2817 112.472 80.5544Z" fill="#56C4D4"/>
<path d="M55.8195 82.4013C55.5327 82.5668 55.1582 82.5806 54.8506 82.3983C54.3806 82.1298 54.2234 81.5458 54.4919 81.0758L73.9403 47.3982C74.2088 46.9283 74.7929 46.771 75.2628 47.0396C75.7328 47.3081 75.89 47.8921 75.6215 48.3621L56.1731 82.0397C56.0868 82.2019 55.9713 82.3136 55.8195 82.4013Z" fill="#56C4D4"/>
<path d="M30.9325 87.5694C30.7807 87.6571 30.6263 87.7013 30.4426 87.6948C29.9013 87.6924 29.4742 87.2642 29.4766 86.723L29.4779 35.9982C29.4803 35.4569 29.9085 35.0298 30.4497 35.0322C30.991 35.0346 31.4182 35.4628 31.4157 36.0041L31.4145 86.7288C31.4185 87.0864 31.2193 87.4038 30.9325 87.5694Z" fill="#56C4D4"/>
<path d="M14.3842 96.8531C13.9118 97.1258 13.3264 96.969 13.0536 96.4966L-14.7352 48.365C-15.0079 47.8926 -14.851 47.3072 -14.3786 47.0345C-13.9063 46.7617 -13.3208 46.9186 -13.0481 47.391L14.7407 95.5226C15.0134 95.995 14.8565 96.5804 14.3842 96.8531Z" fill="#56C4D4"/>
<path d="M-13.3954 202.283C-13.6822 202.449 -14.0566 202.462 -14.3643 202.28C-14.8343 202.012 -14.9915 201.428 -14.723 200.958L4.72545 167.28C4.99398 166.81 5.57802 166.653 6.04797 166.921C6.51792 167.19 6.6849 167.791 6.40663 168.244L-13.0418 201.921C-13.128 202.084 -13.2435 202.195 -13.3954 202.283Z" fill="#56C4D4"/>
<path d="M30.9389 214.162C30.8039 214.24 30.6326 214.294 30.4489 214.288C29.9077 214.285 29.4805 213.857 29.4829 213.316L29.4842 162.591C29.4866 162.05 29.9148 161.623 30.4561 161.625C30.9973 161.627 31.4245 162.056 31.4221 162.597L31.4208 213.322C31.4248 213.679 31.2257 213.997 30.9389 214.162Z" fill="#56C4D4"/>
<path d="M119.595 125.501C119.443 125.589 119.289 125.633 119.105 125.626L80.2153 125.63C79.674 125.628 79.2468 125.2 79.2493 124.658C79.2517 124.117 79.6799 123.69 80.2211 123.692L119.111 123.688C119.652 123.691 120.079 124.119 120.077 124.66C120.081 125.018 119.882 125.335 119.595 125.501Z" fill="#56C4D4"/>
<path d="M107.716 169.835C107.43 170.001 107.055 170.014 106.747 169.832L62.8178 144.471C62.3479 144.202 62.1809 143.601 62.4592 143.148C62.7277 142.678 63.3117 142.521 63.7817 142.79L107.711 168.151C108.181 168.419 108.338 169.003 108.07 169.473C107.984 169.636 107.868 169.747 107.716 169.835Z" fill="#56C4D4"/>
<path d="M75.2601 202.295C74.7878 202.567 74.2023 202.41 73.9296 201.938L46.1408 153.806C45.8681 153.334 46.025 152.749 46.4973 152.476C46.9697 152.203 47.5551 152.36 47.8279 152.832L75.6167 200.964C75.8894 201.436 75.7325 202.022 75.2601 202.295Z" fill="#56C4D4"/>
<path d="M44.0109 116.728C54.2282 133.841 27.1172 149.493 17.4061 132.088C7.1888 114.976 34.2997 99.3235 44.0109 116.728Z" fill="#1C1B42"/>
</g>
</svg>
