<svg width="505" height="500" viewBox="0 0 505 500" fill="none" xmlns="http://www.w3.org/2000/svg">
<g style="mix-blend-mode:plus-lighter" opacity="0.8">
<g style="mix-blend-mode:color-dodge">
<path d="M313.113 140.992C312.118 141.022 311.27 140.261 311.241 139.266C311.211 138.272 311.972 137.424 312.967 137.394C313.962 137.365 314.811 138.126 314.84 139.12C314.869 140.115 314.108 140.963 313.113 140.992Z" fill="#777777"/>
<path d="M364.322 255.861C363.327 255.891 362.479 255.13 362.45 254.136C362.42 253.141 363.181 252.293 364.176 252.264C365.171 252.234 366.02 252.995 366.049 253.989C366.078 254.984 365.317 255.832 364.322 255.861Z" fill="#777777"/>
<path d="M357.212 170.01C356.217 170.039 355.368 169.279 355.339 168.284C355.31 167.289 356.071 166.441 357.065 166.412C358.06 166.383 358.909 167.143 358.938 168.138C358.967 169.132 358.207 169.981 357.212 170.01Z" fill="#777777"/>
<path d="M366.107 315.272C365.113 315.301 364.264 314.54 364.235 313.546C364.205 312.551 364.966 311.703 365.961 311.674C366.956 311.644 367.805 312.405 367.834 313.399C367.863 314.394 367.102 315.242 366.107 315.272Z" fill="#777777"/>
<path d="M15.1339 87.9601C14.1389 87.9893 13.2903 87.2288 13.2611 86.2342C13.2318 85.2397 13.9926 84.3914 14.9875 84.3621C15.9825 84.3329 16.8311 85.0934 16.8603 86.088C16.8896 87.0825 16.1288 87.9308 15.1339 87.9601Z" fill="#777777"/>
<path d="M52.8824 318.606C51.8875 318.635 51.0389 317.874 51.0096 316.88C50.9803 315.885 51.7412 315.037 52.7361 315.008C53.731 314.978 54.5796 315.739 54.6089 316.733C54.6381 317.728 53.8773 318.576 52.8824 318.606Z" fill="#777777"/>
<path d="M329.617 6.96298C328.622 6.99224 327.774 6.2317 327.744 5.23716C327.715 4.24261 328.476 3.39433 329.471 3.36507C330.466 3.33582 331.314 4.09636 331.344 5.0909C331.373 6.08545 330.612 6.93373 329.617 6.96298Z" fill="#777777"/>
<path d="M503.172 3.59873C502.177 3.62798 501.329 2.86744 501.3 1.8729C501.27 0.878355 502.031 0.0300674 503.026 0.000816101C504.021 -0.0284352 504.87 0.732099 504.899 1.72664C504.928 2.72119 504.167 3.56948 503.172 3.59873Z" fill="#777777"/>
<path d="M320.604 97.086C319.609 97.1153 318.761 96.3547 318.731 95.3602C318.702 94.3657 319.463 93.5174 320.458 93.4881C321.453 93.4589 322.301 94.2194 322.331 95.2139C322.36 96.2085 321.599 97.0568 320.604 97.086Z" fill="#777777"/>
<path d="M68.6842 142.514C67.6892 142.543 66.8406 141.782 66.8114 140.788C66.7821 139.793 67.5429 138.945 68.5378 138.916C69.5328 138.887 70.3814 139.647 70.4106 140.642C70.4399 141.636 69.6791 142.485 68.6842 142.514Z" fill="#777777"/>
<path d="M503.172 172.028C502.177 172.058 501.329 171.297 501.3 170.303C501.27 169.308 502.031 168.46 503.026 168.431C504.021 168.401 504.87 169.162 504.899 170.156C504.928 171.151 504.167 171.999 503.172 172.028Z" fill="#777777"/>
<path d="M312.557 188.876C311.562 188.905 310.714 188.145 310.684 187.15C310.655 186.156 311.416 185.307 312.411 185.278C313.406 185.249 314.254 186.009 314.284 187.004C314.313 187.999 313.552 188.847 312.557 188.876Z" fill="#777777"/>
<path d="M322.857 223.598C321.863 223.627 321.014 222.866 320.985 221.872C320.955 220.877 321.716 220.029 322.711 220C323.706 219.971 324.555 220.731 324.584 221.726C324.613 222.72 323.852 223.569 322.857 223.598Z" fill="#777777"/>
<path d="M337.138 276.367C336.143 276.397 335.294 275.636 335.265 274.641C335.236 273.647 335.997 272.799 336.991 272.769C337.986 272.74 338.835 273.501 338.864 274.495C338.894 275.49 338.133 276.338 337.138 276.367Z" fill="#777777"/>
<path d="M262.987 160.005C261.992 160.034 261.143 159.274 261.114 158.279C261.085 157.285 261.846 156.436 262.841 156.407C263.835 156.378 264.684 157.138 264.713 158.133C264.743 159.127 263.982 159.976 262.987 160.005Z" fill="#777777"/>
<path d="M263.894 108.581C262.899 108.61 262.05 107.85 262.021 106.855C261.992 105.861 262.752 105.012 263.747 104.983C264.742 104.954 265.591 105.715 265.62 106.709C265.649 107.704 264.889 108.552 263.894 108.581Z" fill="#777777"/>
<path d="M242.24 130.695C241.245 130.725 240.396 129.964 240.367 128.97C240.338 127.975 241.099 127.127 242.093 127.097C243.088 127.068 243.937 127.829 243.966 128.823C243.996 129.818 243.235 130.666 242.24 130.695Z" fill="#777777"/>
<path d="M290.054 250.392C289.059 250.421 288.211 249.66 288.181 248.666C288.152 247.671 288.913 246.823 289.908 246.794C290.903 246.765 291.751 247.525 291.781 248.52C291.81 249.514 291.049 250.362 290.054 250.392Z" fill="#777777"/>
<path d="M283.763 244.161C282.768 244.19 281.92 243.43 281.89 242.435C281.861 241.441 282.622 240.593 283.617 240.563C284.612 240.534 285.46 241.295 285.49 242.289C285.519 243.284 284.758 244.132 283.763 244.161Z" fill="#777777"/>
<path d="M375.647 212.453C374.652 212.482 373.803 211.722 373.774 210.727C373.745 209.733 374.506 208.885 375.5 208.855C376.495 208.826 377.344 209.587 377.373 210.581C377.403 211.576 376.642 212.424 375.647 212.453Z" fill="#777777"/>
<path d="M-0.960375 182.061C-1.9553 182.09 -2.80391 181.329 -2.83317 180.335C-2.86243 179.34 -2.10162 178.492 -1.1067 178.463C-0.111774 178.433 0.736834 179.194 0.766096 180.189C0.795358 181.183 0.0345466 182.031 -0.960375 182.061Z" fill="#777777"/>
<path d="M139.499 135.054C138.504 135.083 137.656 134.323 137.626 133.328C137.597 132.333 138.358 131.485 139.353 131.456C140.348 131.427 141.196 132.187 141.226 133.182C141.255 134.176 140.494 135.025 139.499 135.054Z" fill="#777777"/>
<path d="M414.712 258.319C413.717 258.349 412.869 257.588 412.839 256.594C412.81 255.599 413.571 254.751 414.566 254.722C415.561 254.692 416.409 255.453 416.439 256.447C416.468 257.442 415.707 258.29 414.712 258.319Z" fill="#777777"/>
<path d="M348.521 229.067C347.526 229.097 346.678 228.336 346.648 227.342C346.619 226.347 347.38 225.499 348.375 225.47C349.37 225.44 350.218 226.201 350.248 227.195C350.277 228.19 349.516 229.038 348.521 229.067Z" fill="#777777"/>
<path d="M16.2169 311.907C15.2219 311.937 14.3733 311.176 14.3441 310.181C14.3148 309.187 15.0756 308.339 16.0706 308.309C17.0655 308.28 17.9141 309.041 17.9434 310.035C17.9726 311.03 17.2118 311.878 16.2169 311.907Z" fill="#777777"/>
<path d="M298.248 333.846C297.253 333.875 296.404 333.115 296.375 332.12C296.346 331.125 297.106 330.277 298.101 330.248C299.096 330.219 299.945 330.979 299.974 331.974C300.003 332.968 299.243 333.817 298.248 333.846Z" fill="#777777"/>
<path d="M170.254 289.237C169.259 289.267 168.41 288.506 168.381 287.512C168.352 286.517 169.113 285.669 170.108 285.639C171.103 285.61 171.951 286.371 171.98 287.365C172.01 288.36 171.249 289.208 170.254 289.237Z" fill="#777777"/>
<path d="M206.1 301.465C205.105 301.494 204.257 300.734 204.227 299.739C204.198 298.745 204.959 297.896 205.954 297.867C206.949 297.838 207.797 298.598 207.827 299.593C207.856 300.587 207.095 301.436 206.1 301.465Z" fill="#777777"/>
<path d="M256.783 194.902C255.788 194.932 254.939 194.171 254.91 193.177C254.881 192.182 255.642 191.334 256.636 191.305C257.631 191.275 258.48 192.036 258.509 193.03C258.539 194.025 257.778 194.873 256.783 194.902Z" fill="#777777"/>
<path d="M173.268 282.744C172.273 282.773 171.425 282.013 171.395 281.018C171.366 280.024 172.127 279.176 173.122 279.146C174.117 279.117 174.965 279.878 174.995 280.872C175.024 281.867 174.263 282.715 173.268 282.744Z" fill="#777777"/>
<path d="M160.949 360.055C159.954 360.084 159.105 359.323 159.076 358.329C159.047 357.334 159.808 356.486 160.802 356.457C161.797 356.428 162.646 357.188 162.675 358.183C162.705 359.177 161.944 360.026 160.949 360.055Z" fill="#777777"/>
<path d="M172.127 386.557C171.132 386.586 170.283 385.825 170.254 384.831C170.225 383.836 170.986 382.988 171.981 382.959C172.976 382.93 173.824 383.69 173.853 384.685C173.883 385.679 173.122 386.527 172.127 386.557Z" fill="#777777"/>
<path d="M137.627 373.364C136.632 373.394 135.783 372.633 135.754 371.639C135.724 370.644 136.485 369.796 137.48 369.766C138.475 369.737 139.324 370.498 139.353 371.492C139.382 372.487 138.621 373.335 137.627 373.364Z" fill="#777777"/>
<path d="M83.9302 260.016C82.9353 260.045 82.0867 259.284 82.0575 258.29C82.0282 257.295 82.789 256.447 83.7839 256.418C84.7789 256.389 85.6275 257.149 85.6567 258.144C85.686 259.138 84.9252 259.986 83.9302 260.016Z" fill="#777777"/>
<path d="M216.167 386.235C215.172 386.265 214.323 385.504 214.294 384.51C214.265 383.515 215.025 382.667 216.02 382.638C217.015 382.608 217.864 383.369 217.893 384.363C217.922 385.358 217.161 386.206 216.167 386.235Z" fill="#777777"/>
<path d="M115.592 276.952C114.597 276.982 113.748 276.221 113.719 275.226C113.69 274.232 114.451 273.384 115.446 273.354C116.44 273.325 117.289 274.086 117.318 275.08C117.348 276.075 116.587 276.923 115.592 276.952Z" fill="#777777"/>
<path d="M329.617 396.502C328.622 396.531 327.774 395.771 327.744 394.776C327.715 393.782 328.476 392.933 329.471 392.904C330.466 392.875 331.314 393.635 331.344 394.63C331.373 395.624 330.612 396.473 329.617 396.502Z" fill="#777777"/>
<path d="M21.7178 282.275C20.7229 282.305 19.8743 281.544 19.8451 280.55C19.8158 279.555 20.5766 278.707 21.5715 278.678C22.5664 278.648 23.4151 279.409 23.4443 280.403C23.4736 281.398 22.7128 282.246 21.7178 282.275Z" fill="#777777"/>
<path d="M89.1094 414.696C88.1145 414.726 87.2659 413.965 87.2367 412.971C87.2074 411.976 87.9682 411.128 88.9631 411.098C89.958 411.069 90.8067 411.83 90.8359 412.824C90.8652 413.819 90.1044 414.667 89.1094 414.696Z" fill="#777777"/>
<path d="M11.2716 372.136C10.2767 372.165 9.42803 371.405 9.39877 370.41C9.3695 369.415 10.1303 368.567 11.1253 368.538C12.1202 368.509 12.9688 369.269 12.9981 370.264C13.0273 371.258 12.2665 372.107 11.2716 372.136Z" fill="#777777"/>
<path d="M61.5445 280.843C60.5496 280.872 59.701 280.112 59.6717 279.117C59.6425 278.122 60.4033 277.274 61.3982 277.245C62.3931 277.216 63.2417 277.976 63.271 278.971C63.3002 279.965 62.5394 280.814 61.5445 280.843Z" fill="#777777"/>
<path d="M47.2935 189.725C46.2986 189.754 45.45 188.993 45.4207 187.999C45.3915 187.004 46.1523 186.156 47.1472 186.127C48.1421 186.098 48.9907 186.858 49.02 187.853C49.0493 188.847 48.2885 189.695 47.2935 189.725Z" fill="#777777"/>
<path d="M135.607 189.55C134.613 189.579 133.764 188.819 133.735 187.824C133.705 186.83 134.466 185.981 135.461 185.952C136.456 185.923 137.305 186.683 137.334 187.678C137.363 188.672 136.602 189.521 135.607 189.55Z" fill="#777777"/>
<path d="M195.858 171.004C194.864 171.033 194.015 170.273 193.986 169.278C193.956 168.284 194.717 167.435 195.712 167.406C196.707 167.377 197.556 168.137 197.585 169.132C197.614 170.126 196.853 170.975 195.858 171.004Z" fill="#777777"/>
<path d="M216.547 219.679C215.553 219.708 214.704 218.948 214.675 217.953C214.645 216.958 215.406 216.11 216.401 216.081C217.396 216.052 218.245 216.812 218.274 217.807C218.303 218.801 217.542 219.65 216.547 219.679Z" fill="#777777"/>
<path d="M97.2149 140.056C96.22 140.085 95.3714 139.324 95.3421 138.33C95.3129 137.335 96.0737 136.487 97.0686 136.458C98.0635 136.429 98.9121 137.189 98.9414 138.184C98.9707 139.178 98.2098 140.027 97.2149 140.056Z" fill="#777777"/>
<path d="M40.2706 114.49C39.2757 114.52 38.4271 113.759 38.3978 112.764C38.3685 111.77 39.1293 110.922 40.1243 110.892C41.1192 110.863 41.9678 111.624 41.9971 112.618C42.0263 113.613 41.2655 114.461 40.2706 114.49Z" fill="#777777"/>
<path d="M4.71687 141.986C3.72195 142.016 2.87334 141.255 2.84408 140.261C2.81482 139.266 3.57565 138.418 4.57057 138.389C5.56549 138.359 6.4141 139.12 6.44336 140.114C6.47263 141.109 5.71179 141.957 4.71687 141.986Z" fill="#777777"/>
<path d="M313.113 287.453C312.118 287.482 311.27 286.722 311.241 285.727C311.211 284.733 311.972 283.885 312.967 283.855C313.962 283.826 314.811 284.587 314.84 285.581C314.869 286.576 314.108 287.424 313.113 287.453Z" fill="#777777"/>
<path d="M160.627 167.816C159.632 167.845 158.783 167.084 158.754 166.09C158.724 165.095 159.485 164.247 160.48 164.218C161.475 164.188 162.324 164.949 162.353 165.943C162.382 166.938 161.621 167.786 160.627 167.816Z" fill="#777777"/>
<path d="M94.523 177.117C93.5281 177.147 92.6795 176.386 92.6502 175.391C92.621 174.397 93.3818 173.549 94.3767 173.519C95.3717 173.49 96.2203 174.251 96.2495 175.245C96.2788 176.24 95.5179 177.088 94.523 177.117Z" fill="#777777"/>
<path d="M466.624 382.286C465.629 382.315 464.781 381.555 464.751 380.56C464.722 379.566 465.483 378.718 466.478 378.688C467.473 378.659 468.321 379.42 468.351 380.414C468.38 381.409 467.619 382.257 466.624 382.286Z" fill="#777777"/>
<path d="M253.126 210.669C252.131 210.698 251.282 209.938 251.253 208.943C251.224 207.949 251.984 207.1 252.979 207.071C253.974 207.042 254.823 207.802 254.852 208.797C254.881 209.791 254.12 210.64 253.126 210.669Z" fill="#777777"/>
<path d="M151.321 175.685C150.326 175.714 149.478 174.953 149.449 173.959C149.419 172.964 150.18 172.116 151.175 172.087C152.17 172.058 153.019 172.818 153.048 173.813C153.077 174.807 152.316 175.655 151.321 175.685Z" fill="#777777"/>
<path d="M158.081 157.197C157.086 157.227 156.238 156.466 156.208 155.472C156.179 154.477 156.94 153.629 157.935 153.599C158.93 153.57 159.778 154.331 159.808 155.325C159.837 156.32 159.076 157.168 158.081 157.197Z" fill="#777777"/>
<path d="M120.801 142.689C119.806 142.718 118.957 141.957 118.928 140.963C118.899 139.968 119.66 139.12 120.655 139.091C121.649 139.061 122.498 139.822 122.527 140.816C122.557 141.811 121.796 142.659 120.801 142.689Z" fill="#777777"/>
<path d="M182.398 72.3985C181.403 72.4278 180.554 71.6672 180.525 70.6727C180.496 69.6782 181.257 68.8299 182.252 68.8006C183.247 68.7714 184.095 69.5319 184.124 70.5264C184.154 71.521 183.393 72.3693 182.398 72.3985Z" fill="#777777"/>
<path d="M216.05 62.0431C215.055 62.0723 214.206 61.3118 214.177 60.3172C214.148 59.3227 214.909 58.4744 215.904 58.4452C216.898 58.4159 217.747 59.1764 217.776 60.171C217.806 61.1655 217.045 62.0138 216.05 62.0431Z" fill="#777777"/>
<path d="M160.247 113.291C159.252 113.32 158.403 112.56 158.374 111.565C158.345 110.571 159.105 109.722 160.1 109.693C161.095 109.664 161.944 110.424 161.973 111.419C162.002 112.414 161.242 113.262 160.247 113.291Z" fill="#777777"/>
<path d="M197.468 324.924C196.473 324.953 195.625 324.193 195.596 323.198C195.566 322.204 196.327 321.355 197.322 321.326C198.317 321.297 199.166 322.057 199.195 323.052C199.224 324.046 198.463 324.895 197.468 324.924Z" fill="#777777"/>
<path d="M234.368 347.155C233.373 347.185 232.525 346.424 232.495 345.43C232.466 344.435 233.227 343.587 234.222 343.557C235.217 343.528 236.065 344.289 236.095 345.283C236.124 346.278 235.363 347.126 234.368 347.155Z" fill="#777777"/>
<path d="M263.748 405.541C262.753 405.57 261.904 404.81 261.875 403.815C261.846 402.821 262.606 401.972 263.601 401.943C264.596 401.914 265.445 402.674 265.474 403.669C265.503 404.664 264.743 405.512 263.748 405.541Z" fill="#777777"/>
<path d="M96.4542 324.544C95.4593 324.573 94.6106 323.813 94.5814 322.818C94.5521 321.824 95.3129 320.975 96.3079 320.946C97.3028 320.917 98.1514 321.677 98.1806 322.672C98.2099 323.666 97.4491 324.515 96.4542 324.544Z" fill="#777777"/>
<path d="M241.011 244.834C240.016 244.863 239.167 244.103 239.138 243.108C239.109 242.114 239.87 241.265 240.864 241.236C241.859 241.207 242.708 241.967 242.737 242.962C242.767 243.957 242.006 244.805 241.011 244.834Z" fill="#777777"/>
<path d="M216.547 266.012C215.553 266.041 214.704 265.281 214.675 264.286C214.645 263.291 215.406 262.443 216.401 262.414C217.396 262.385 218.245 263.145 218.274 264.14C218.303 265.134 217.542 265.983 216.547 266.012Z" fill="#777777"/>
<path d="M234.661 282.744C233.666 282.773 232.817 282.013 232.788 281.018C232.759 280.024 233.52 279.176 234.514 279.146C235.509 279.117 236.358 279.878 236.387 280.872C236.416 281.867 235.656 282.715 234.661 282.744Z" fill="#777777"/>
<path d="M274.838 313.048C273.843 313.077 272.994 312.317 272.965 311.322C272.936 310.328 273.697 309.479 274.692 309.45C275.687 309.421 276.535 310.181 276.564 311.176C276.594 312.17 275.833 313.019 274.838 313.048Z" fill="#777777"/>
<path d="M437.069 78.8331C436.074 78.8624 435.225 78.1018 435.196 77.1073C435.167 76.1127 435.928 75.2644 436.923 75.2352C437.918 75.2059 438.766 75.9665 438.795 76.961C438.825 77.9556 438.064 78.8039 437.069 78.8331Z" fill="#777777"/>
<path d="M394.785 144.531C393.79 144.561 392.941 143.8 392.912 142.806C392.883 141.811 393.644 140.963 394.638 140.933C395.633 140.904 396.482 141.665 396.511 142.659C396.541 143.654 395.78 144.502 394.785 144.531Z" fill="#777777"/>
<path d="M0.795484 41.5958C-0.199438 41.6251 -1.04805 40.8645 -1.07731 39.87C-1.10657 38.8754 -0.345759 38.0271 0.649163 37.9979C1.64408 37.9686 2.49269 38.7292 2.52196 39.7237C2.55122 40.7183 1.79041 41.5665 0.795484 41.5958Z" fill="#777777"/>
<path d="M51.7412 258.729C51.4194 258.378 51.4779 257.822 51.829 257.5C52.1802 257.179 52.7362 257.237 53.058 257.588C53.3799 257.939 53.3214 258.495 52.9703 258.817C52.6191 259.139 52.0631 259.08 51.7412 258.729Z" fill="#777777"/>
<path d="M282.065 221.229C281.744 220.878 281.802 220.322 282.153 220C282.504 219.679 283.06 219.737 283.382 220.088C283.704 220.439 283.646 220.995 283.294 221.317C282.943 221.639 282.387 221.58 282.065 221.229Z" fill="#777777"/>
<path d="M293.039 208.739C292.717 208.388 292.776 207.832 293.127 207.51C293.478 207.188 294.034 207.247 294.356 207.598C294.678 207.949 294.619 208.505 294.268 208.827C293.917 209.148 293.361 209.09 293.039 208.739Z" fill="#777777"/>
<path d="M338.454 118.792C338.132 118.44 338.191 117.885 338.542 117.563C338.893 117.241 339.449 117.3 339.771 117.651C340.093 118.002 340.034 118.557 339.683 118.879C339.332 119.201 338.776 119.143 338.454 118.792Z" fill="#777777"/>
<path d="M293.771 171.502C293.449 171.151 293.507 170.596 293.858 170.274C294.209 169.952 294.765 170.011 295.087 170.362C295.409 170.713 295.351 171.268 295 171.59C294.648 171.912 294.092 171.853 293.771 171.502Z" fill="#777777"/>
<path d="M242.386 167.261C242.064 166.91 242.122 166.354 242.474 166.033C242.825 165.711 243.381 165.769 243.703 166.12C244.024 166.471 243.966 167.027 243.615 167.349C243.264 167.671 242.708 167.612 242.386 167.261Z" fill="#777777"/>
<path d="M280.193 212.336C279.871 211.985 279.93 211.43 280.281 211.108C280.632 210.786 281.188 210.845 281.51 211.196C281.832 211.547 281.773 212.102 281.422 212.424C281.071 212.746 280.515 212.687 280.193 212.336Z" fill="#777777"/>
<path d="M348.462 168.782C348.14 168.431 348.199 167.875 348.55 167.553C348.901 167.231 349.457 167.29 349.779 167.641C350.101 167.992 350.042 168.548 349.691 168.869C349.34 169.191 348.784 169.133 348.462 168.782Z" fill="#777777"/>
<path d="M373.803 196.103C373.481 195.752 373.54 195.196 373.891 194.874C374.242 194.553 374.798 194.611 375.12 194.962C375.442 195.313 375.383 195.869 375.032 196.191C374.681 196.513 374.125 196.454 373.803 196.103Z" fill="#777777"/>
<path d="M381.324 210.992C381.002 210.641 381.06 210.085 381.411 209.763C381.762 209.441 382.318 209.5 382.64 209.851C382.962 210.202 382.904 210.758 382.553 211.079C382.201 211.401 381.645 211.343 381.324 210.992Z" fill="#777777"/>
<path d="M194.454 305.795C194.132 305.444 194.19 304.889 194.541 304.567C194.893 304.245 195.449 304.304 195.77 304.655C196.092 305.006 196.034 305.561 195.683 305.883C195.332 306.205 194.776 306.146 194.454 305.795Z" fill="#777777"/>
<path d="M299.798 314.043C299.476 313.692 299.535 313.137 299.886 312.815C300.237 312.493 300.793 312.552 301.115 312.903C301.437 313.254 301.379 313.809 301.027 314.131C300.676 314.453 300.12 314.394 299.798 314.043Z" fill="#777777"/>
<path d="M136.456 310.358C136.134 310.007 136.192 309.451 136.543 309.129C136.895 308.808 137.451 308.866 137.772 309.217C138.094 309.568 138.036 310.124 137.685 310.446C137.333 310.767 136.777 310.709 136.456 310.358Z" fill="#777777"/>
<path d="M99.3218 313.781C98.9999 313.43 99.0585 312.874 99.4096 312.552C99.7607 312.23 100.317 312.289 100.639 312.64C100.961 312.991 100.902 313.547 100.551 313.869C100.2 314.19 99.6437 314.132 99.3218 313.781Z" fill="#777777"/>
<path d="M182.427 355.639C182.105 355.288 182.163 354.732 182.515 354.411C182.866 354.089 183.422 354.147 183.744 354.498C184.065 354.849 184.007 355.405 183.656 355.727C183.305 356.049 182.749 355.99 182.427 355.639Z" fill="#777777"/>
<path d="M178.974 340.019C178.652 339.668 178.711 339.112 179.062 338.79C179.413 338.469 179.969 338.527 180.291 338.878C180.613 339.229 180.554 339.785 180.203 340.107C179.852 340.429 179.296 340.37 178.974 340.019Z" fill="#777777"/>
<path d="M219.005 347.419C218.683 347.068 218.742 346.513 219.093 346.191C219.444 345.869 220 345.928 220.322 346.279C220.644 346.63 220.585 347.185 220.234 347.507C219.883 347.829 219.327 347.77 219.005 347.419Z" fill="#777777"/>
<path d="M225.15 356.868C224.828 356.517 224.887 355.961 225.238 355.639C225.589 355.317 226.145 355.376 226.467 355.727C226.789 356.078 226.73 356.634 226.379 356.955C226.028 357.277 225.472 357.219 225.15 356.868Z" fill="#777777"/>
<path d="M239.577 370.792C239.255 370.44 239.313 369.885 239.664 369.563C240.016 369.241 240.572 369.3 240.893 369.651C241.215 370.002 241.157 370.557 240.806 370.879C240.455 371.201 239.899 371.143 239.577 370.792Z" fill="#777777"/>
<path d="M250.667 331.126C250.345 330.775 250.404 330.22 250.755 329.898C251.106 329.576 251.662 329.635 251.984 329.986C252.306 330.337 252.247 330.892 251.896 331.214C251.545 331.536 250.989 331.477 250.667 331.126Z" fill="#777777"/>
<path d="M299.213 319.982C298.892 319.631 298.95 319.075 299.301 318.753C299.652 318.432 300.208 318.49 300.53 318.841C300.852 319.192 300.794 319.748 300.442 320.07C300.091 320.391 299.535 320.333 299.213 319.982Z" fill="#777777"/>
<path d="M311.533 324.662C311.211 324.311 311.269 323.755 311.621 323.433C311.972 323.111 312.528 323.17 312.85 323.521C313.171 323.872 313.113 324.428 312.762 324.749C312.411 325.071 311.855 325.013 311.533 324.662Z" fill="#777777"/>
<path d="M309.806 231.79C309.484 231.439 309.543 230.883 309.894 230.561C310.245 230.239 310.801 230.298 311.123 230.649C311.445 231 311.386 231.556 311.035 231.877C310.684 232.199 310.128 232.141 309.806 231.79Z" fill="#777777"/>
<path d="M372.164 242.465C371.842 242.114 371.901 241.559 372.252 241.237C372.603 240.915 373.159 240.974 373.481 241.325C373.803 241.676 373.745 242.231 373.393 242.553C373.042 242.875 372.486 242.816 372.164 242.465Z" fill="#777777"/>
<path d="M378.514 242.027C378.193 241.676 378.251 241.12 378.602 240.798C378.953 240.477 379.509 240.535 379.831 240.886C380.153 241.237 380.095 241.793 379.743 242.115C379.392 242.436 378.836 242.378 378.514 242.027Z" fill="#777777"/>
<path d="M385.684 244.309C385.362 243.958 385.42 243.402 385.771 243.081C386.123 242.759 386.679 242.817 387 243.168C387.322 243.519 387.264 244.075 386.913 244.397C386.562 244.719 386.005 244.66 385.684 244.309Z" fill="#777777"/>
<path d="M254.793 245.625C254.471 245.273 254.53 244.718 254.881 244.396C255.232 244.074 255.788 244.133 256.11 244.484C256.432 244.835 256.373 245.39 256.022 245.712C255.671 246.034 255.115 245.976 254.793 245.625Z" fill="#777777"/>
<path d="M336.201 192.534C335.879 192.183 335.938 191.627 336.289 191.305C336.64 190.983 337.196 191.042 337.518 191.393C337.84 191.744 337.781 192.3 337.43 192.621C337.079 192.943 336.523 192.885 336.201 192.534Z" fill="#777777"/>
<path d="M163.699 313.869C163.377 313.518 163.436 312.962 163.787 312.64C164.138 312.318 164.694 312.377 165.016 312.728C165.338 313.079 165.279 313.635 164.928 313.956C164.577 314.278 164.021 314.22 163.699 313.869Z" fill="#777777"/>
<path d="M119.103 285.699C118.781 285.348 118.84 284.792 119.191 284.47C119.542 284.148 120.098 284.207 120.42 284.558C120.742 284.909 120.683 285.465 120.332 285.786C119.981 286.108 119.425 286.05 119.103 285.699Z" fill="#777777"/>
<path d="M82.7886 277.656C82.4667 277.305 82.5252 276.749 82.8764 276.427C83.2275 276.105 83.7835 276.164 84.1054 276.515C84.4273 276.866 84.3688 277.422 84.0176 277.744C83.6665 278.065 83.1105 278.007 82.7886 277.656Z" fill="#777777"/>
<path d="M172.478 240.945C172.156 240.594 172.215 240.038 172.566 239.716C172.917 239.394 173.473 239.453 173.795 239.804C174.117 240.155 174.058 240.711 173.707 241.033C173.356 241.354 172.8 241.296 172.478 240.945Z" fill="#777777"/>
<path d="M155.593 214.443C155.271 214.092 155.33 213.536 155.681 213.214C156.032 212.893 156.588 212.951 156.91 213.302C157.232 213.653 157.173 214.209 156.822 214.531C156.471 214.852 155.915 214.794 155.593 214.443Z" fill="#777777"/>
<path d="M177.687 198.384C177.365 198.033 177.423 197.477 177.774 197.156C178.125 196.834 178.681 196.892 179.003 197.243C179.325 197.594 179.267 198.15 178.916 198.472C178.564 198.794 178.008 198.735 177.687 198.384Z" fill="#777777"/>
<path d="M187.958 134.792C187.636 134.44 187.694 133.885 188.045 133.563C188.396 133.241 188.952 133.3 189.274 133.651C189.596 134.002 189.538 134.557 189.187 134.879C188.835 135.201 188.279 135.143 187.958 134.792Z" fill="#777777"/>
<path d="M144.123 179.108C143.801 178.757 143.859 178.201 144.21 177.879C144.562 177.558 145.118 177.616 145.439 177.967C145.761 178.318 145.703 178.874 145.352 179.196C145 179.517 144.444 179.459 144.123 179.108Z" fill="#777777"/>
<path d="M84.4566 61.7515C84.1347 61.4004 84.1932 60.8447 84.5444 60.5229C84.8955 60.2011 85.4515 60.2596 85.7734 60.6107C86.0953 60.9617 86.0367 61.5174 85.6856 61.8392C85.3344 62.161 84.7785 62.1025 84.4566 61.7515Z" fill="#777777"/>
<path d="M95.6055 245.274C95.2836 244.923 95.3421 244.367 95.6933 244.045C96.0444 243.724 96.6004 243.782 96.9223 244.133C97.2442 244.484 97.1857 245.04 96.8345 245.362C96.4834 245.683 95.9274 245.625 95.6055 245.274Z" fill="#777777"/>
<path d="M55.3404 175.568C55.0185 175.217 55.077 174.661 55.4282 174.339C55.7793 174.018 56.3353 174.076 56.6572 174.427C56.9791 174.778 56.9206 175.334 56.5694 175.656C56.2183 175.977 55.6622 175.919 55.3404 175.568Z" fill="#777777"/>
<path d="M86.2124 314.775C85.8906 314.424 85.9491 313.868 86.3002 313.546C86.6514 313.225 87.2074 313.283 87.5292 313.634C87.8511 313.985 87.7926 314.541 87.4415 314.863C87.0903 315.184 86.5343 315.126 86.2124 314.775Z" fill="#777777"/>
<path d="M35.9981 326.329C35.6762 325.978 35.7347 325.422 36.0859 325.1C36.437 324.778 36.993 324.837 37.3149 325.188C37.6368 325.539 37.5782 326.095 37.2271 326.416C36.876 326.738 36.32 326.68 35.9981 326.329Z" fill="#777777"/>
<path d="M70.3521 342.038C70.0302 341.687 70.0887 341.131 70.4399 340.809C70.791 340.487 71.347 340.546 71.6689 340.897C71.9908 341.248 71.9323 341.804 71.5811 342.125C71.23 342.447 70.674 342.389 70.3521 342.038Z" fill="#777777"/>
<path d="M13.5537 152.665C13.2319 152.314 13.2904 151.758 13.6415 151.436C13.9927 151.114 14.5487 151.173 14.8705 151.524C15.1924 151.875 15.1339 152.431 14.7828 152.752C14.4316 153.074 13.8756 153.016 13.5537 152.665Z" fill="#777777"/>
<path d="M1.14651 158.807C0.824627 158.456 0.88317 157.9 1.23432 157.579C1.58547 157.257 2.14145 157.315 2.46334 157.666C2.78522 158.017 2.7267 158.573 2.37555 158.895C2.0244 159.217 1.4684 159.158 1.14651 158.807Z" fill="#777777"/>
<path d="M20.2256 238.926C19.9037 238.575 19.9623 238.019 20.3134 237.698C20.6646 237.376 21.2205 237.434 21.5424 237.785C21.8643 238.136 21.8058 238.692 21.4546 239.014C21.1035 239.336 20.5475 239.277 20.2256 238.926Z" fill="#777777"/>
<path d="M25.3462 318.022C25.0243 317.671 25.0829 317.115 25.434 316.793C25.7852 316.472 26.3411 316.53 26.663 316.881C26.9849 317.232 26.9264 317.788 26.5752 318.11C26.2241 318.431 25.6681 318.373 25.3462 318.022Z" fill="#777777"/>
<path d="M71.8736 303.542C71.5517 303.191 71.6102 302.636 71.9614 302.314C72.3125 301.992 72.8685 302.051 73.1904 302.402C73.5123 302.753 73.4537 303.308 73.1026 303.63C72.7514 303.952 72.1955 303.893 71.8736 303.542Z" fill="#777777"/>
<path d="M179.559 308.339C179.237 307.988 179.296 307.433 179.647 307.111C179.998 306.789 180.554 306.848 180.876 307.199C181.198 307.55 181.139 308.105 180.788 308.427C180.437 308.749 179.881 308.69 179.559 308.339Z" fill="#777777"/>
<path d="M103.448 99.895C103.126 99.544 103.184 98.9882 103.536 98.6665C103.887 98.3447 104.443 98.4032 104.765 98.7542C105.086 99.1052 105.028 99.661 104.677 99.9828C104.326 100.305 103.77 100.246 103.448 99.895Z" fill="#777777"/>
<path d="M155.066 83.7769C154.745 83.4258 154.803 82.8701 155.154 82.5483C155.505 82.2265 156.061 82.285 156.383 82.6361C156.705 82.9871 156.647 83.5428 156.295 83.8646C155.944 84.1864 155.388 84.1279 155.066 83.7769Z" fill="#777777"/>
<path d="M173.502 15.8267C173.18 15.4756 173.239 14.9199 173.59 14.5981C173.941 14.2763 174.497 14.3348 174.819 14.6859C175.141 15.0369 175.082 15.5926 174.731 15.9144C174.38 16.2362 173.824 16.1777 173.502 15.8267Z" fill="#777777"/>
<path d="M203.203 42.5034C202.881 42.1524 202.94 41.5966 203.291 41.2749C203.642 40.9531 204.198 41.0116 204.52 41.3626C204.842 41.7136 204.783 42.2694 204.432 42.5912C204.081 42.9129 203.525 42.8544 203.203 42.5034Z" fill="#777777"/>
<path d="M226.057 32.7339C225.735 32.3829 225.794 31.8271 226.145 31.5053C226.496 31.1836 227.052 31.2421 227.374 31.5931C227.696 31.9441 227.637 32.4999 227.286 32.8216C226.935 33.1434 226.379 33.0849 226.057 32.7339Z" fill="#777777"/>
<path d="M27.2193 296.551C26.8974 296.2 26.9559 295.644 27.3071 295.323C27.6582 295.001 28.2142 295.059 28.5361 295.41C28.858 295.761 28.7994 296.317 28.4483 296.639C28.0971 296.961 27.5412 296.902 27.2193 296.551Z" fill="#777777"/>
<path d="M16.1871 426.251C15.8652 425.9 15.9237 425.345 16.2748 425.023C16.626 424.701 17.182 424.76 17.5038 425.111C17.8257 425.462 17.7672 426.017 17.4161 426.339C17.0649 426.661 16.5089 426.602 16.1871 426.251Z" fill="#777777"/>
<path d="M65.7579 468.169C65.436 467.818 65.4945 467.263 65.8456 466.941C66.1968 466.619 66.7528 466.678 67.0747 467.029C67.3965 467.38 67.338 467.935 66.9869 468.257C66.6357 468.579 66.0797 468.52 65.7579 468.169Z" fill="#777777"/>
<path d="M61.7779 473.932C61.456 473.581 61.5145 473.025 61.8657 472.704C62.2168 472.382 62.7728 472.44 63.0947 472.791C63.4166 473.142 63.358 473.698 63.0069 474.02C62.6557 474.342 62.0998 474.283 61.7779 473.932Z" fill="#777777"/>
<path d="M20.2256 493.238C19.9037 492.887 19.9623 492.331 20.3134 492.009C20.6646 491.687 21.2205 491.746 21.5424 492.097C21.8643 492.448 21.8058 493.004 21.4546 493.326C21.1035 493.647 20.5475 493.589 20.2256 493.238Z" fill="#777777"/>
<path d="M21.5713 499.702C21.2494 499.351 21.308 498.795 21.6591 498.473C22.0103 498.151 22.5662 498.21 22.8881 498.561C23.21 498.912 23.1515 499.468 22.8003 499.789C22.4492 500.111 21.8932 500.053 21.5713 499.702Z" fill="#777777"/>
<path d="M28.2725 487.475C27.9506 487.124 28.0091 486.568 28.3603 486.247C28.7114 485.925 29.2674 485.983 29.5893 486.334C29.9112 486.685 29.8527 487.241 29.5015 487.563C29.1504 487.885 28.5944 487.826 28.2725 487.475Z" fill="#777777"/>
<path d="M241.098 319.953C240.776 319.602 240.835 319.046 241.186 318.724C241.537 318.402 242.093 318.461 242.415 318.812C242.737 319.163 242.678 319.719 242.327 320.04C241.976 320.362 241.42 320.304 241.098 319.953Z" fill="#777777"/>
<path d="M234.543 344.962C234.222 344.611 234.28 344.056 234.631 343.734C234.982 343.412 235.538 343.471 235.86 343.822C236.182 344.173 236.124 344.728 235.773 345.05C235.421 345.372 234.865 345.313 234.543 344.962Z" fill="#777777"/>
<path d="M205.515 392.671C205.193 392.32 205.252 391.765 205.603 391.443C205.954 391.121 206.51 391.18 206.832 391.531C207.154 391.882 207.095 392.437 206.744 392.759C206.393 393.081 205.837 393.022 205.515 392.671Z" fill="#777777"/>
<path d="M196.034 333.409C195.712 333.058 195.771 332.502 196.122 332.18C196.473 331.858 197.029 331.917 197.351 332.268C197.673 332.619 197.614 333.175 197.263 333.496C196.912 333.818 196.356 333.76 196.034 333.409Z" fill="#777777"/>
<path d="M218.391 314.863C218.069 314.512 218.127 313.956 218.478 313.634C218.83 313.312 219.386 313.371 219.708 313.722C220.029 314.073 219.971 314.629 219.62 314.951C219.269 315.272 218.713 315.214 218.391 314.863Z" fill="#777777"/>
<path d="M369.56 250.481C369.238 250.13 369.297 249.574 369.648 249.252C369.999 248.931 370.555 248.989 370.877 249.34C371.199 249.691 371.14 250.247 370.789 250.569C370.438 250.89 369.882 250.832 369.56 250.481Z" fill="#777777"/>
<path d="M336.903 252.353C336.581 252.002 336.64 251.446 336.991 251.124C337.342 250.803 337.898 250.861 338.22 251.212C338.542 251.563 338.484 252.119 338.132 252.441C337.781 252.763 337.225 252.704 336.903 252.353Z" fill="#777777"/>
<path d="M190.24 226.992C189.918 226.641 189.976 226.085 190.328 225.763C190.679 225.441 191.235 225.5 191.557 225.851C191.878 226.202 191.82 226.758 191.469 227.079C191.118 227.401 190.562 227.343 190.24 226.992Z" fill="#777777"/>
<path d="M102.306 174.661C101.984 174.31 102.043 173.754 102.394 173.432C102.745 173.11 103.301 173.169 103.623 173.52C103.945 173.871 103.886 174.427 103.535 174.748C103.184 175.07 102.628 175.012 102.306 174.661Z" fill="#777777"/>
<path d="M144.24 195.839C143.918 195.488 143.976 194.933 144.328 194.611C144.679 194.289 145.235 194.348 145.557 194.699C145.878 195.05 145.82 195.605 145.469 195.927C145.118 196.249 144.562 196.19 144.24 195.839Z" fill="#777777"/>
<path d="M66.1968 93.606C65.8749 93.2549 65.9335 92.6992 66.2846 92.3774C66.6357 92.0556 67.1917 92.1141 67.5136 92.4652C67.8355 92.8162 67.777 93.3719 67.4258 93.6937C67.0747 94.0155 66.5187 93.957 66.1968 93.606Z" fill="#777777"/>
<path d="M175.082 329.137C174.76 328.786 174.819 328.23 175.17 327.909C175.521 327.587 176.077 327.645 176.399 327.996C176.721 328.347 176.662 328.903 176.311 329.225C175.96 329.547 175.404 329.488 175.082 329.137Z" fill="#777777"/>
<path d="M106.228 193.177C105.906 192.826 105.964 192.27 106.315 191.949C106.667 191.627 107.223 191.685 107.544 192.036C107.866 192.387 107.808 192.943 107.457 193.265C107.105 193.587 106.549 193.528 106.228 193.177Z" fill="#777777"/>
<path d="M323.589 294.942C323.267 294.591 323.326 294.035 323.677 293.713C324.028 293.392 324.584 293.45 324.906 293.801C325.228 294.152 325.169 294.708 324.818 295.03C324.467 295.351 323.911 295.293 323.589 294.942Z" fill="#777777"/>
<path d="M300.969 228.484C300.647 228.133 300.706 227.577 301.057 227.255C301.408 226.934 301.964 226.992 302.286 227.343C302.608 227.694 302.549 228.25 302.198 228.572C301.847 228.893 301.291 228.835 300.969 228.484Z" fill="#777777"/>
<path d="M302.637 234.889C302.315 234.538 302.373 233.982 302.725 233.661C303.076 233.339 303.632 233.397 303.954 233.748C304.275 234.099 304.217 234.655 303.866 234.977C303.515 235.299 302.959 235.24 302.637 234.889Z" fill="#777777"/>
<path d="M223.248 198.911C222.926 198.56 222.985 198.004 223.336 197.682C223.687 197.36 224.243 197.419 224.565 197.77C224.887 198.121 224.828 198.677 224.477 198.998C224.126 199.32 223.57 199.262 223.248 198.911Z" fill="#777777"/>
<path d="M212.801 144.386C212.479 144.035 212.538 143.479 212.889 143.158C213.24 142.836 213.796 142.894 214.118 143.245C214.44 143.596 214.381 144.152 214.03 144.474C213.679 144.796 213.123 144.737 212.801 144.386Z" fill="#777777"/>
<path d="M136.69 119.23C136.368 118.879 136.427 118.323 136.778 118.001C137.129 117.68 137.685 117.738 138.007 118.089C138.329 118.44 138.27 118.996 137.919 119.318C137.568 119.639 137.012 119.581 136.69 119.23Z" fill="#777777"/>
<path d="M154.92 252.909C154.599 252.558 154.657 252.002 155.008 251.68C155.359 251.358 155.915 251.417 156.237 251.768C156.559 252.119 156.501 252.675 156.149 252.996C155.798 253.318 155.242 253.26 154.92 252.909Z" fill="#777777"/>
<path d="M212.187 257.471C211.865 257.12 211.924 256.564 212.275 256.243C212.626 255.921 213.182 255.979 213.504 256.33C213.826 256.681 213.767 257.237 213.416 257.559C213.065 257.881 212.509 257.822 212.187 257.471Z" fill="#777777"/>
<path d="M35.2369 404.957C34.915 404.606 34.9735 404.05 35.3246 403.728C35.6758 403.406 36.2318 403.465 36.5537 403.816C36.8756 404.167 36.817 404.723 36.4659 405.044C36.1147 405.366 35.5587 405.308 35.2369 404.957Z" fill="#777777"/>
<path d="M91.1865 350.783C90.8647 350.432 90.9232 349.876 91.2744 349.554C91.6255 349.232 92.1815 349.291 92.5034 349.642C92.8253 349.993 92.7668 350.549 92.4156 350.87C92.0645 351.192 91.5084 351.134 91.1865 350.783Z" fill="#777777"/>
<path d="M123.288 354.001C122.966 353.65 123.024 353.095 123.375 352.773C123.727 352.451 124.283 352.51 124.604 352.861C124.926 353.212 124.868 353.767 124.517 354.089C124.166 354.411 123.61 354.352 123.288 354.001Z" fill="#777777"/>
<path d="M90.1919 220.118C89.87 219.767 89.9286 219.211 90.2797 218.889C90.6309 218.567 91.1868 218.626 91.5087 218.977C91.8306 219.328 91.7721 219.884 91.4209 220.205C91.0698 220.527 90.5138 220.469 90.1919 220.118Z" fill="#777777"/>
<path d="M159.866 255.103C159.544 254.752 159.602 254.196 159.954 253.874C160.305 253.553 160.861 253.611 161.183 253.962C161.504 254.313 161.446 254.869 161.095 255.191C160.744 255.513 160.188 255.454 159.866 255.103Z" fill="#777777"/>
<path d="M141.928 162.756C141.606 162.405 141.664 161.85 142.016 161.528C142.367 161.206 142.923 161.265 143.245 161.616C143.566 161.967 143.508 162.522 143.157 162.844C142.806 163.166 142.25 163.107 141.928 162.756Z" fill="#777777"/>
<path d="M237.616 241.266C237.294 240.915 237.352 240.359 237.704 240.038C238.055 239.716 238.611 239.774 238.933 240.125C239.254 240.476 239.196 241.032 238.845 241.354C238.494 241.676 237.938 241.617 237.616 241.266Z" fill="#777777"/>
<path d="M242.21 241.53C241.888 241.179 241.947 240.623 242.298 240.301C242.649 239.979 243.205 240.038 243.527 240.389C243.849 240.74 243.79 241.296 243.439 241.618C243.088 241.939 242.532 241.881 242.21 241.53Z" fill="#777777"/>
<path d="M269.19 237.844C268.868 237.493 268.927 236.937 269.278 236.616C269.629 236.294 270.185 236.352 270.507 236.703C270.829 237.054 270.77 237.61 270.419 237.932C270.068 238.254 269.512 238.195 269.19 237.844Z" fill="#777777"/>
<path d="M254.588 199.086C254.266 198.735 254.325 198.18 254.676 197.858C255.027 197.536 255.583 197.595 255.905 197.946C256.227 198.297 256.168 198.852 255.817 199.174C255.466 199.496 254.91 199.437 254.588 199.086Z" fill="#777777"/>
<path d="M252.833 259.812C252.511 259.461 252.569 258.905 252.92 258.583C253.271 258.262 253.827 258.32 254.149 258.671C254.471 259.022 254.413 259.578 254.062 259.9C253.71 260.222 253.154 260.163 252.833 259.812Z" fill="#777777"/>
<path d="M291.459 203.503C291.137 203.152 291.195 202.597 291.546 202.275C291.897 201.953 292.453 202.012 292.775 202.363C293.097 202.714 293.039 203.269 292.688 203.591C292.336 203.913 291.78 203.854 291.459 203.503Z" fill="#777777"/>
<path d="M342.522 207.919C342.2 207.568 342.258 207.013 342.609 206.691C342.96 206.369 343.516 206.428 343.838 206.779C344.16 207.13 344.102 207.685 343.751 208.007C343.399 208.329 342.843 208.27 342.522 207.919Z" fill="#777777"/>
<path d="M387.41 218.773C387.088 218.422 387.147 217.866 387.498 217.544C387.849 217.223 388.405 217.281 388.727 217.632C389.049 217.983 388.99 218.539 388.639 218.861C388.288 219.182 387.732 219.124 387.41 218.773Z" fill="#777777"/>
<path d="M395.223 217.924C394.902 217.573 394.96 217.018 395.311 216.696C395.662 216.374 396.218 216.432 396.54 216.784C396.862 217.135 396.804 217.69 396.452 218.012C396.101 218.334 395.545 218.275 395.223 217.924Z" fill="#777777"/>
<path d="M328.827 234.071C328.505 233.72 328.563 233.164 328.914 232.842C329.266 232.52 329.822 232.579 330.143 232.93C330.465 233.281 330.407 233.837 330.056 234.159C329.705 234.48 329.149 234.422 328.827 234.071Z" fill="#777777"/>
<path d="M158.753 191.715C158.432 191.364 158.49 190.809 158.841 190.487C159.192 190.165 159.748 190.224 160.07 190.575C160.392 190.926 160.334 191.481 159.982 191.803C159.631 192.125 159.075 192.066 158.753 191.715Z" fill="#777777"/>
<path d="M73.7466 150.88C73.4247 150.529 73.4833 149.974 73.8344 149.652C74.1856 149.33 74.7415 149.389 75.0634 149.74C75.3853 150.091 75.3268 150.646 74.9756 150.968C74.6245 151.29 74.0685 151.231 73.7466 150.88Z" fill="#777777"/>
<path d="M22.9468 162.113C22.6249 161.762 22.6835 161.206 23.0346 160.884C23.3857 160.562 23.9417 160.621 24.2636 160.972C24.5855 161.323 24.527 161.879 24.1758 162.201C23.8247 162.522 23.2687 162.464 22.9468 162.113Z" fill="#777777"/>
<path d="M16.1871 87.9311C15.8652 87.5801 15.9237 87.0244 16.2748 86.7026C16.626 86.3808 17.182 86.4393 17.5038 86.7903C17.8257 87.1414 17.7672 87.6971 17.4161 88.0189C17.0649 88.3407 16.5089 88.2822 16.1871 87.9311Z" fill="#777777"/>
<path d="M35.9102 33.6704C35.5883 33.3194 35.6468 32.7636 35.998 32.4419C36.3491 32.1201 36.9051 32.1786 37.227 32.5296C37.5489 32.8806 37.4904 33.4364 37.1392 33.7582C36.7881 34.0799 36.2321 34.0214 35.9102 33.6704Z" fill="#777777"/>
<path d="M93.8789 90.8852C93.5571 90.5342 93.6156 89.9785 93.9667 89.6567C94.3179 89.3349 94.8739 89.3934 95.1957 89.7444C95.5176 90.0955 95.4591 90.6512 95.108 90.973C94.7568 91.2948 94.2008 91.2363 93.8789 90.8852Z" fill="#777777"/>
<path d="M85.2466 68.187C84.9247 67.836 84.9833 67.2802 85.3344 66.9585C85.6856 66.6367 86.2416 66.6952 86.5635 67.0462C86.8854 67.3972 86.8268 67.953 86.4756 68.2748C86.1245 68.5965 85.5685 68.538 85.2466 68.187Z" fill="#777777"/>
<path d="M12.0025 124.291C11.6806 123.94 11.7391 123.384 12.0903 123.062C12.4414 122.74 12.9974 122.799 13.3193 123.15C13.6412 123.501 13.5826 124.057 13.2315 124.378C12.8803 124.7 12.3244 124.642 12.0025 124.291Z" fill="#777777"/>
</g>
</g>
</svg>
