<svg width="1005" height="639" viewBox="0 0 1005 639" fill="none" xmlns="http://www.w3.org/2000/svg">
<g style="mix-blend-mode:plus-lighter" opacity="0.8">
<g style="mix-blend-mode:color-dodge">
<path d="M812.917 180.18C811.645 180.217 810.561 179.245 810.524 177.975C810.486 176.704 811.458 175.619 812.73 175.582C814.001 175.545 815.086 176.517 815.123 177.788C815.161 179.059 814.188 180.143 812.917 180.18Z" fill="#777777"/>
<path d="M387.578 243.43C386.306 243.467 385.222 242.495 385.184 241.225C385.147 239.954 386.119 238.869 387.391 238.832C388.662 238.795 389.747 239.767 389.784 241.038C389.821 242.309 388.849 243.393 387.578 243.43Z" fill="#777777"/>
<path d="M878.359 326.977C877.088 327.014 876.004 326.042 875.966 324.771C875.929 323.5 876.901 322.416 878.172 322.379C879.444 322.342 880.528 323.314 880.566 324.584C880.603 325.855 879.631 326.94 878.359 326.977Z" fill="#777777"/>
<path d="M869.272 217.263C868.001 217.3 866.916 216.328 866.879 215.058C866.842 213.787 867.814 212.702 869.085 212.665C870.357 212.628 871.441 213.6 871.479 214.871C871.516 216.142 870.544 217.226 869.272 217.263Z" fill="#777777"/>
<path d="M167.953 336.734C166.681 336.771 165.597 335.799 165.559 334.528C165.522 333.257 166.494 332.173 167.766 332.136C169.037 332.098 170.122 333.07 170.159 334.341C170.196 335.612 169.224 336.696 167.953 336.734Z" fill="#777777"/>
<path d="M169.112 164.517C167.84 164.554 166.756 163.582 166.719 162.311C166.681 161.04 167.653 159.956 168.925 159.919C170.196 159.882 171.281 160.854 171.318 162.125C171.356 163.395 170.383 164.48 169.112 164.517Z" fill="#777777"/>
<path d="M880.64 402.9C879.369 402.937 878.285 401.965 878.247 400.694C878.21 399.423 879.182 398.339 880.453 398.302C881.725 398.264 882.809 399.236 882.847 400.507C882.884 401.778 881.912 402.862 880.64 402.9Z" fill="#777777"/>
<path d="M432.116 112.408C430.845 112.445 429.76 111.473 429.723 110.202C429.685 108.931 430.658 107.847 431.929 107.81C433.201 107.772 434.285 108.744 434.322 110.015C434.36 111.286 433.388 112.37 432.116 112.408Z" fill="#777777"/>
<path d="M480.357 407.16C479.085 407.198 478.001 406.226 477.963 404.955C477.926 403.684 478.898 402.6 480.17 402.563C481.441 402.525 482.525 403.497 482.563 404.768C482.6 406.039 481.628 407.123 480.357 407.16Z" fill="#777777"/>
<path d="M277.298 473.364C276.026 473.401 274.942 472.429 274.905 471.158C274.867 469.887 275.839 468.803 277.111 468.766C278.382 468.728 279.467 469.7 279.504 470.971C279.542 472.242 278.569 473.326 277.298 473.364Z" fill="#777777"/>
<path d="M834.008 8.8978C832.737 8.93518 831.652 7.96326 831.615 6.69229C831.577 5.42132 832.55 4.33725 833.821 4.29987C835.093 4.26249 836.177 5.23441 836.214 6.50538C836.252 7.77635 835.28 8.86042 834.008 8.8978Z" fill="#777777"/>
<path d="M822.49 124.071C821.219 124.108 820.134 123.136 820.097 121.865C820.059 120.594 821.032 119.51 822.303 119.473C823.575 119.435 824.659 120.407 824.696 121.678C824.734 122.949 823.762 124.033 822.49 124.071Z" fill="#777777"/>
<path d="M500.55 182.124C499.279 182.162 498.194 181.19 498.157 179.919C498.12 178.648 499.092 177.564 500.363 177.526C501.635 177.489 502.719 178.461 502.757 179.732C502.794 181.003 501.822 182.087 500.55 182.124Z" fill="#777777"/>
<path d="M812.206 241.373C810.935 241.411 809.85 240.439 809.813 239.168C809.776 237.897 810.748 236.813 812.019 236.775C813.291 236.738 814.375 237.71 814.413 238.981C814.45 240.252 813.478 241.336 812.206 241.373Z" fill="#777777"/>
<path d="M825.37 285.745C824.098 285.783 823.014 284.811 822.976 283.54C822.939 282.269 823.911 281.185 825.183 281.148C826.454 281.11 827.539 282.082 827.576 283.353C827.613 284.624 826.641 285.708 825.37 285.745Z" fill="#777777"/>
<path d="M843.619 353.182C842.347 353.219 841.263 352.247 841.225 350.976C841.188 349.705 842.16 348.621 843.432 348.584C844.703 348.547 845.788 349.519 845.825 350.79C845.862 352.061 844.89 353.145 843.619 353.182Z" fill="#777777"/>
<path d="M748.858 204.478C747.587 204.515 746.502 203.543 746.465 202.272C746.427 201.001 747.4 199.917 748.671 199.88C749.942 199.843 751.027 200.814 751.064 202.085C751.102 203.356 750.129 204.44 748.858 204.478Z" fill="#777777"/>
<path d="M750.017 138.761C748.746 138.798 747.661 137.827 747.624 136.556C747.586 135.285 748.559 134.201 749.83 134.163C751.102 134.126 752.186 135.098 752.224 136.369C752.261 137.64 751.289 138.724 750.017 138.761Z" fill="#777777"/>
<path d="M722.344 167.022C721.073 167.059 719.988 166.087 719.951 164.816C719.914 163.545 720.886 162.461 722.157 162.424C723.429 162.387 724.513 163.358 724.551 164.629C724.588 165.9 723.616 166.984 722.344 167.022Z" fill="#777777"/>
<path d="M783.449 319.987C782.178 320.024 781.093 319.052 781.056 317.781C781.018 316.51 781.991 315.426 783.262 315.389C784.534 315.351 785.618 316.323 785.655 317.594C785.693 318.865 784.721 319.949 783.449 319.987Z" fill="#777777"/>
<path d="M775.409 312.025C774.138 312.062 773.053 311.09 773.016 309.819C772.978 308.548 773.951 307.464 775.222 307.427C776.493 307.389 777.578 308.361 777.615 309.632C777.653 310.903 776.68 311.987 775.409 312.025Z" fill="#777777"/>
<path d="M892.831 271.503C891.56 271.541 890.475 270.569 890.438 269.298C890.401 268.027 891.373 266.943 892.644 266.905C893.916 266.868 895 267.84 895.038 269.111C895.075 270.382 894.103 271.466 892.831 271.503Z" fill="#777777"/>
<path d="M411.548 232.663C410.277 232.701 409.192 231.729 409.155 230.458C409.118 229.187 410.09 228.103 411.361 228.065C412.633 228.028 413.717 229 413.755 230.271C413.792 231.542 412.82 232.626 411.548 232.663Z" fill="#777777"/>
<path d="M310.019 138.649C308.748 138.686 307.663 137.714 307.626 136.443C307.588 135.172 308.561 134.088 309.832 134.051C311.104 134.013 312.188 134.985 312.225 136.256C312.263 137.527 311.291 138.611 310.019 138.649Z" fill="#777777"/>
<path d="M591.048 172.591C589.776 172.629 588.692 171.657 588.655 170.386C588.617 169.115 589.589 168.031 590.861 167.993C592.132 167.956 593.217 168.928 593.254 170.199C593.292 171.47 592.319 172.554 591.048 172.591Z" fill="#777777"/>
<path d="M942.755 330.118C941.483 330.155 940.399 329.183 940.361 327.912C940.324 326.641 941.296 325.557 942.568 325.52C943.839 325.482 944.924 326.454 944.961 327.725C944.998 328.996 944.026 330.08 942.755 330.118Z" fill="#777777"/>
<path d="M858.166 292.736C856.894 292.773 855.81 291.801 855.773 290.53C855.735 289.259 856.707 288.175 857.979 288.138C859.25 288.1 860.335 289.072 860.372 290.343C860.41 291.614 859.437 292.698 858.166 292.736Z" fill="#777777"/>
<path d="M433.5 398.6C432.228 398.637 431.144 397.665 431.107 396.394C431.069 395.123 432.041 394.039 433.313 394.002C434.584 393.965 435.669 394.937 435.706 396.208C435.744 397.478 434.771 398.563 433.5 398.6Z" fill="#777777"/>
<path d="M793.92 426.636C792.648 426.673 791.564 425.702 791.526 424.431C791.489 423.16 792.461 422.076 793.733 422.038C795.004 422.001 796.089 422.973 796.126 424.244C796.163 425.515 795.191 426.599 793.92 426.636Z" fill="#777777"/>
<path d="M630.351 369.629C629.079 369.667 627.995 368.695 627.958 367.424C627.92 366.153 628.892 365.069 630.164 365.031C631.435 364.994 632.52 365.966 632.557 367.237C632.595 368.508 631.622 369.592 630.351 369.629Z" fill="#777777"/>
<path d="M676.16 385.255C674.889 385.293 673.805 384.321 673.767 383.05C673.73 381.779 674.702 380.695 675.973 380.657C677.245 380.62 678.329 381.592 678.367 382.863C678.404 384.134 677.432 385.218 676.16 385.255Z" fill="#777777"/>
<path d="M740.93 249.075C739.659 249.112 738.574 248.14 738.537 246.869C738.499 245.598 739.472 244.514 740.743 244.477C742.014 244.439 743.099 245.411 743.136 246.682C743.174 247.953 742.201 249.037 740.93 249.075Z" fill="#777777"/>
<path d="M634.203 361.331C632.931 361.369 631.847 360.397 631.809 359.126C631.772 357.855 632.744 356.771 634.016 356.733C635.287 356.696 636.372 357.668 636.409 358.939C636.446 360.21 635.474 361.294 634.203 361.331Z" fill="#777777"/>
<path d="M618.459 460.13C617.188 460.168 616.103 459.196 616.066 457.925C616.028 456.654 617.001 455.57 618.272 455.532C619.544 455.495 620.628 456.467 620.665 457.738C620.703 459.009 619.731 460.093 618.459 460.13Z" fill="#777777"/>
<path d="M632.744 493.998C631.473 494.036 630.388 493.064 630.351 491.793C630.314 490.522 631.286 489.438 632.557 489.4C633.829 489.363 634.913 490.335 634.951 491.606C634.988 492.877 634.016 493.961 632.744 493.998Z" fill="#777777"/>
<path d="M588.655 477.139C587.383 477.176 586.299 476.204 586.261 474.933C586.224 473.663 587.196 472.578 588.468 472.541C589.739 472.504 590.824 473.476 590.861 474.747C590.898 476.018 589.926 477.102 588.655 477.139Z" fill="#777777"/>
<path d="M520.034 332.285C518.762 332.323 517.678 331.351 517.64 330.08C517.603 328.809 518.575 327.725 519.847 327.688C521.118 327.65 522.202 328.622 522.24 329.893C522.277 331.164 521.305 332.248 520.034 332.285Z" fill="#777777"/>
<path d="M689.025 493.587C687.753 493.625 686.669 492.653 686.631 491.382C686.594 490.111 687.566 489.027 688.838 488.989C690.109 488.952 691.194 489.924 691.231 491.195C691.268 492.466 690.296 493.55 689.025 493.587Z" fill="#777777"/>
<path d="M560.496 353.929C559.224 353.966 558.14 352.995 558.102 351.724C558.065 350.453 559.037 349.369 560.309 349.331C561.58 349.294 562.665 350.266 562.702 351.537C562.739 352.808 561.767 353.892 560.496 353.929Z" fill="#777777"/>
<path d="M834.008 506.707C832.737 506.745 831.652 505.773 831.615 504.502C831.577 503.231 832.55 502.147 833.821 502.109C835.093 502.072 836.177 503.044 836.214 504.315C836.252 505.586 835.28 506.67 834.008 506.707Z" fill="#777777"/>
<path d="M326.623 398.189C325.351 398.226 324.267 397.254 324.23 395.983C324.192 394.712 325.164 393.628 326.436 393.591C327.707 393.554 328.792 394.525 328.829 395.796C328.867 397.067 327.894 398.151 326.623 398.189Z" fill="#777777"/>
<path d="M440.53 360.733C439.259 360.77 438.174 359.798 438.137 358.527C438.099 357.256 439.072 356.172 440.343 356.135C441.615 356.097 442.699 357.069 442.736 358.34C442.774 359.611 441.802 360.695 440.53 360.733Z" fill="#777777"/>
<path d="M526.653 529.959C525.381 529.997 524.297 529.025 524.259 527.754C524.222 526.483 525.194 525.399 526.466 525.361C527.737 525.324 528.822 526.296 528.859 527.567C528.896 528.838 527.924 529.922 526.653 529.959Z" fill="#777777"/>
<path d="M427.18 475.569C425.909 475.606 424.824 474.634 424.787 473.363C424.749 472.092 425.722 471.008 426.993 470.971C428.265 470.933 429.349 471.905 429.386 473.176C429.424 474.447 428.451 475.531 427.18 475.569Z" fill="#777777"/>
<path d="M491.426 358.902C490.154 358.939 489.07 357.967 489.033 356.696C488.995 355.425 489.967 354.341 491.239 354.304C492.51 354.266 493.595 355.238 493.632 356.509C493.67 357.78 492.697 358.864 491.426 358.902Z" fill="#777777"/>
<path d="M473.214 242.457C471.942 242.495 470.858 241.523 470.821 240.252C470.783 238.981 471.756 237.897 473.027 237.859C474.298 237.822 475.383 238.794 475.42 240.065C475.458 241.336 474.485 242.42 473.214 242.457Z" fill="#777777"/>
<path d="M586.074 242.234C584.803 242.271 583.718 241.299 583.681 240.028C583.644 238.757 584.616 237.673 585.887 237.636C587.159 237.598 588.243 238.57 588.281 239.841C588.318 241.112 587.346 242.196 586.074 242.234Z" fill="#777777"/>
<path d="M663.072 218.534C661.801 218.571 660.716 217.599 660.679 216.328C660.641 215.057 661.614 213.973 662.885 213.936C664.157 213.898 665.241 214.87 665.278 216.141C665.316 217.412 664.344 218.496 663.072 218.534Z" fill="#777777"/>
<path d="M689.511 280.737C688.24 280.774 687.155 279.802 687.118 278.531C687.08 277.26 688.053 276.176 689.324 276.139C690.596 276.101 691.68 277.073 691.717 278.344C691.755 279.615 690.783 280.699 689.511 280.737Z" fill="#777777"/>
<path d="M537.011 178.984C535.74 179.021 534.655 178.049 534.618 176.778C534.58 175.507 535.553 174.423 536.824 174.386C538.096 174.348 539.18 175.32 539.217 176.591C539.255 177.862 538.283 178.946 537.011 178.984Z" fill="#777777"/>
<path d="M282.72 237.673C281.449 237.711 280.364 236.739 280.327 235.468C280.29 234.197 281.262 233.113 282.533 233.075C283.805 233.038 284.889 234.01 284.927 235.281C284.964 236.552 283.992 237.636 282.72 237.673Z" fill="#777777"/>
<path d="M464.239 146.312C462.968 146.349 461.883 145.377 461.846 144.106C461.808 142.835 462.781 141.751 464.052 141.714C465.324 141.677 466.408 142.648 466.445 143.919C466.483 145.19 465.511 146.274 464.239 146.312Z" fill="#777777"/>
<path d="M418.803 181.451C417.532 181.488 416.447 180.516 416.41 179.245C416.373 177.974 417.345 176.89 418.616 176.853C419.888 176.815 420.972 177.787 421.01 179.058C421.047 180.329 420.075 181.413 418.803 181.451Z" fill="#777777"/>
<path d="M378.491 308.548C377.219 308.586 376.135 307.614 376.097 306.343C376.06 305.072 377.032 303.988 378.304 303.95C379.575 303.913 380.66 304.885 380.697 306.156C380.734 307.427 379.762 308.511 378.491 308.548Z" fill="#777777"/>
<path d="M812.917 367.349C811.645 367.386 810.561 366.414 810.524 365.143C810.486 363.872 811.458 362.788 812.73 362.751C814.001 362.714 815.086 363.686 815.123 364.957C815.161 366.228 814.188 367.312 812.917 367.349Z" fill="#777777"/>
<path d="M618.048 214.459C616.776 214.497 615.692 213.525 615.654 212.254C615.617 210.983 616.589 209.899 617.861 209.861C619.132 209.824 620.217 210.796 620.254 212.067C620.291 213.338 619.319 214.422 618.048 214.459Z" fill="#777777"/>
<path d="M533.571 226.346C532.299 226.383 531.215 225.412 531.177 224.141C531.14 222.87 532.112 221.785 533.384 221.748C534.655 221.711 535.74 222.683 535.777 223.954C535.814 225.225 534.842 226.309 533.571 226.346Z" fill="#777777"/>
<path d="M736.256 269.223C734.984 269.26 733.9 268.288 733.862 267.017C733.825 265.747 734.797 264.662 736.069 264.625C737.34 264.588 738.425 265.56 738.462 266.831C738.499 268.102 737.527 269.186 736.256 269.223Z" fill="#777777"/>
<path d="M606.156 224.515C604.884 224.552 603.8 223.58 603.763 222.309C603.725 221.039 604.697 219.954 605.969 219.917C607.24 219.88 608.325 220.852 608.362 222.123C608.4 223.394 607.427 224.478 606.156 224.515Z" fill="#777777"/>
<path d="M614.794 200.889C613.523 200.926 612.438 199.954 612.401 198.684C612.364 197.413 613.336 196.328 614.607 196.291C615.879 196.254 616.963 197.226 617.001 198.497C617.038 199.768 616.066 200.852 614.794 200.889Z" fill="#777777"/>
<path d="M567.152 182.348C565.881 182.385 564.796 181.413 564.759 180.142C564.721 178.872 565.694 177.787 566.965 177.75C568.237 177.713 569.321 178.685 569.359 179.956C569.396 181.227 568.424 182.311 567.152 182.348Z" fill="#777777"/>
<path d="M645.87 92.5208C644.599 92.5582 643.514 91.5863 643.477 90.3153C643.439 89.0444 644.412 87.9603 645.683 87.9229C646.955 87.8855 648.039 88.8575 648.077 90.1284C648.114 91.3994 647.142 92.4835 645.87 92.5208Z" fill="#777777"/>
<path d="M688.875 79.2874C687.604 79.3248 686.519 78.3529 686.482 77.0819C686.445 75.811 687.417 74.7269 688.688 74.6895C689.96 74.6521 691.044 75.6241 691.082 76.895C691.119 78.166 690.147 79.2501 688.875 79.2874Z" fill="#777777"/>
<path d="M617.562 144.78C616.29 144.817 615.206 143.845 615.168 142.574C615.131 141.303 616.103 140.219 617.375 140.182C618.646 140.144 619.731 141.116 619.768 142.387C619.805 143.658 618.833 144.742 617.562 144.78Z" fill="#777777"/>
<path d="M665.129 415.235C663.858 415.272 662.773 414.3 662.736 413.029C662.698 411.758 663.671 410.674 664.942 410.637C666.213 410.599 667.298 411.571 667.335 412.842C667.373 414.113 666.4 415.197 665.129 415.235Z" fill="#777777"/>
<path d="M712.285 443.645C711.014 443.682 709.929 442.71 709.892 441.439C709.854 440.168 710.827 439.084 712.098 439.047C713.369 439.01 714.454 439.981 714.491 441.252C714.529 442.523 713.556 443.608 712.285 443.645Z" fill="#777777"/>
<path d="M749.83 518.259C748.559 518.296 747.474 517.325 747.437 516.054C747.4 514.783 748.372 513.699 749.643 513.661C750.915 513.624 751.999 514.596 752.037 515.867C752.074 517.138 751.102 518.222 749.83 518.259Z" fill="#777777"/>
<path d="M536.039 414.749C534.767 414.787 533.683 413.815 533.646 412.544C533.608 411.273 534.58 410.189 535.852 410.151C537.123 410.114 538.208 411.086 538.245 412.357C538.283 413.628 537.31 414.712 536.039 414.749Z" fill="#777777"/>
<path d="M720.774 312.884C719.502 312.921 718.418 311.95 718.38 310.679C718.343 309.408 719.315 308.324 720.587 308.286C721.858 308.249 722.943 309.221 722.98 310.492C723.017 311.763 722.045 312.847 720.774 312.884Z" fill="#777777"/>
<path d="M689.511 339.949C688.24 339.986 687.155 339.014 687.118 337.743C687.08 336.472 688.053 335.388 689.324 335.351C690.596 335.313 691.68 336.285 691.717 337.556C691.755 338.827 690.783 339.911 689.511 339.949Z" fill="#777777"/>
<path d="M712.659 361.331C711.388 361.369 710.303 360.397 710.266 359.126C710.228 357.855 711.201 356.771 712.472 356.733C713.744 356.696 714.828 357.668 714.865 358.939C714.903 360.21 713.931 361.294 712.659 361.331Z" fill="#777777"/>
<path d="M764.003 400.058C762.732 400.095 761.647 399.123 761.61 397.852C761.573 396.581 762.545 395.497 763.816 395.46C765.088 395.423 766.172 396.395 766.21 397.666C766.247 398.936 765.275 400.021 764.003 400.058Z" fill="#777777"/>
<path d="M971.325 100.744C970.054 100.782 968.969 99.8099 968.932 98.539C968.895 97.268 969.867 96.1839 971.138 96.1466C972.41 96.1092 973.494 97.0811 973.532 98.3521C973.569 99.623 972.597 100.707 971.325 100.744Z" fill="#777777"/>
<path d="M917.288 184.703C916.017 184.741 914.932 183.769 914.895 182.498C914.858 181.227 915.83 180.143 917.101 180.106C918.373 180.068 919.457 181.04 919.495 182.311C919.532 183.582 918.56 184.666 917.288 184.703Z" fill="#777777"/>
<path d="M413.792 53.1576C412.521 53.1949 411.436 52.223 411.399 50.9521C411.362 49.6811 412.334 48.597 413.605 48.5596C414.877 48.5223 415.961 49.4942 415.999 50.7651C416.036 52.0361 415.064 53.1202 413.792 53.1576Z" fill="#777777"/>
<path d="M212.79 55.0638C211.519 55.1012 210.434 54.1293 210.397 52.8583C210.359 51.5873 211.332 50.5033 212.603 50.4659C213.875 50.4285 214.959 51.4004 214.996 52.6714C215.034 53.9424 214.062 55.0264 212.79 55.0638Z" fill="#777777"/>
<path d="M240.126 209.899C239.715 209.45 239.79 208.74 240.239 208.329C240.687 207.918 241.398 207.992 241.809 208.441C242.221 208.889 242.146 209.6 241.697 210.011C241.248 210.422 240.538 210.347 240.126 209.899Z" fill="#777777"/>
<path d="M261.068 283.69C260.657 283.241 260.732 282.531 261.18 282.12C261.629 281.709 262.34 281.783 262.751 282.232C263.162 282.68 263.087 283.391 262.639 283.802C262.19 284.213 261.479 284.138 261.068 283.69Z" fill="#777777"/>
<path d="M276.101 220.104C275.69 219.655 275.764 218.945 276.213 218.534C276.662 218.123 277.372 218.197 277.784 218.646C278.195 219.095 278.12 219.805 277.672 220.216C277.223 220.627 276.512 220.552 276.101 220.104Z" fill="#777777"/>
<path d="M242.707 297.409C242.295 296.961 242.37 296.251 242.819 295.839C243.268 295.428 243.978 295.503 244.39 295.952C244.801 296.4 244.726 297.11 244.277 297.522C243.829 297.933 243.118 297.858 242.707 297.409Z" fill="#777777"/>
<path d="M220.83 242.682C220.419 242.233 220.494 241.523 220.942 241.112C221.391 240.701 222.102 240.775 222.513 241.224C222.924 241.673 222.85 242.383 222.401 242.794C221.952 243.205 221.242 243.131 220.83 242.682Z" fill="#777777"/>
<path d="M84.9717 246.346C84.5603 245.897 84.6351 245.187 85.0838 244.776C85.5326 244.365 86.2431 244.44 86.6545 244.888C87.0658 245.337 86.991 246.047 86.5423 246.458C86.0935 246.869 85.383 246.795 84.9717 246.346Z" fill="#777777"/>
<path d="M215.931 321.669C215.52 321.221 215.595 320.51 216.044 320.099C216.492 319.688 217.203 319.763 217.614 320.211C218.026 320.66 217.951 321.37 217.502 321.781C217.053 322.193 216.343 322.118 215.931 321.669Z" fill="#777777"/>
<path d="M254.449 403.423C254.038 402.975 254.112 402.264 254.561 401.853C255.01 401.442 255.72 401.517 256.132 401.965C256.543 402.414 256.468 403.124 256.02 403.535C255.571 403.946 254.86 403.872 254.449 403.423Z" fill="#777777"/>
<path d="M205.685 351.725C205.274 351.276 205.348 350.566 205.797 350.155C206.246 349.744 206.956 349.818 207.368 350.267C207.779 350.716 207.704 351.426 207.256 351.837C206.807 352.248 206.096 352.173 205.685 351.725Z" fill="#777777"/>
<path d="M176.703 334.567C176.292 334.118 176.367 333.408 176.816 332.997C177.264 332.586 177.975 332.66 178.386 333.109C178.798 333.557 178.723 334.268 178.274 334.679C177.825 335.09 177.115 335.015 176.703 334.567Z" fill="#777777"/>
<path d="M278.158 326.454C277.747 326.006 277.821 325.296 278.27 324.884C278.719 324.473 279.429 324.548 279.841 324.997C280.252 325.445 280.177 326.155 279.729 326.567C279.28 326.978 278.569 326.903 278.158 326.454Z" fill="#777777"/>
<path d="M478.898 330.641C478.487 330.192 478.562 329.482 479.01 329.071C479.459 328.66 480.17 328.734 480.581 329.183C480.992 329.632 480.918 330.342 480.469 330.753C480.02 331.164 479.31 331.09 478.898 330.641Z" fill="#777777"/>
<path d="M773.24 282.718C772.829 282.27 772.903 281.559 773.352 281.148C773.801 280.737 774.511 280.812 774.923 281.26C775.334 281.709 775.259 282.419 774.811 282.83C774.362 283.241 773.651 283.167 773.24 282.718Z" fill="#777777"/>
<path d="M787.263 266.756C786.852 266.308 786.927 265.597 787.376 265.186C787.824 264.775 788.535 264.85 788.946 265.298C789.358 265.747 789.283 266.457 788.834 266.868C788.385 267.28 787.675 267.205 787.263 266.756Z" fill="#777777"/>
<path d="M845.301 151.808C844.89 151.359 844.965 150.649 845.414 150.238C845.862 149.827 846.573 149.901 846.984 150.35C847.396 150.799 847.321 151.509 846.872 151.92C846.423 152.331 845.713 152.257 845.301 151.808Z" fill="#777777"/>
<path d="M788.198 219.169C787.787 218.721 787.862 218.01 788.31 217.599C788.759 217.188 789.47 217.263 789.881 217.711C790.292 218.16 790.218 218.87 789.769 219.281C789.32 219.693 788.61 219.618 788.198 219.169Z" fill="#777777"/>
<path d="M722.531 213.749C722.12 213.301 722.195 212.591 722.644 212.179C723.092 211.768 723.803 211.843 724.214 212.291C724.626 212.74 724.551 213.45 724.102 213.861C723.653 214.273 722.943 214.198 722.531 213.749Z" fill="#777777"/>
<path d="M770.847 271.354C770.435 270.905 770.51 270.195 770.959 269.784C771.408 269.373 772.118 269.447 772.529 269.896C772.941 270.345 772.866 271.055 772.417 271.466C771.969 271.877 771.258 271.802 770.847 271.354Z" fill="#777777"/>
<path d="M858.091 215.693C857.679 215.244 857.754 214.534 858.203 214.123C858.652 213.711 859.362 213.786 859.774 214.235C860.185 214.683 860.11 215.394 859.661 215.805C859.213 216.216 858.502 216.141 858.091 215.693Z" fill="#777777"/>
<path d="M890.476 250.608C890.064 250.159 890.139 249.449 890.588 249.038C891.036 248.627 891.747 248.701 892.158 249.15C892.57 249.598 892.495 250.309 892.046 250.72C891.597 251.131 890.887 251.056 890.476 250.608Z" fill="#777777"/>
<path d="M900.086 269.634C899.675 269.186 899.75 268.475 900.198 268.064C900.647 267.653 901.358 267.728 901.769 268.176C902.18 268.625 902.106 269.335 901.657 269.746C901.208 270.157 900.498 270.083 900.086 269.634Z" fill="#777777"/>
<path d="M661.277 390.788C660.866 390.34 660.941 389.63 661.389 389.218C661.838 388.807 662.549 388.882 662.96 389.331C663.371 389.779 663.296 390.489 662.848 390.901C662.399 391.312 661.688 391.237 661.277 390.788Z" fill="#777777"/>
<path d="M795.902 401.329C795.49 400.881 795.565 400.171 796.014 399.759C796.463 399.348 797.173 399.423 797.584 399.872C797.996 400.32 797.921 401.03 797.472 401.442C797.023 401.853 796.313 401.778 795.902 401.329Z" fill="#777777"/>
<path d="M13.6953 54.3167C13.2839 53.8681 13.3587 53.1579 13.8075 52.7467C14.2562 52.3355 14.9667 52.4103 15.3781 52.8588C15.7894 53.3074 15.7147 54.0177 15.2659 54.4289C14.8172 54.8401 14.1066 54.7653 13.6953 54.3167Z" fill="#777777"/>
<path d="M587.159 396.619C586.747 396.171 586.822 395.461 587.271 395.049C587.72 394.638 588.43 394.713 588.842 395.162C589.253 395.61 589.178 396.32 588.729 396.732C588.281 397.143 587.57 397.068 587.159 396.619Z" fill="#777777"/>
<path d="M539.704 400.993C539.292 400.545 539.367 399.835 539.816 399.423C540.265 399.012 540.975 399.087 541.386 399.536C541.798 399.984 541.723 400.694 541.274 401.106C540.825 401.517 540.115 401.442 539.704 400.993Z" fill="#777777"/>
<path d="M645.907 454.487C645.496 454.038 645.571 453.328 646.02 452.917C646.468 452.505 647.179 452.58 647.59 453.029C648.002 453.477 647.927 454.188 647.478 454.599C647.029 455.01 646.319 454.935 645.907 454.487Z" fill="#777777"/>
<path d="M641.495 434.525C641.083 434.076 641.158 433.366 641.607 432.955C642.056 432.544 642.766 432.618 643.178 433.067C643.589 433.515 643.514 434.226 643.065 434.637C642.617 435.048 641.906 434.973 641.495 434.525Z" fill="#777777"/>
<path d="M692.652 443.982C692.241 443.533 692.316 442.823 692.764 442.412C693.213 442.001 693.924 442.075 694.335 442.524C694.746 442.972 694.671 443.683 694.223 444.094C693.774 444.505 693.063 444.43 692.652 443.982Z" fill="#777777"/>
<path d="M700.505 456.056C700.094 455.607 700.169 454.897 700.617 454.486C701.066 454.075 701.777 454.15 702.188 454.598C702.599 455.047 702.524 455.757 702.076 456.168C701.627 456.579 700.916 456.505 700.505 456.056Z" fill="#777777"/>
<path d="M718.941 473.85C718.53 473.401 718.605 472.691 719.054 472.28C719.502 471.869 720.213 471.943 720.624 472.392C721.036 472.841 720.961 473.551 720.512 473.962C720.063 474.373 719.353 474.299 718.941 473.85Z" fill="#777777"/>
<path d="M733.114 423.16C732.703 422.712 732.778 422.002 733.226 421.59C733.675 421.179 734.386 421.254 734.797 421.703C735.208 422.151 735.134 422.861 734.685 423.273C734.236 423.684 733.526 423.609 733.114 423.16Z" fill="#777777"/>
<path d="M795.154 408.918C794.742 408.47 794.817 407.759 795.266 407.348C795.715 406.937 796.425 407.012 796.837 407.46C797.248 407.909 797.173 408.619 796.724 409.03C796.276 409.442 795.565 409.367 795.154 408.918Z" fill="#777777"/>
<path d="M810.897 414.899C810.486 414.45 810.561 413.74 811.01 413.329C811.458 412.918 812.169 412.992 812.58 413.441C812.992 413.889 812.917 414.6 812.468 415.011C812.019 415.422 811.309 415.347 810.897 414.899Z" fill="#777777"/>
<path d="M808.691 296.213C808.28 295.765 808.355 295.054 808.803 294.643C809.252 294.232 809.963 294.307 810.374 294.755C810.785 295.204 810.711 295.914 810.262 296.325C809.813 296.737 809.102 296.662 808.691 296.213Z" fill="#777777"/>
<path d="M888.381 309.857C887.97 309.408 888.045 308.698 888.494 308.287C888.942 307.876 889.653 307.95 890.064 308.399C890.475 308.847 890.401 309.558 889.952 309.969C889.503 310.38 888.793 310.305 888.381 309.857Z" fill="#777777"/>
<path d="M896.496 309.296C896.085 308.848 896.16 308.137 896.608 307.726C897.057 307.315 897.768 307.39 898.179 307.838C898.59 308.287 898.516 308.997 898.067 309.408C897.618 309.82 896.908 309.745 896.496 309.296Z" fill="#777777"/>
<path d="M905.658 312.212C905.247 311.764 905.322 311.053 905.77 310.642C906.219 310.231 906.93 310.306 907.341 310.754C907.752 311.203 907.678 311.913 907.229 312.324C906.78 312.736 906.07 312.661 905.658 312.212Z" fill="#777777"/>
<path d="M738.387 313.894C737.976 313.445 738.05 312.735 738.499 312.324C738.948 311.913 739.658 311.987 740.07 312.436C740.481 312.885 740.406 313.595 739.958 314.006C739.509 314.417 738.798 314.342 738.387 313.894Z" fill="#777777"/>
<path d="M842.422 246.047C842.011 245.599 842.086 244.888 842.534 244.477C842.983 244.066 843.694 244.141 844.105 244.589C844.516 245.038 844.441 245.748 843.993 246.159C843.544 246.571 842.833 246.496 842.422 246.047Z" fill="#777777"/>
<path d="M621.974 401.106C621.563 400.657 621.638 399.947 622.087 399.536C622.535 399.125 623.246 399.199 623.657 399.648C624.068 400.096 623.994 400.807 623.545 401.218C623.096 401.629 622.386 401.554 621.974 401.106Z" fill="#777777"/>
<path d="M564.983 365.107C564.572 364.658 564.647 363.948 565.095 363.537C565.544 363.126 566.255 363.2 566.666 363.649C567.077 364.097 567.002 364.808 566.554 365.219C566.105 365.63 565.394 365.555 564.983 365.107Z" fill="#777777"/>
<path d="M518.575 354.827C518.164 354.379 518.238 353.669 518.687 353.257C519.136 352.846 519.846 352.921 520.258 353.37C520.669 353.818 520.594 354.528 520.146 354.94C519.697 355.351 518.986 355.276 518.575 354.827Z" fill="#777777"/>
<path d="M633.193 307.913C632.782 307.465 632.857 306.755 633.305 306.343C633.754 305.932 634.465 306.007 634.876 306.456C635.287 306.904 635.212 307.614 634.764 308.026C634.315 308.437 633.604 308.362 633.193 307.913Z" fill="#777777"/>
<path d="M611.615 274.045C611.204 273.597 611.279 272.886 611.728 272.475C612.176 272.064 612.887 272.139 613.298 272.587C613.71 273.036 613.635 273.746 613.186 274.157C612.737 274.569 612.027 274.494 611.615 274.045Z" fill="#777777"/>
<path d="M639.849 253.523C639.438 253.074 639.513 252.364 639.962 251.953C640.41 251.542 641.121 251.616 641.532 252.065C641.943 252.513 641.869 253.224 641.42 253.635C640.971 254.046 640.261 253.971 639.849 253.523Z" fill="#777777"/>
<path d="M652.975 172.255C652.564 171.807 652.639 171.096 653.088 170.685C653.536 170.274 654.247 170.349 654.658 170.797C655.069 171.246 654.995 171.956 654.546 172.367C654.097 172.779 653.387 172.704 652.975 172.255Z" fill="#777777"/>
<path d="M596.957 228.889C596.545 228.44 596.62 227.73 597.069 227.319C597.517 226.908 598.228 226.983 598.639 227.431C599.051 227.88 598.976 228.59 598.527 229.001C598.078 229.412 597.368 229.338 596.957 228.889Z" fill="#777777"/>
<path d="M520.707 78.9144C520.295 78.4658 520.37 77.7556 520.819 77.3444C521.267 76.9332 521.978 77.0079 522.389 77.4565C522.801 77.9051 522.726 78.6153 522.277 79.0265C521.828 79.4377 521.118 79.363 520.707 78.9144Z" fill="#777777"/>
<path d="M534.954 313.446C534.543 312.997 534.618 312.287 535.067 311.876C535.515 311.464 536.226 311.539 536.637 311.988C537.048 312.436 536.974 313.147 536.525 313.558C536.076 313.969 535.366 313.894 534.954 313.446Z" fill="#777777"/>
<path d="M483.498 224.366C483.086 223.917 483.161 223.207 483.61 222.796C484.059 222.384 484.769 222.459 485.181 222.908C485.592 223.356 485.517 224.066 485.068 224.478C484.62 224.889 483.909 224.814 483.498 224.366Z" fill="#777777"/>
<path d="M522.95 402.264C522.539 401.815 522.614 401.105 523.063 400.694C523.511 400.283 524.222 400.358 524.633 400.806C525.045 401.255 524.97 401.965 524.521 402.376C524.072 402.787 523.362 402.713 522.95 402.264Z" fill="#777777"/>
<path d="M458.779 417.03C458.368 416.581 458.443 415.871 458.891 415.46C459.34 415.048 460.051 415.123 460.462 415.572C460.873 416.02 460.799 416.731 460.35 417.142C459.901 417.553 459.191 417.478 458.779 417.03Z" fill="#777777"/>
<path d="M502.682 437.104C502.271 436.655 502.345 435.945 502.794 435.534C503.243 435.123 503.953 435.197 504.365 435.646C504.776 436.095 504.701 436.805 504.252 437.216C503.804 437.627 503.093 437.552 502.682 437.104Z" fill="#777777"/>
<path d="M385.484 394.265C385.072 393.816 385.147 393.106 385.596 392.695C386.045 392.284 386.755 392.359 387.166 392.807C387.578 393.256 387.503 393.966 387.054 394.377C386.605 394.788 385.895 394.714 385.484 394.265Z" fill="#777777"/>
<path d="M378.603 326.492C378.191 326.043 378.266 325.333 378.715 324.922C379.164 324.51 379.874 324.585 380.286 325.034C380.697 325.482 380.622 326.192 380.173 326.604C379.725 327.015 379.014 326.94 378.603 326.492Z" fill="#777777"/>
<path d="M430.097 195.096C429.685 194.647 429.76 193.937 430.209 193.526C430.658 193.115 431.368 193.19 431.779 193.638C432.191 194.087 432.116 194.797 431.667 195.208C431.219 195.619 430.508 195.545 430.097 195.096Z" fill="#777777"/>
<path d="M414.241 202.946C413.83 202.497 413.904 201.787 414.353 201.376C414.802 200.964 415.512 201.039 415.924 201.488C416.335 201.936 416.26 202.647 415.812 203.058C415.363 203.469 414.652 203.394 414.241 202.946Z" fill="#777777"/>
<path d="M284.926 257.149C284.515 256.7 284.59 255.99 285.039 255.579C285.487 255.168 286.198 255.242 286.609 255.691C287.021 256.139 286.946 256.85 286.497 257.261C286.048 257.672 285.338 257.597 284.926 257.149Z" fill="#777777"/>
<path d="M242.108 264.326C241.697 263.878 241.772 263.168 242.221 262.756C242.669 262.345 243.38 262.42 243.791 262.869C244.203 263.317 244.128 264.027 243.679 264.439C243.23 264.85 242.52 264.775 242.108 264.326Z" fill="#777777"/>
<path d="M255.758 217.375C255.346 216.927 255.421 216.216 255.87 215.805C256.319 215.394 257.029 215.469 257.441 215.917C257.852 216.366 257.777 217.076 257.328 217.487C256.88 217.899 256.169 217.824 255.758 217.375Z" fill="#777777"/>
<path d="M293.976 140.22C293.565 139.771 293.64 139.061 294.088 138.65C294.537 138.239 295.248 138.314 295.659 138.762C296.07 139.211 295.996 139.921 295.547 140.332C295.098 140.743 294.388 140.669 293.976 140.22Z" fill="#777777"/>
<path d="M263.274 292.699C262.863 292.25 262.938 291.54 263.387 291.129C263.835 290.717 264.546 290.792 264.957 291.241C265.369 291.689 265.294 292.4 264.845 292.811C264.396 293.222 263.686 293.147 263.274 292.699Z" fill="#777777"/>
<path d="M177.937 278.158C177.526 277.709 177.601 276.999 178.049 276.588C178.498 276.176 179.209 276.251 179.62 276.7C180.031 277.148 179.957 277.859 179.508 278.27C179.059 278.681 178.349 278.606 177.937 278.158Z" fill="#777777"/>
<path d="M238.78 350.416C238.369 349.968 238.444 349.258 238.892 348.846C239.341 348.435 240.052 348.51 240.463 348.958C240.874 349.407 240.8 350.117 240.351 350.528C239.902 350.94 239.192 350.865 238.78 350.416Z" fill="#777777"/>
<path d="M271.801 413.031C271.389 412.582 271.464 411.872 271.913 411.461C272.361 411.049 273.072 411.124 273.483 411.573C273.895 412.021 273.82 412.732 273.371 413.143C272.922 413.554 272.212 413.479 271.801 413.031Z" fill="#777777"/>
<path d="M302.428 444.356C302.016 443.907 302.091 443.197 302.54 442.786C302.989 442.375 303.699 442.449 304.111 442.898C304.522 443.346 304.447 444.057 303.998 444.468C303.55 444.879 302.839 444.804 302.428 444.356Z" fill="#777777"/>
<path d="M73.865 163.957C73.4536 163.509 73.5284 162.799 73.9772 162.387C74.4259 161.976 75.1364 162.051 75.5478 162.499C75.9591 162.948 75.8843 163.658 75.4356 164.069C74.9868 164.481 74.2763 164.406 73.865 163.957Z" fill="#777777"/>
<path d="M265.742 196.404C265.331 195.955 265.406 195.245 265.855 194.834C266.303 194.422 267.014 194.497 267.425 194.946C267.837 195.394 267.762 196.105 267.313 196.516C266.864 196.927 266.154 196.852 265.742 196.404Z" fill="#777777"/>
<path d="M272.96 138.613C272.549 138.164 272.623 137.454 273.072 137.043C273.521 136.631 274.231 136.706 274.643 137.155C275.054 137.603 274.979 138.314 274.531 138.725C274.082 139.136 273.371 139.061 272.96 138.613Z" fill="#777777"/>
<path d="M202.17 239.542C201.759 239.094 201.833 238.383 202.282 237.972C202.731 237.561 203.441 237.636 203.853 238.084C204.264 238.533 204.189 239.243 203.741 239.654C203.292 240.066 202.581 239.991 202.17 239.542Z" fill="#777777"/>
<path d="M206.994 248.85C206.583 248.401 206.657 247.691 207.106 247.28C207.555 246.869 208.265 246.943 208.677 247.392C209.088 247.841 209.013 248.551 208.564 248.962C208.116 249.373 207.405 249.298 206.994 248.85Z" fill="#777777"/>
<path d="M438.623 305.334C438.212 304.886 438.286 304.175 438.735 303.764C439.184 303.353 439.894 303.428 440.306 303.876C440.717 304.325 440.642 305.035 440.194 305.446C439.745 305.858 439.034 305.783 438.623 305.334Z" fill="#777777"/>
<path d="M445.167 406.413C444.756 405.965 444.831 405.255 445.279 404.843C445.728 404.432 446.439 404.507 446.85 404.956C447.261 405.404 447.187 406.114 446.738 406.526C446.289 406.937 445.579 406.862 445.167 406.413Z" fill="#777777"/>
<path d="M504.626 387.909C504.215 387.461 504.29 386.751 504.739 386.339C505.187 385.928 505.898 386.003 506.309 386.452C506.721 386.9 506.646 387.61 506.197 388.022C505.748 388.433 505.038 388.358 504.626 387.909Z" fill="#777777"/>
<path d="M642.243 394.04C641.831 393.592 641.906 392.882 642.355 392.47C642.804 392.059 643.514 392.134 643.925 392.582C644.337 393.031 644.262 393.741 643.813 394.153C643.365 394.564 642.654 394.489 642.243 394.04Z" fill="#777777"/>
<path d="M544.976 127.66C544.565 127.211 544.64 126.501 545.088 126.089C545.537 125.678 546.248 125.753 546.659 126.202C547.07 126.65 546.996 127.36 546.547 127.772C546.098 128.183 545.388 128.108 544.976 127.66Z" fill="#777777"/>
<path d="M610.942 107.062C610.531 106.613 610.606 105.903 611.055 105.492C611.503 105.081 612.214 105.155 612.625 105.604C613.037 106.053 612.962 106.763 612.513 107.174C612.064 107.585 611.354 107.51 610.942 107.062Z" fill="#777777"/>
<path d="M634.502 20.2249C634.09 19.7763 634.165 19.0661 634.614 18.6549C635.063 18.2437 635.773 18.3185 636.184 18.767C636.596 19.2156 636.521 19.9259 636.072 20.3371C635.624 20.7483 634.913 20.6735 634.502 20.2249Z" fill="#777777"/>
<path d="M672.458 54.3167C672.047 53.8681 672.122 53.1579 672.571 52.7467C673.019 52.3355 673.73 52.4103 674.141 52.8588C674.553 53.3074 674.478 54.0177 674.029 54.4289C673.58 54.8401 672.87 54.7653 672.458 54.3167Z" fill="#777777"/>
<path d="M701.665 41.8314C701.253 41.3828 701.328 40.6725 701.777 40.2613C702.225 39.8501 702.936 39.9249 703.347 40.3735C703.759 40.8221 703.684 41.5323 703.235 41.9435C702.786 42.3547 702.076 42.2799 701.665 41.8314Z" fill="#777777"/>
<path d="M447.561 378.976C447.149 378.527 447.224 377.817 447.673 377.406C448.121 376.995 448.832 377.069 449.243 377.518C449.655 377.967 449.58 378.677 449.131 379.088C448.682 379.499 447.972 379.424 447.561 378.976Z" fill="#777777"/>
<path d="M433.462 544.725C433.051 544.276 433.126 543.566 433.575 543.155C434.023 542.744 434.734 542.818 435.145 543.267C435.557 543.716 435.482 544.426 435.033 544.837C434.584 545.248 433.874 545.173 433.462 544.725Z" fill="#777777"/>
<path d="M496.811 598.293C496.399 597.845 496.474 597.134 496.923 596.723C497.372 596.312 498.082 596.387 498.494 596.835C498.905 597.284 498.83 597.994 498.381 598.405C497.933 598.817 497.222 598.742 496.811 598.293Z" fill="#777777"/>
<path d="M491.725 605.658C491.313 605.209 491.388 604.499 491.837 604.088C492.286 603.676 492.996 603.751 493.408 604.2C493.819 604.648 493.744 605.358 493.295 605.77C492.847 606.181 492.136 606.106 491.725 605.658Z" fill="#777777"/>
<path d="M375.723 590.33C375.312 589.882 375.387 589.172 375.836 588.76C376.284 588.349 376.995 588.424 377.406 588.873C377.818 589.321 377.743 590.031 377.294 590.443C376.845 590.854 376.135 590.779 375.723 590.33Z" fill="#777777"/>
<path d="M386.344 576.873C385.932 576.425 386.007 575.715 386.456 575.303C386.905 574.892 387.615 574.967 388.027 575.415C388.438 575.864 388.363 576.574 387.914 576.986C387.466 577.397 386.755 577.322 386.344 576.873Z" fill="#777777"/>
<path d="M438.623 630.329C438.212 629.881 438.286 629.171 438.735 628.759C439.184 628.348 439.894 628.423 440.306 628.872C440.717 629.32 440.642 630.03 440.194 630.442C439.745 630.853 439.034 630.778 438.623 630.329Z" fill="#777777"/>
<path d="M440.343 638.59C439.932 638.142 440.007 637.431 440.455 637.02C440.904 636.609 441.615 636.684 442.026 637.132C442.437 637.581 442.363 638.291 441.914 638.702C441.465 639.113 440.755 639.039 440.343 638.59Z" fill="#777777"/>
<path d="M448.907 622.965C448.495 622.517 448.57 621.806 449.019 621.395C449.468 620.984 450.178 621.059 450.59 621.507C451.001 621.956 450.926 622.666 450.477 623.077C450.029 623.488 449.318 623.414 448.907 622.965Z" fill="#777777"/>
<path d="M720.886 408.881C720.475 408.433 720.549 407.722 720.998 407.311C721.447 406.9 722.157 406.975 722.569 407.423C722.98 407.872 722.905 408.582 722.457 408.993C722.008 409.405 721.297 409.33 720.886 408.881Z" fill="#777777"/>
<path d="M712.509 440.842C712.098 440.394 712.173 439.683 712.621 439.272C713.07 438.861 713.781 438.936 714.192 439.384C714.603 439.833 714.529 440.543 714.08 440.954C713.631 441.365 712.921 441.291 712.509 440.842Z" fill="#777777"/>
<path d="M675.413 501.811C675.001 501.362 675.076 500.652 675.525 500.241C675.974 499.83 676.684 499.904 677.096 500.353C677.507 500.802 677.432 501.512 676.983 501.923C676.535 502.334 675.824 502.259 675.413 501.811Z" fill="#777777"/>
<path d="M663.297 426.077C662.885 425.628 662.96 424.918 663.409 424.506C663.858 424.095 664.568 424.17 664.979 424.619C665.391 425.067 665.316 425.777 664.867 426.189C664.418 426.6 663.708 426.525 663.297 426.077Z" fill="#777777"/>
<path d="M691.867 402.376C691.456 401.928 691.53 401.217 691.979 400.806C692.428 400.395 693.138 400.47 693.55 400.918C693.961 401.367 693.886 402.077 693.438 402.488C692.989 402.9 692.278 402.825 691.867 402.376Z" fill="#777777"/>
<path d="M885.053 320.1C884.642 319.651 884.717 318.941 885.165 318.53C885.614 318.119 886.325 318.193 886.736 318.642C887.147 319.091 887.073 319.801 886.624 320.212C886.175 320.623 885.465 320.548 885.053 320.1Z" fill="#777777"/>
<path d="M843.32 322.492C842.908 322.044 842.983 321.334 843.432 320.922C843.88 320.511 844.591 320.586 845.002 321.035C845.414 321.483 845.339 322.193 844.89 322.605C844.441 323.016 843.731 322.941 843.32 322.492Z" fill="#777777"/>
<path d="M655.892 290.082C655.481 289.634 655.555 288.924 656.004 288.512C656.453 288.101 657.164 288.176 657.575 288.624C657.986 289.073 657.911 289.783 657.463 290.194C657.014 290.606 656.303 290.531 655.892 290.082Z" fill="#777777"/>
<path d="M543.518 223.206C543.106 222.758 543.181 222.048 543.63 221.636C544.079 221.225 544.789 221.3 545.201 221.748C545.612 222.197 545.537 222.907 545.088 223.319C544.64 223.73 543.929 223.655 543.518 223.206Z" fill="#777777"/>
<path d="M597.106 250.271C596.695 249.822 596.77 249.112 597.218 248.701C597.667 248.29 598.378 248.364 598.789 248.813C599.2 249.262 599.126 249.972 598.677 250.383C598.228 250.794 597.518 250.719 597.106 250.271Z" fill="#777777"/>
<path d="M497.372 119.622C496.96 119.174 497.035 118.464 497.484 118.052C497.932 117.641 498.643 117.716 499.054 118.165C499.466 118.613 499.391 119.323 498.942 119.735C498.493 120.146 497.783 120.071 497.372 119.622Z" fill="#777777"/>
<path d="M636.521 420.618C636.11 420.17 636.185 419.46 636.633 419.048C637.082 418.637 637.793 418.712 638.204 419.161C638.615 419.609 638.541 420.319 638.092 420.731C637.643 421.142 636.933 421.067 636.521 420.618Z" fill="#777777"/>
<path d="M548.529 246.869C548.118 246.421 548.192 245.711 548.641 245.299C549.09 244.888 549.801 244.963 550.212 245.412C550.623 245.86 550.548 246.57 550.1 246.982C549.651 247.393 548.94 247.318 548.529 246.869Z" fill="#777777"/>
<path d="M826.304 376.919C825.893 376.471 825.968 375.76 826.417 375.349C826.865 374.938 827.576 375.013 827.987 375.461C828.399 375.91 828.324 376.62 827.875 377.031C827.426 377.443 826.716 377.368 826.304 376.919Z" fill="#777777"/>
<path d="M797.398 291.989C796.986 291.54 797.061 290.83 797.51 290.419C797.959 290.007 798.669 290.082 799.08 290.531C799.492 290.979 799.417 291.69 798.968 292.101C798.52 292.512 797.809 292.437 797.398 291.989Z" fill="#777777"/>
<path d="M799.529 300.175C799.118 299.727 799.192 299.016 799.641 298.605C800.09 298.194 800.8 298.269 801.212 298.717C801.623 299.166 801.548 299.876 801.1 300.287C800.651 300.698 799.94 300.624 799.529 300.175Z" fill="#777777"/>
<path d="M201.085 75.9232C200.674 75.4746 200.749 74.7643 201.197 74.3531C201.646 73.9419 202.357 74.0167 202.768 74.4653C203.179 74.9139 203.105 75.6241 202.656 76.0353C202.207 76.4465 201.497 76.3717 201.085 75.9232Z" fill="#777777"/>
<path d="M698.074 254.196C697.663 253.747 697.738 253.037 698.187 252.626C698.635 252.214 699.346 252.289 699.757 252.738C700.169 253.186 700.094 253.897 699.645 254.308C699.196 254.719 698.486 254.644 698.074 254.196Z" fill="#777777"/>
<path d="M684.724 184.517C684.313 184.068 684.388 183.358 684.837 182.947C685.285 182.536 685.996 182.61 686.407 183.059C686.818 183.508 686.744 184.218 686.295 184.629C685.846 185.04 685.136 184.965 684.724 184.517Z" fill="#777777"/>
<path d="M587.458 152.368C587.047 151.92 587.121 151.21 587.57 150.798C588.019 150.387 588.729 150.462 589.141 150.911C589.552 151.359 589.477 152.069 589.029 152.481C588.58 152.892 587.869 152.817 587.458 152.368Z" fill="#777777"/>
<path d="M610.756 323.202C610.344 322.754 610.419 322.044 610.868 321.632C611.317 321.221 612.027 321.296 612.438 321.745C612.85 322.193 612.775 322.903 612.326 323.315C611.877 323.726 611.167 323.651 610.756 323.202Z" fill="#777777"/>
<path d="M683.939 329.034C683.528 328.585 683.602 327.875 684.051 327.463C684.5 327.052 685.21 327.127 685.622 327.576C686.033 328.024 685.958 328.734 685.51 329.146C685.061 329.557 684.35 329.482 683.939 329.034Z" fill="#777777"/>
<path d="M352.575 485.438C352.164 484.989 352.239 484.279 352.688 483.868C353.136 483.457 353.847 483.531 354.258 483.98C354.67 484.429 354.595 485.139 354.146 485.55C353.697 485.961 352.987 485.886 352.575 485.438Z" fill="#777777"/>
<path d="M392.514 550.22C392.103 549.771 392.178 549.061 392.626 548.65C393.075 548.239 393.786 548.314 394.197 548.762C394.608 549.211 394.533 549.921 394.085 550.332C393.636 550.743 392.925 550.669 392.514 550.22Z" fill="#777777"/>
<path d="M330.998 533.025C330.587 532.576 330.661 531.866 331.11 531.455C331.559 531.044 332.269 531.118 332.681 531.567C333.092 532.015 333.017 532.726 332.569 533.137C332.12 533.548 331.409 533.473 330.998 533.025Z" fill="#777777"/>
<path d="M457.807 517.511C457.396 517.062 457.47 516.352 457.919 515.941C458.368 515.53 459.078 515.605 459.49 516.053C459.901 516.502 459.826 517.212 459.377 517.623C458.929 518.034 458.218 517.96 457.807 517.511Z" fill="#777777"/>
<path d="M529.308 448.281C528.896 447.832 528.971 447.122 529.42 446.711C529.869 446.299 530.579 446.374 530.99 446.823C531.402 447.271 531.327 447.982 530.878 448.393C530.429 448.804 529.719 448.729 529.308 448.281Z" fill="#777777"/>
<path d="M570.331 452.393C569.919 451.944 569.994 451.234 570.443 450.823C570.892 450.412 571.602 450.486 572.014 450.935C572.425 451.384 572.35 452.094 571.901 452.505C571.453 452.916 570.742 452.841 570.331 452.393Z" fill="#777777"/>
<path d="M528.036 281.297C527.625 280.849 527.7 280.138 528.148 279.727C528.597 279.316 529.308 279.391 529.719 279.839C530.13 280.288 530.055 280.998 529.607 281.409C529.158 281.821 528.447 281.746 528.036 281.297Z" fill="#777777"/>
<path d="M617.075 326.006C616.664 325.558 616.739 324.847 617.188 324.436C617.636 324.025 618.347 324.1 618.758 324.548C619.17 324.997 619.095 325.707 618.646 326.118C618.197 326.53 617.487 326.455 617.075 326.006Z" fill="#777777"/>
<path d="M594.152 207.992C593.74 207.544 593.815 206.834 594.264 206.422C594.713 206.011 595.423 206.086 595.835 206.535C596.246 206.983 596.171 207.693 595.722 208.105C595.274 208.516 594.563 208.441 594.152 207.992Z" fill="#777777"/>
<path d="M716.436 308.325C716.024 307.876 716.099 307.166 716.548 306.755C716.997 306.343 717.707 306.418 718.119 306.867C718.53 307.315 718.455 308.026 718.006 308.437C717.558 308.848 716.847 308.773 716.436 308.325Z" fill="#777777"/>
<path d="M722.307 308.66C721.896 308.212 721.97 307.502 722.419 307.09C722.868 306.679 723.578 306.754 723.99 307.203C724.401 307.651 724.326 308.361 723.878 308.773C723.429 309.184 722.718 309.109 722.307 308.66Z" fill="#777777"/>
<path d="M756.786 303.951C756.375 303.502 756.449 302.792 756.898 302.38C757.347 301.969 758.057 302.044 758.469 302.493C758.88 302.941 758.805 303.651 758.356 304.063C757.908 304.474 757.197 304.399 756.786 303.951Z" fill="#777777"/>
<path d="M738.125 254.42C737.714 253.972 737.789 253.261 738.237 252.85C738.686 252.439 739.397 252.514 739.808 252.962C740.219 253.411 740.145 254.121 739.696 254.532C739.247 254.944 738.537 254.869 738.125 254.42Z" fill="#777777"/>
<path d="M735.882 332.025C735.47 331.576 735.545 330.866 735.994 330.455C736.442 330.044 737.153 330.118 737.564 330.567C737.976 331.015 737.901 331.726 737.452 332.137C737.003 332.548 736.293 332.473 735.882 332.025Z" fill="#777777"/>
<path d="M785.244 260.065C784.833 259.616 784.907 258.906 785.356 258.495C785.805 258.084 786.515 258.158 786.927 258.607C787.338 259.055 787.263 259.766 786.814 260.177C786.366 260.588 785.655 260.513 785.244 260.065Z" fill="#777777"/>
<path d="M850.499 265.709C850.088 265.261 850.163 264.55 850.612 264.139C851.06 263.728 851.771 263.803 852.182 264.251C852.594 264.7 852.519 265.41 852.07 265.821C851.621 266.233 850.911 266.158 850.499 265.709Z" fill="#777777"/>
<path d="M907.864 279.578C907.453 279.13 907.528 278.42 907.977 278.008C908.425 277.597 909.136 277.672 909.547 278.121C909.959 278.569 909.884 279.279 909.435 279.691C908.986 280.102 908.276 280.027 907.864 279.578Z" fill="#777777"/>
<path d="M917.849 278.494C917.438 278.046 917.513 277.336 917.962 276.924C918.41 276.513 919.121 276.588 919.532 277.037C919.943 277.485 919.869 278.195 919.42 278.607C918.971 279.018 918.261 278.943 917.849 278.494Z" fill="#777777"/>
<path d="M832.998 299.128C832.587 298.68 832.662 297.969 833.11 297.558C833.559 297.147 834.27 297.222 834.681 297.67C835.092 298.119 835.018 298.829 834.569 299.24C834.12 299.652 833.41 299.577 832.998 299.128Z" fill="#777777"/>
<path d="M615.654 245C615.243 244.552 615.318 243.841 615.766 243.43C616.215 243.019 616.926 243.094 617.337 243.542C617.748 243.991 617.674 244.701 617.225 245.112C616.776 245.524 616.066 245.449 615.654 245Z" fill="#777777"/>
<path d="M507.02 192.816C506.608 192.367 506.683 191.657 507.132 191.246C507.581 190.835 508.291 190.909 508.703 191.358C509.114 191.806 509.039 192.517 508.59 192.928C508.142 193.339 507.431 193.264 507.02 192.816Z" fill="#777777"/>
<path d="M442.101 207.17C441.689 206.722 441.764 206.011 442.213 205.6C442.662 205.189 443.372 205.264 443.784 205.712C444.195 206.161 444.12 206.871 443.671 207.282C443.223 207.694 442.512 207.619 442.101 207.17Z" fill="#777777"/>
<path d="M391.355 182.461C390.943 182.013 391.018 181.302 391.467 180.891C391.916 180.48 392.626 180.555 393.038 181.003C393.449 181.452 393.374 182.162 392.925 182.573C392.477 182.985 391.766 182.91 391.355 182.461Z" fill="#777777"/>
<path d="M372.694 338.79C372.283 338.342 372.358 337.632 372.806 337.22C373.255 336.809 373.966 336.884 374.377 337.332C374.788 337.781 374.714 338.491 374.265 338.903C373.816 339.314 373.106 339.239 372.694 338.79Z" fill="#777777"/>
<path d="M389.971 272.662C389.56 272.214 389.635 271.504 390.083 271.092C390.532 270.681 391.243 270.756 391.654 271.205C392.065 271.653 391.991 272.363 391.542 272.775C391.093 273.186 390.383 273.111 389.971 272.662Z" fill="#777777"/>
<path d="M433.462 112.37C433.051 111.922 433.126 111.212 433.575 110.8C434.023 110.389 434.734 110.464 435.145 110.913C435.557 111.361 435.482 112.071 435.033 112.483C434.584 112.894 433.874 112.819 433.462 112.37Z" fill="#777777"/>
<path d="M458.667 43.0277C458.256 42.5791 458.331 41.8688 458.779 41.4576C459.228 41.0464 459.939 41.1212 460.35 41.5698C460.761 42.0184 460.687 42.7286 460.238 43.1398C459.789 43.551 459.079 43.4762 458.667 43.0277Z" fill="#777777"/>
<path d="M532.748 116.146C532.337 115.697 532.411 114.987 532.86 114.576C533.309 114.165 534.019 114.239 534.431 114.688C534.842 115.137 534.767 115.847 534.319 116.258C533.87 116.669 533.159 116.594 532.748 116.146Z" fill="#777777"/>
<path d="M521.716 87.138C521.305 86.6894 521.38 85.9792 521.828 85.568C522.277 85.1568 522.988 85.2316 523.399 85.6801C523.81 86.1287 523.736 86.839 523.287 87.2502C522.838 87.6614 522.128 87.5866 521.716 87.138Z" fill="#777777"/>
<path d="M428.115 158.835C427.703 158.387 427.778 157.676 428.227 157.265C428.676 156.854 429.386 156.929 429.798 157.377C430.209 157.826 430.134 158.536 429.685 158.947C429.237 159.359 428.526 159.284 428.115 158.835Z" fill="#777777"/>
<path d="M230.441 351.5C230.03 351.052 230.104 350.341 230.553 349.93C231.002 349.519 231.712 349.594 232.124 350.042C232.535 350.491 232.46 351.201 232.012 351.612C231.563 352.024 230.852 351.949 230.441 351.5Z" fill="#777777"/>
<path d="M250.672 422.338C250.261 421.89 250.336 421.179 250.784 420.768C251.233 420.357 251.944 420.432 252.355 420.88C252.766 421.329 252.691 422.039 252.243 422.45C251.794 422.862 251.083 422.787 250.672 422.338Z" fill="#777777"/>
<path d="M179.583 399.871C179.171 399.423 179.246 398.713 179.695 398.301C180.144 397.89 180.854 397.965 181.266 398.414C181.677 398.862 181.602 399.572 181.153 399.984C180.705 400.395 179.994 400.32 179.583 399.871Z" fill="#777777"/>
<path d="M245.137 456.43C244.726 455.981 244.801 455.271 245.25 454.86C245.698 454.449 246.409 454.524 246.82 454.972C247.232 455.421 247.157 456.131 246.708 456.542C246.259 456.953 245.549 456.879 245.137 456.43Z" fill="#777777"/>
<path d="M0.270237 309.783C-0.141116 309.334 -0.0663241 308.624 0.382425 308.213C0.831173 307.801 1.54169 307.876 1.95305 308.325C2.3644 308.773 2.28961 309.483 1.84086 309.895C1.39211 310.306 0.68159 310.231 0.270237 309.783Z" fill="#777777"/>
<path d="M260.731 185.713C260.32 185.265 260.395 184.554 260.844 184.143C261.292 183.732 262.003 183.807 262.414 184.255C262.826 184.704 262.751 185.414 262.302 185.825C261.853 186.237 261.143 186.162 260.731 185.713Z" fill="#777777"/>
<path d="M337.393 123.285C336.981 122.837 337.056 122.127 337.505 121.715C337.954 121.304 338.664 121.379 339.076 121.828C339.487 122.276 339.412 122.986 338.963 123.398C338.515 123.809 337.804 123.734 337.393 123.285Z" fill="#777777"/>
<path d="M86.0561 39.2894C85.6448 38.8408 85.7196 38.1306 86.1683 37.7194C86.6171 37.3082 87.3276 37.3829 87.7389 37.8315C88.1503 38.2801 88.0755 38.9903 87.6267 39.4015C87.178 39.8127 86.4675 39.738 86.0561 39.2894Z" fill="#777777"/>
</g>
</g>
</svg>
