<svg width="531" height="364" viewBox="0 0 531 364" fill="none" xmlns="http://www.w3.org/2000/svg">
<g style="mix-blend-mode:plus-lighter" opacity="0.8">
<g style="mix-blend-mode:color-dodge">
<path d="M391.091 102.642C390.366 102.664 389.748 102.11 389.727 101.386C389.706 100.662 390.26 100.044 390.984 100.023C391.708 100.002 392.326 100.555 392.347 101.279C392.369 102.003 391.815 102.621 391.091 102.642Z" fill="#777777"/>
<path d="M148.79 138.674C148.065 138.695 147.448 138.141 147.426 137.417C147.405 136.693 147.959 136.076 148.683 136.054C149.408 136.033 150.025 136.587 150.047 137.311C150.068 138.035 149.514 138.652 148.79 138.674Z" fill="#777777"/>
<path d="M428.371 186.267C427.647 186.289 427.029 185.735 427.007 185.011C426.986 184.287 427.54 183.669 428.264 183.648C428.989 183.627 429.606 184.18 429.628 184.904C429.649 185.628 429.095 186.246 428.371 186.267Z" fill="#777777"/>
<path d="M423.194 123.767C422.47 123.789 421.852 123.235 421.831 122.511C421.81 121.787 422.363 121.169 423.088 121.148C423.812 121.127 424.43 121.68 424.451 122.404C424.472 123.128 423.919 123.746 423.194 123.767Z" fill="#777777"/>
<path d="M23.677 191.826C22.9527 191.847 22.3349 191.294 22.3136 190.57C22.2923 189.845 22.8462 189.228 23.5705 189.207C24.2948 189.185 24.9126 189.739 24.9339 190.463C24.9552 191.187 24.4013 191.805 23.677 191.826Z" fill="#777777"/>
<path d="M24.3371 93.7195C23.6128 93.7408 22.995 93.1871 22.9737 92.4631C22.9524 91.7391 23.5063 91.1215 24.2306 91.1002C24.9549 91.0789 25.5727 91.6326 25.594 92.3566C25.6153 93.0806 25.0614 93.6982 24.3371 93.7195Z" fill="#777777"/>
<path d="M429.67 229.518C428.946 229.54 428.328 228.986 428.307 228.262C428.285 227.538 428.839 226.92 429.564 226.899C430.288 226.878 430.906 227.431 430.927 228.155C430.948 228.879 430.394 229.497 429.67 229.518Z" fill="#777777"/>
<path d="M174.161 64.0349C173.437 64.0562 172.819 63.5025 172.798 62.7785C172.777 62.0545 173.331 61.4369 174.055 61.4156C174.779 61.3943 175.397 61.948 175.418 62.672C175.44 63.3961 174.886 64.0136 174.161 64.0349Z" fill="#777777"/>
<path d="M201.642 231.945C200.918 231.966 200.3 231.413 200.279 230.689C200.258 229.965 200.811 229.347 201.536 229.326C202.26 229.304 202.878 229.858 202.899 230.582C202.92 231.306 202.367 231.924 201.642 231.945Z" fill="#777777"/>
<path d="M85.967 269.659C85.2427 269.68 84.6249 269.127 84.6036 268.403C84.5823 267.679 85.1362 267.061 85.8605 267.04C86.5848 267.018 87.2026 267.572 87.2239 268.296C87.2452 269.02 86.6913 269.638 85.967 269.659Z" fill="#777777"/>
<path d="M403.105 5.06909C402.381 5.09039 401.763 4.53672 401.742 3.81269C401.721 3.08866 402.274 2.47111 402.999 2.44981C403.723 2.42852 404.341 2.98219 404.362 3.70622C404.383 4.43024 403.83 5.0478 403.105 5.06909Z" fill="#777777"/>
<path d="M529.454 2.61987C528.729 2.64117 528.111 2.0875 528.09 1.36347C528.069 0.639443 528.623 0.0218891 529.347 0.000594121C530.071 -0.0207008 530.689 0.532968 530.71 1.257C530.732 1.98102 530.178 2.59858 529.454 2.61987Z" fill="#777777"/>
<path d="M396.544 70.6785C395.82 70.6998 395.202 70.1461 395.181 69.4221C395.159 68.698 395.713 68.0805 396.438 68.0592C397.162 68.0379 397.78 68.5916 397.801 69.3156C397.822 70.0396 397.268 70.6572 396.544 70.6785Z" fill="#777777"/>
<path d="M213.146 103.751C212.422 103.772 211.804 103.218 211.783 102.494C211.762 101.77 212.315 101.153 213.04 101.131C213.764 101.11 214.382 101.664 214.403 102.388C214.424 103.112 213.871 103.729 213.146 103.751Z" fill="#777777"/>
<path d="M529.454 125.237C528.729 125.258 528.111 124.705 528.09 123.981C528.069 123.257 528.623 122.639 529.347 122.618C530.071 122.596 530.689 123.15 530.71 123.874C530.732 124.598 530.178 125.216 529.454 125.237Z" fill="#777777"/>
<path d="M390.686 137.503C389.961 137.524 389.344 136.97 389.322 136.246C389.301 135.522 389.855 134.905 390.579 134.883C391.304 134.862 391.921 135.416 391.943 136.14C391.964 136.864 391.41 137.481 390.686 137.503Z" fill="#777777"/>
<path d="M398.184 162.779C397.46 162.8 396.842 162.247 396.821 161.523C396.8 160.799 397.353 160.181 398.078 160.16C398.802 160.138 399.42 160.692 399.441 161.416C399.462 162.14 398.909 162.758 398.184 162.779Z" fill="#777777"/>
<path d="M408.58 201.196C407.856 201.217 407.238 200.664 407.217 199.94C407.195 199.216 407.749 198.598 408.474 198.577C409.198 198.555 409.816 199.109 409.837 199.833C409.858 200.557 409.304 201.175 408.58 201.196Z" fill="#777777"/>
<path d="M354.598 116.484C353.874 116.505 353.256 115.952 353.235 115.228C353.214 114.504 353.768 113.886 354.492 113.865C355.216 113.844 355.834 114.397 355.855 115.121C355.877 115.845 355.323 116.463 354.598 116.484Z" fill="#777777"/>
<path d="M355.259 79.0476C354.534 79.0689 353.917 78.5152 353.895 77.7912C353.874 77.0672 354.428 76.4496 355.152 76.4283C355.877 76.407 356.494 76.9607 356.516 77.6847C356.537 78.4088 355.983 79.0263 355.259 79.0476Z" fill="#777777"/>
<path d="M339.494 95.1472C338.77 95.1685 338.152 94.6148 338.131 93.8908C338.11 93.1668 338.664 92.5492 339.388 92.5279C340.112 92.5066 340.73 93.0603 340.751 93.7843C340.773 94.5084 340.219 95.1259 339.494 95.1472Z" fill="#777777"/>
<path d="M374.303 182.286C373.579 182.307 372.961 181.754 372.94 181.029C372.919 180.305 373.473 179.688 374.197 179.667C374.921 179.645 375.539 180.199 375.56 180.923C375.582 181.647 375.028 182.265 374.303 182.286Z" fill="#777777"/>
<path d="M369.724 177.75C368.999 177.771 368.382 177.217 368.36 176.493C368.339 175.769 368.893 175.152 369.617 175.13C370.341 175.109 370.959 175.663 370.98 176.387C371.002 177.111 370.448 177.728 369.724 177.75Z" fill="#777777"/>
<path d="M436.615 154.666C435.891 154.687 435.273 154.133 435.252 153.409C435.23 152.685 435.784 152.068 436.508 152.046C437.233 152.025 437.851 152.579 437.872 153.303C437.893 154.027 437.339 154.644 436.615 154.666Z" fill="#777777"/>
<path d="M162.445 132.54C161.72 132.561 161.102 132.007 161.081 131.283C161.06 130.559 161.614 129.942 162.338 129.921C163.062 129.899 163.68 130.453 163.701 131.177C163.723 131.901 163.169 132.519 162.445 132.54Z" fill="#777777"/>
<path d="M104.607 78.9832C103.883 79.0044 103.265 78.4508 103.244 77.7268C103.222 77.0027 103.776 76.3852 104.501 76.3639C105.225 76.3426 105.843 76.8962 105.864 77.6203C105.885 78.3443 105.331 78.9619 104.607 78.9832Z" fill="#777777"/>
<path d="M264.699 98.3191C263.975 98.3404 263.357 97.7867 263.336 97.0627C263.315 96.3387 263.869 95.7211 264.593 95.6998C265.317 95.6785 265.935 96.2322 265.956 96.9562C265.978 97.6802 265.424 98.2978 264.699 98.3191Z" fill="#777777"/>
<path d="M465.054 188.056C464.33 188.078 463.712 187.524 463.691 186.8C463.67 186.076 464.224 185.458 464.948 185.437C465.672 185.416 466.29 185.969 466.311 186.694C466.333 187.418 465.779 188.035 465.054 188.056Z" fill="#777777"/>
<path d="M416.867 166.761C416.143 166.783 415.525 166.229 415.504 165.505C415.482 164.781 416.036 164.163 416.761 164.142C417.485 164.121 418.103 164.675 418.124 165.399C418.145 166.123 417.591 166.74 416.867 166.761Z" fill="#777777"/>
<path d="M174.95 227.069C174.226 227.09 173.608 226.537 173.587 225.813C173.565 225.089 174.119 224.471 174.843 224.45C175.568 224.429 176.186 224.982 176.207 225.706C176.228 226.43 175.674 227.048 174.95 227.069Z" fill="#777777"/>
<path d="M380.269 243.04C379.544 243.061 378.926 242.507 378.905 241.783C378.884 241.059 379.438 240.442 380.162 240.421C380.886 240.399 381.504 240.953 381.525 241.677C381.547 242.401 380.993 243.018 380.269 243.04Z" fill="#777777"/>
<path d="M287.089 210.565C286.365 210.586 285.747 210.033 285.726 209.309C285.704 208.585 286.258 207.967 286.983 207.946C287.707 207.925 288.325 208.478 288.346 209.202C288.367 209.926 287.813 210.544 287.089 210.565Z" fill="#777777"/>
<path d="M313.185 219.467C312.461 219.488 311.843 218.934 311.822 218.21C311.801 217.486 312.354 216.869 313.079 216.847C313.803 216.826 314.421 217.38 314.442 218.104C314.463 218.828 313.91 219.445 313.185 219.467Z" fill="#777777"/>
<path d="M350.082 141.889C349.357 141.911 348.74 141.357 348.718 140.633C348.697 139.909 349.251 139.291 349.975 139.27C350.7 139.249 351.317 139.802 351.339 140.527C351.36 141.251 350.806 141.868 350.082 141.889Z" fill="#777777"/>
<path d="M289.283 205.839C288.559 205.86 287.941 205.306 287.92 204.582C287.899 203.858 288.453 203.241 289.177 203.219C289.901 203.198 290.519 203.752 290.54 204.476C290.562 205.2 290.008 205.817 289.283 205.839Z" fill="#777777"/>
<path d="M280.315 262.12C279.59 262.141 278.973 261.587 278.951 260.863C278.93 260.139 279.484 259.522 280.208 259.501C280.932 259.479 281.55 260.033 281.572 260.757C281.593 261.481 281.039 262.099 280.315 262.12Z" fill="#777777"/>
<path d="M288.452 281.414C287.728 281.435 287.11 280.881 287.089 280.157C287.068 279.433 287.622 278.816 288.346 278.795C289.07 278.773 289.688 279.327 289.709 280.051C289.731 280.775 289.177 281.393 288.452 281.414Z" fill="#777777"/>
<path d="M263.336 271.809C262.612 271.831 261.994 271.277 261.973 270.553C261.951 269.829 262.505 269.211 263.23 269.19C263.954 269.169 264.572 269.722 264.593 270.446C264.614 271.17 264.06 271.788 263.336 271.809Z" fill="#777777"/>
<path d="M224.245 189.292C223.521 189.313 222.903 188.759 222.881 188.035C222.86 187.311 223.414 186.694 224.138 186.672C224.863 186.651 225.48 187.205 225.502 187.929C225.523 188.653 224.969 189.27 224.245 189.292Z" fill="#777777"/>
<path d="M320.513 281.179C319.789 281.201 319.171 280.647 319.15 279.923C319.129 279.199 319.683 278.581 320.407 278.56C321.131 278.539 321.749 279.093 321.77 279.817C321.792 280.541 321.238 281.158 320.513 281.179Z" fill="#777777"/>
<path d="M247.295 201.622C246.571 201.643 245.953 201.089 245.932 200.365C245.91 199.641 246.464 199.024 247.189 199.003C247.913 198.981 248.531 199.535 248.552 200.259C248.573 200.983 248.019 201.601 247.295 201.622Z" fill="#777777"/>
<path d="M403.105 288.654C402.381 288.675 401.763 288.122 401.742 287.398C401.721 286.674 402.274 286.056 402.999 286.035C403.723 286.013 404.341 286.567 404.362 287.291C404.383 288.015 403.83 288.633 403.105 288.654Z" fill="#777777"/>
<path d="M114.066 226.835C113.341 226.856 112.724 226.302 112.702 225.578C112.681 224.854 113.235 224.237 113.959 224.215C114.683 224.194 115.301 224.748 115.323 225.472C115.344 226.196 114.79 226.813 114.066 226.835Z" fill="#777777"/>
<path d="M178.955 205.497C178.231 205.518 177.613 204.964 177.591 204.24C177.57 203.516 178.124 202.899 178.848 202.878C179.573 202.856 180.19 203.41 180.212 204.134C180.233 204.858 179.679 205.476 178.955 205.497Z" fill="#777777"/>
<path d="M228.015 301.899C227.291 301.92 226.673 301.367 226.652 300.643C226.631 299.919 227.185 299.301 227.909 299.28C228.633 299.259 229.251 299.812 229.272 300.536C229.294 301.26 228.74 301.878 228.015 301.899Z" fill="#777777"/>
<path d="M171.35 270.915C170.626 270.936 170.008 270.382 169.986 269.658C169.965 268.934 170.519 268.317 171.243 268.296C171.968 268.274 172.585 268.828 172.607 269.552C172.628 270.276 172.074 270.894 171.35 270.915Z" fill="#777777"/>
<path d="M207.948 204.454C207.224 204.475 206.606 203.921 206.585 203.197C206.564 202.473 207.118 201.856 207.842 201.835C208.566 201.813 209.184 202.367 209.205 203.091C209.227 203.815 208.673 204.433 207.948 204.454Z" fill="#777777"/>
<path d="M197.573 138.12C196.849 138.141 196.231 137.587 196.21 136.863C196.189 136.139 196.743 135.522 197.467 135.501C198.191 135.479 198.809 136.033 198.83 136.757C198.852 137.481 198.298 138.099 197.573 138.12Z" fill="#777777"/>
<path d="M261.866 137.993C261.142 138.014 260.524 137.461 260.503 136.737C260.482 136.012 261.036 135.395 261.76 135.374C262.484 135.352 263.102 135.906 263.123 136.63C263.145 137.354 262.591 137.972 261.866 137.993Z" fill="#777777"/>
<path d="M305.729 124.491C305.005 124.512 304.387 123.959 304.366 123.235C304.345 122.511 304.898 121.893 305.623 121.872C306.347 121.85 306.965 122.404 306.986 123.128C307.007 123.852 306.454 124.47 305.729 124.491Z" fill="#777777"/>
<path d="M320.79 159.927C320.066 159.948 319.448 159.394 319.427 158.67C319.406 157.946 319.959 157.329 320.684 157.307C321.408 157.286 322.026 157.84 322.047 158.564C322.068 159.288 321.515 159.905 320.79 159.927Z" fill="#777777"/>
<path d="M233.916 101.962C233.192 101.983 232.574 101.429 232.553 100.705C232.532 99.9812 233.085 99.3637 233.81 99.3424C234.534 99.3211 235.152 99.8748 235.173 100.599C235.194 101.323 234.641 101.94 233.916 101.962Z" fill="#777777"/>
<path d="M89.0559 135.394C88.3316 135.416 87.7138 134.862 87.6925 134.138C87.6712 133.414 88.2251 132.796 88.9494 132.775C89.6737 132.754 90.2915 133.307 90.3128 134.031C90.3341 134.755 89.7802 135.373 89.0559 135.394Z" fill="#777777"/>
<path d="M192.461 83.3494C191.737 83.3707 191.119 82.817 191.098 82.093C191.076 81.3689 191.63 80.7514 192.355 80.7301C193.079 80.7088 193.697 81.2625 193.718 81.9865C193.739 82.7105 193.185 83.3281 192.461 83.3494Z" fill="#777777"/>
<path d="M166.578 103.366C165.854 103.387 165.236 102.834 165.214 102.11C165.193 101.386 165.747 100.768 166.471 100.747C167.196 100.725 167.813 101.279 167.835 102.003C167.856 102.727 167.302 103.345 166.578 103.366Z" fill="#777777"/>
<path d="M143.613 175.769C142.889 175.791 142.271 175.237 142.25 174.513C142.228 173.789 142.782 173.171 143.507 173.15C144.231 173.129 144.849 173.682 144.87 174.406C144.891 175.13 144.337 175.748 143.613 175.769Z" fill="#777777"/>
<path d="M391.091 209.266C390.366 209.288 389.748 208.734 389.727 208.01C389.706 207.286 390.26 206.668 390.984 206.647C391.708 206.626 392.326 207.179 392.347 207.903C392.369 208.628 391.815 209.245 391.091 209.266Z" fill="#777777"/>
<path d="M280.08 122.17C279.356 122.191 278.738 121.637 278.717 120.913C278.696 120.189 279.249 119.572 279.974 119.55C280.698 119.529 281.316 120.083 281.337 120.807C281.358 121.531 280.805 122.148 280.08 122.17Z" fill="#777777"/>
<path d="M231.957 128.942C231.232 128.963 230.615 128.41 230.593 127.686C230.572 126.962 231.126 126.344 231.85 126.323C232.575 126.302 233.192 126.855 233.214 127.579C233.235 128.303 232.681 128.921 231.957 128.942Z" fill="#777777"/>
<path d="M502.846 278.304C502.122 278.326 501.504 277.772 501.483 277.048C501.462 276.324 502.016 275.706 502.74 275.685C503.464 275.664 504.082 276.218 504.103 276.942C504.125 277.666 503.571 278.283 502.846 278.304Z" fill="#777777"/>
<path d="M347.419 153.367C346.695 153.388 346.077 152.835 346.056 152.111C346.034 151.387 346.588 150.769 347.313 150.748C348.037 150.726 348.655 151.28 348.676 152.004C348.697 152.728 348.143 153.346 347.419 153.367Z" fill="#777777"/>
<path d="M273.306 127.899C272.582 127.92 271.964 127.367 271.942 126.643C271.921 125.919 272.475 125.301 273.199 125.28C273.924 125.259 274.541 125.812 274.563 126.536C274.584 127.26 274.03 127.878 273.306 127.899Z" fill="#777777"/>
<path d="M278.227 114.44C277.502 114.461 276.885 113.908 276.863 113.184C276.842 112.46 277.396 111.842 278.12 111.821C278.845 111.8 279.462 112.353 279.484 113.077C279.505 113.801 278.951 114.419 278.227 114.44Z" fill="#777777"/>
<path d="M251.087 103.878C250.363 103.899 249.745 103.345 249.724 102.621C249.702 101.897 250.256 101.28 250.981 101.258C251.705 101.237 252.323 101.791 252.344 102.515C252.365 103.239 251.811 103.856 251.087 103.878Z" fill="#777777"/>
<path d="M295.93 52.7048C295.206 52.7261 294.588 52.1725 294.567 51.4484C294.545 50.7244 295.099 50.1069 295.823 50.0856C296.548 50.0643 297.165 50.6179 297.187 51.342C297.208 52.066 296.654 52.6835 295.93 52.7048Z" fill="#777777"/>
<path d="M320.428 45.1677C319.704 45.189 319.086 44.6354 319.065 43.9113C319.043 43.1873 319.597 42.5697 320.321 42.5484C321.046 42.5272 321.664 43.0808 321.685 43.8048C321.706 44.5289 321.152 45.1464 320.428 45.1677Z" fill="#777777"/>
<path d="M279.803 82.4763C279.079 82.4976 278.461 81.9439 278.44 81.2199C278.419 80.4959 278.973 79.8783 279.697 79.857C280.421 79.8357 281.039 80.3894 281.06 81.1134C281.082 81.8375 280.528 82.455 279.803 82.4763Z" fill="#777777"/>
<path d="M306.901 236.545C306.177 236.566 305.559 236.012 305.538 235.288C305.516 234.564 306.07 233.947 306.795 233.925C307.519 233.904 308.137 234.458 308.158 235.182C308.179 235.906 307.625 236.523 306.901 236.545Z" fill="#777777"/>
<path d="M333.764 252.729C333.04 252.751 332.422 252.197 332.4 251.473C332.379 250.749 332.933 250.131 333.657 250.11C334.382 250.089 334.999 250.642 335.021 251.366C335.042 252.09 334.488 252.708 333.764 252.729Z" fill="#777777"/>
<path d="M355.152 295.234C354.428 295.255 353.81 294.702 353.789 293.978C353.768 293.254 354.322 292.636 355.046 292.615C355.77 292.594 356.388 293.147 356.409 293.871C356.431 294.595 355.877 295.213 355.152 295.234Z" fill="#777777"/>
<path d="M233.363 236.268C232.638 236.29 232.02 235.736 231.999 235.012C231.978 234.288 232.532 233.67 233.256 233.649C233.98 233.628 234.598 234.181 234.619 234.905C234.641 235.629 234.087 236.247 233.363 236.268Z" fill="#777777"/>
<path d="M338.599 178.24C337.875 178.261 337.257 177.708 337.236 176.984C337.215 176.26 337.769 175.642 338.493 175.621C339.217 175.599 339.835 176.153 339.856 176.877C339.878 177.601 339.324 178.219 338.599 178.24Z" fill="#777777"/>
<path d="M320.79 193.657C320.066 193.678 319.448 193.125 319.427 192.401C319.406 191.677 319.959 191.059 320.684 191.038C321.408 191.016 322.026 191.57 322.047 192.294C322.068 193.018 321.515 193.636 320.79 193.657Z" fill="#777777"/>
<path d="M333.977 205.839C333.253 205.86 332.635 205.306 332.613 204.582C332.592 203.858 333.146 203.241 333.87 203.219C334.595 203.198 335.212 203.752 335.234 204.476C335.255 205.2 334.701 205.817 333.977 205.839Z" fill="#777777"/>
<path d="M363.226 227.899C362.502 227.92 361.884 227.367 361.863 226.643C361.841 225.919 362.395 225.301 363.12 225.28C363.844 225.259 364.462 225.812 364.483 226.536C364.504 227.26 363.95 227.878 363.226 227.899Z" fill="#777777"/>
<path d="M481.33 57.3904C480.606 57.4117 479.988 56.858 479.967 56.134C479.946 55.41 480.499 54.7924 481.224 54.7711C481.948 54.7498 482.566 55.3035 482.587 56.0275C482.608 56.7515 482.055 57.3691 481.33 57.3904Z" fill="#777777"/>
<path d="M450.547 105.219C449.823 105.241 449.205 104.687 449.184 103.963C449.163 103.239 449.717 102.621 450.441 102.6C451.165 102.579 451.783 103.133 451.804 103.857C451.826 104.581 451.272 105.198 450.547 105.219Z" fill="#777777"/>
<path d="M163.723 30.282C162.999 30.3033 162.381 29.7496 162.359 29.0256C162.338 28.3016 162.892 27.684 163.616 27.6627C164.341 27.6414 164.958 28.1951 164.98 28.9191C165.001 29.6431 164.447 30.2607 163.723 30.282Z" fill="#777777"/>
<path d="M49.219 31.3679C48.4947 31.3892 47.8769 30.8355 47.8556 30.1115C47.8343 29.3875 48.3882 28.7699 49.1125 28.7486C49.8368 28.7273 50.4546 29.281 50.4759 30.005C50.4972 30.7291 49.9433 31.3466 49.219 31.3679Z" fill="#777777"/>
<path d="M64.7916 119.573C64.5573 119.317 64.5999 118.913 64.8555 118.678C65.1112 118.444 65.516 118.487 65.7503 118.742C65.9846 118.998 65.942 119.402 65.6864 119.637C65.4307 119.871 65.026 119.828 64.7916 119.573Z" fill="#777777"/>
<path d="M76.7213 161.609C76.487 161.353 76.5296 160.949 76.7852 160.714C77.0409 160.48 77.4456 160.523 77.68 160.778C77.9143 161.034 77.8717 161.438 77.6161 161.673C77.3604 161.907 76.9557 161.864 76.7213 161.609Z" fill="#777777"/>
<path d="M85.2848 125.386C85.0505 125.131 85.0931 124.726 85.3487 124.492C85.6043 124.258 86.0091 124.3 86.2434 124.556C86.4778 124.811 86.4352 125.216 86.1795 125.45C85.9239 125.684 85.5191 125.642 85.2848 125.386Z" fill="#777777"/>
<path d="M66.2614 169.424C66.027 169.169 66.0696 168.764 66.3253 168.53C66.5809 168.296 66.9857 168.338 67.22 168.594C67.4543 168.849 67.4117 169.254 67.1561 169.488C66.9005 169.722 66.4957 169.68 66.2614 169.424Z" fill="#777777"/>
<path d="M53.7995 138.248C53.5651 137.993 53.6077 137.588 53.8634 137.354C54.119 137.12 54.5238 137.162 54.7581 137.418C54.9924 137.674 54.9498 138.078 54.6942 138.312C54.4385 138.547 54.0338 138.504 53.7995 138.248Z" fill="#777777"/>
<path d="M51.0084 183.245C50.7741 182.989 50.8167 182.584 51.0723 182.35C51.328 182.116 51.7327 182.159 51.9671 182.414C52.2014 182.67 52.1588 183.074 51.9032 183.308C51.6475 183.543 51.2428 183.5 51.0084 183.245Z" fill="#777777"/>
<path d="M72.9508 229.817C72.7165 229.561 72.7591 229.157 73.0147 228.922C73.2704 228.688 73.6751 228.731 73.9095 228.986C74.1438 229.242 74.1012 229.646 73.8455 229.881C73.5899 230.115 73.1852 230.072 72.9508 229.817Z" fill="#777777"/>
<path d="M45.1715 200.365C44.9372 200.109 44.9798 199.705 45.2354 199.47C45.4911 199.236 45.8958 199.279 46.1302 199.534C46.3645 199.79 46.3219 200.194 46.0662 200.429C45.8106 200.663 45.4059 200.62 45.1715 200.365Z" fill="#777777"/>
<path d="M28.6618 190.592C28.4274 190.337 28.47 189.932 28.7257 189.698C28.9813 189.464 29.3861 189.506 29.6204 189.762C29.8547 190.017 29.8121 190.422 29.5565 190.656C29.3008 190.89 28.8961 190.848 28.6618 190.592Z" fill="#777777"/>
<path d="M86.4567 185.97C86.2223 185.715 86.265 185.31 86.5206 185.076C86.7762 184.842 87.181 184.884 87.4153 185.14C87.6497 185.395 87.607 185.8 87.3514 186.034C87.0958 186.268 86.691 186.226 86.4567 185.97Z" fill="#777777"/>
<path d="M200.812 188.355C200.577 188.099 200.62 187.695 200.876 187.461C201.131 187.226 201.536 187.269 201.77 187.524C202.005 187.78 201.962 188.185 201.706 188.419C201.451 188.653 201.046 188.61 200.812 188.355Z" fill="#777777"/>
<path d="M368.488 161.055C368.254 160.8 368.296 160.395 368.552 160.161C368.807 159.926 369.212 159.969 369.447 160.225C369.681 160.48 369.638 160.885 369.383 161.119C369.127 161.353 368.722 161.311 368.488 161.055Z" fill="#777777"/>
<path d="M376.476 151.962C376.242 151.707 376.284 151.302 376.54 151.068C376.796 150.834 377.201 150.876 377.435 151.132C377.669 151.387 377.627 151.792 377.371 152.026C377.115 152.26 376.711 152.218 376.476 151.962Z" fill="#777777"/>
<path d="M409.539 86.4799C409.304 86.2244 409.347 85.8198 409.603 85.5855C409.858 85.3513 410.263 85.3939 410.497 85.6494C410.732 85.905 410.689 86.3096 410.433 86.5438C410.178 86.778 409.773 86.7355 409.539 86.4799Z" fill="#777777"/>
<path d="M377.009 124.854C376.775 124.598 376.817 124.194 377.073 123.96C377.328 123.725 377.733 123.768 377.968 124.023C378.202 124.279 378.159 124.684 377.904 124.918C377.648 125.152 377.243 125.109 377.009 124.854Z" fill="#777777"/>
<path d="M339.601 121.766C339.366 121.511 339.409 121.106 339.665 120.872C339.92 120.637 340.325 120.68 340.559 120.936C340.794 121.191 340.751 121.596 340.495 121.83C340.24 122.064 339.835 122.022 339.601 121.766Z" fill="#777777"/>
<path d="M367.124 154.581C366.89 154.326 366.932 153.921 367.188 153.687C367.444 153.453 367.848 153.495 368.083 153.751C368.317 154.007 368.275 154.411 368.019 154.645C367.763 154.88 367.358 154.837 367.124 154.581Z" fill="#777777"/>
<path d="M416.824 122.873C416.59 122.618 416.632 122.213 416.888 121.979C417.144 121.745 417.548 121.787 417.783 122.043C418.017 122.299 417.974 122.703 417.719 122.937C417.463 123.172 417.058 123.129 416.824 122.873Z" fill="#777777"/>
<path d="M435.273 142.763C435.038 142.508 435.081 142.103 435.337 141.869C435.592 141.634 435.997 141.677 436.231 141.933C436.466 142.188 436.423 142.593 436.167 142.827C435.912 143.061 435.507 143.019 435.273 142.763Z" fill="#777777"/>
<path d="M440.747 153.602C440.513 153.346 440.556 152.942 440.811 152.708C441.067 152.473 441.472 152.516 441.706 152.771C441.94 153.027 441.898 153.432 441.642 153.666C441.387 153.9 440.982 153.858 440.747 153.602Z" fill="#777777"/>
<path d="M304.706 222.619C304.472 222.363 304.514 221.958 304.77 221.724C305.026 221.49 305.43 221.533 305.665 221.788C305.899 222.044 305.857 222.448 305.601 222.682C305.345 222.917 304.941 222.874 304.706 222.619Z" fill="#777777"/>
<path d="M381.397 228.623C381.163 228.368 381.205 227.963 381.461 227.729C381.717 227.495 382.121 227.537 382.356 227.793C382.59 228.049 382.547 228.453 382.292 228.687C382.036 228.922 381.631 228.879 381.397 228.623Z" fill="#777777"/>
<path d="M262.484 225.941C262.249 225.685 262.292 225.281 262.547 225.046C262.803 224.812 263.208 224.855 263.442 225.11C263.677 225.366 263.634 225.77 263.378 226.005C263.123 226.239 262.718 226.196 262.484 225.941Z" fill="#777777"/>
<path d="M235.45 228.432C235.216 228.177 235.259 227.772 235.514 227.538C235.77 227.303 236.175 227.346 236.409 227.602C236.643 227.857 236.601 228.262 236.345 228.496C236.089 228.73 235.685 228.688 235.45 228.432Z" fill="#777777"/>
<path d="M295.951 258.905C295.716 258.649 295.759 258.245 296.015 258.01C296.27 257.776 296.675 257.819 296.909 258.074C297.144 258.33 297.101 258.734 296.846 258.969C296.59 259.203 296.185 259.16 295.951 258.905Z" fill="#777777"/>
<path d="M293.437 247.534C293.203 247.278 293.245 246.873 293.501 246.639C293.757 246.405 294.161 246.448 294.396 246.703C294.63 246.959 294.588 247.363 294.332 247.598C294.076 247.832 293.671 247.789 293.437 247.534Z" fill="#777777"/>
<path d="M322.579 252.921C322.345 252.666 322.388 252.261 322.643 252.027C322.899 251.793 323.304 251.835 323.538 252.091C323.772 252.346 323.73 252.751 323.474 252.985C323.218 253.219 322.814 253.177 322.579 252.921Z" fill="#777777"/>
<path d="M327.053 259.8C326.819 259.545 326.862 259.14 327.117 258.906C327.373 258.672 327.778 258.714 328.012 258.97C328.246 259.225 328.204 259.63 327.948 259.864C327.692 260.098 327.288 260.056 327.053 259.8Z" fill="#777777"/>
<path d="M337.556 269.937C337.321 269.681 337.364 269.277 337.62 269.043C337.875 268.808 338.28 268.851 338.514 269.106C338.749 269.362 338.706 269.767 338.451 270.001C338.195 270.235 337.79 270.192 337.556 269.937Z" fill="#777777"/>
<path d="M345.63 241.06C345.395 240.804 345.438 240.4 345.693 240.166C345.949 239.931 346.354 239.974 346.588 240.229C346.823 240.485 346.78 240.89 346.524 241.124C346.269 241.358 345.864 241.316 345.63 241.06Z" fill="#777777"/>
<path d="M380.971 232.947C380.737 232.691 380.78 232.287 381.035 232.052C381.291 231.818 381.696 231.861 381.93 232.116C382.164 232.372 382.122 232.776 381.866 233.011C381.61 233.245 381.206 233.202 380.971 232.947Z" fill="#777777"/>
<path d="M389.94 236.354C389.706 236.098 389.748 235.694 390.004 235.46C390.259 235.225 390.664 235.268 390.898 235.523C391.133 235.779 391.09 236.184 390.835 236.418C390.579 236.652 390.174 236.609 389.94 236.354Z" fill="#777777"/>
<path d="M388.683 168.743C388.449 168.487 388.491 168.082 388.747 167.848C389.003 167.614 389.407 167.657 389.642 167.912C389.876 168.168 389.833 168.572 389.578 168.806C389.322 169.041 388.917 168.998 388.683 168.743Z" fill="#777777"/>
<path d="M434.08 176.515C433.845 176.26 433.888 175.855 434.144 175.621C434.399 175.386 434.804 175.429 435.038 175.685C435.273 175.94 435.23 176.345 434.974 176.579C434.719 176.813 434.314 176.771 434.08 176.515Z" fill="#777777"/>
<path d="M438.702 176.196C438.468 175.94 438.511 175.536 438.766 175.301C439.022 175.067 439.427 175.11 439.661 175.365C439.895 175.621 439.853 176.025 439.597 176.26C439.341 176.494 438.937 176.451 438.702 176.196Z" fill="#777777"/>
<path d="M443.922 177.857C443.687 177.601 443.73 177.197 443.986 176.962C444.241 176.728 444.646 176.771 444.88 177.026C445.115 177.282 445.072 177.687 444.817 177.921C444.561 178.155 444.156 178.112 443.922 177.857Z" fill="#777777"/>
<path d="M348.633 178.815C348.399 178.559 348.442 178.155 348.697 177.92C348.953 177.686 349.358 177.729 349.592 177.984C349.826 178.24 349.784 178.645 349.528 178.879C349.273 179.113 348.868 179.07 348.633 178.815Z" fill="#777777"/>
<path d="M407.898 140.164C407.664 139.909 407.707 139.504 407.962 139.27C408.218 139.036 408.623 139.078 408.857 139.334C409.091 139.59 409.049 139.994 408.793 140.228C408.537 140.463 408.133 140.42 407.898 140.164Z" fill="#777777"/>
<path d="M282.317 228.497C282.083 228.241 282.125 227.836 282.381 227.602C282.637 227.368 283.041 227.41 283.276 227.666C283.51 227.922 283.467 228.326 283.212 228.56C282.956 228.795 282.551 228.752 282.317 228.497Z" fill="#777777"/>
<path d="M249.851 207.989C249.617 207.733 249.659 207.329 249.915 207.094C250.171 206.86 250.576 206.903 250.81 207.158C251.044 207.414 251.002 207.818 250.746 208.053C250.49 208.287 250.086 208.244 249.851 207.989Z" fill="#777777"/>
<path d="M223.414 202.133C223.18 201.878 223.222 201.473 223.478 201.239C223.734 201.005 224.138 201.047 224.373 201.303C224.607 201.558 224.565 201.963 224.309 202.197C224.053 202.431 223.649 202.389 223.414 202.133Z" fill="#777777"/>
<path d="M288.708 175.408C288.474 175.152 288.516 174.748 288.772 174.513C289.028 174.279 289.432 174.322 289.667 174.577C289.901 174.833 289.859 175.237 289.603 175.472C289.347 175.706 288.942 175.663 288.708 175.408Z" fill="#777777"/>
<path d="M276.416 156.115C276.182 155.859 276.224 155.455 276.48 155.22C276.736 154.986 277.14 155.029 277.375 155.284C277.609 155.54 277.567 155.944 277.311 156.179C277.055 156.413 276.65 156.37 276.416 156.115Z" fill="#777777"/>
<path d="M292.5 144.423C292.265 144.168 292.308 143.763 292.564 143.529C292.819 143.295 293.224 143.337 293.458 143.593C293.693 143.848 293.65 144.253 293.394 144.487C293.139 144.721 292.734 144.679 292.5 144.423Z" fill="#777777"/>
<path d="M299.977 98.1284C299.743 97.8728 299.785 97.4682 300.041 97.234C300.297 96.9997 300.701 97.0423 300.936 97.2978C301.17 97.5534 301.128 97.958 300.872 98.1922C300.616 98.4265 300.212 98.3839 299.977 98.1284Z" fill="#777777"/>
<path d="M268.065 130.39C267.831 130.135 267.873 129.73 268.129 129.496C268.385 129.261 268.789 129.304 269.024 129.56C269.258 129.815 269.215 130.22 268.96 130.454C268.704 130.688 268.299 130.646 268.065 130.39Z" fill="#777777"/>
<path d="M224.629 44.9555C224.394 44.7 224.437 44.2954 224.692 44.0611C224.948 43.8269 225.353 43.8695 225.587 44.125C225.822 44.3805 225.779 44.7851 225.523 45.0194C225.268 45.2536 224.863 45.211 224.629 44.9555Z" fill="#777777"/>
<path d="M232.745 178.559C232.51 178.303 232.553 177.899 232.809 177.665C233.064 177.43 233.469 177.473 233.703 177.729C233.938 177.984 233.895 178.389 233.639 178.623C233.384 178.857 232.979 178.815 232.745 178.559Z" fill="#777777"/>
<path d="M203.432 127.814C203.197 127.558 203.24 127.154 203.496 126.92C203.751 126.685 204.156 126.728 204.39 126.983C204.625 127.239 204.582 127.644 204.327 127.878C204.071 128.112 203.666 128.069 203.432 127.814Z" fill="#777777"/>
<path d="M225.906 229.157C225.672 228.901 225.715 228.497 225.97 228.262C226.226 228.028 226.631 228.071 226.865 228.326C227.099 228.582 227.057 228.986 226.801 229.221C226.545 229.455 226.141 229.412 225.906 229.157Z" fill="#777777"/>
<path d="M189.351 237.568C189.116 237.312 189.159 236.908 189.415 236.673C189.67 236.439 190.075 236.482 190.309 236.737C190.544 236.993 190.501 237.397 190.245 237.632C189.99 237.866 189.585 237.823 189.351 237.568Z" fill="#777777"/>
<path d="M214.36 249.003C214.126 248.748 214.169 248.343 214.424 248.109C214.68 247.875 215.085 247.917 215.319 248.173C215.553 248.428 215.511 248.833 215.255 249.067C215 249.301 214.595 249.259 214.36 249.003Z" fill="#777777"/>
<path d="M147.596 224.6C147.362 224.344 147.405 223.94 147.66 223.706C147.916 223.471 148.321 223.514 148.555 223.77C148.789 224.025 148.747 224.43 148.491 224.664C148.235 224.898 147.831 224.856 147.596 224.6Z" fill="#777777"/>
<path d="M143.677 185.992C143.443 185.736 143.485 185.331 143.741 185.097C143.996 184.863 144.401 184.906 144.636 185.161C144.87 185.417 144.827 185.821 144.572 186.056C144.316 186.29 143.911 186.247 143.677 185.992Z" fill="#777777"/>
<path d="M173.011 111.14C172.777 110.885 172.82 110.48 173.075 110.246C173.331 110.011 173.736 110.054 173.97 110.31C174.204 110.565 174.162 110.97 173.906 111.204C173.65 111.438 173.246 111.396 173.011 111.14Z" fill="#777777"/>
<path d="M163.979 115.612C163.744 115.356 163.787 114.952 164.043 114.717C164.298 114.483 164.703 114.526 164.937 114.781C165.172 115.037 165.129 115.441 164.873 115.676C164.618 115.91 164.213 115.867 163.979 115.612Z" fill="#777777"/>
<path d="M90.3126 146.489C90.0783 146.233 90.1209 145.829 90.3765 145.594C90.6322 145.36 91.0369 145.403 91.2713 145.658C91.5056 145.914 91.463 146.318 91.2074 146.553C90.9517 146.787 90.547 146.744 90.3126 146.489Z" fill="#777777"/>
<path d="M65.9205 150.578C65.6862 150.322 65.7288 149.917 65.9845 149.683C66.2401 149.449 66.6449 149.492 66.8792 149.747C67.1135 150.003 67.0709 150.407 66.8153 150.641C66.5597 150.876 66.1549 150.833 65.9205 150.578Z" fill="#777777"/>
<path d="M73.6964 123.831C73.4621 123.576 73.5047 123.171 73.7603 122.937C74.016 122.703 74.4207 122.745 74.6551 123.001C74.8894 123.257 74.8468 123.661 74.5911 123.895C74.3355 124.13 73.9308 124.087 73.6964 123.831Z" fill="#777777"/>
<path d="M95.4679 79.8783C95.2336 79.6228 95.2762 79.2182 95.5318 78.984C95.7875 78.7497 96.1922 78.7923 96.4265 79.0478C96.6609 79.3034 96.6183 79.708 96.3626 79.9422C96.107 80.1765 95.7022 80.1339 95.4679 79.8783Z" fill="#777777"/>
<path d="M77.9782 166.741C77.7438 166.485 77.7864 166.081 78.0421 165.846C78.2977 165.612 78.7025 165.655 78.9368 165.91C79.1711 166.166 79.1285 166.57 78.8729 166.805C78.6173 167.039 78.2125 166.996 77.9782 166.741Z" fill="#777777"/>
<path d="M29.3644 158.457C29.1301 158.202 29.1727 157.797 29.4283 157.563C29.6839 157.329 30.0887 157.371 30.323 157.627C30.5574 157.882 30.5148 158.287 30.2591 158.521C30.0035 158.756 29.5987 158.713 29.3644 158.457Z" fill="#777777"/>
<path d="M64.0245 199.621C63.7902 199.365 63.8328 198.96 64.0885 198.726C64.3441 198.492 64.7489 198.534 64.9832 198.79C65.2175 199.046 65.1749 199.45 64.9193 199.684C64.6636 199.919 64.2589 199.876 64.0245 199.621Z" fill="#777777"/>
<path d="M82.8351 235.289C82.6008 235.034 82.6434 234.629 82.899 234.395C83.1546 234.161 83.5594 234.203 83.7937 234.459C84.0281 234.715 83.9855 235.119 83.7298 235.353C83.4742 235.588 83.0694 235.545 82.8351 235.289Z" fill="#777777"/>
<path d="M100.282 253.134C100.048 252.879 100.091 252.474 100.346 252.24C100.602 252.006 101.007 252.048 101.241 252.304C101.475 252.559 101.433 252.964 101.177 253.198C100.921 253.432 100.517 253.39 100.282 253.134Z" fill="#777777"/>
<path d="M79.3844 111.885C79.1501 111.63 79.1927 111.225 79.4483 110.991C79.704 110.757 80.1087 110.799 80.3431 111.055C80.5774 111.31 80.5348 111.715 80.2792 111.949C80.0235 112.183 79.6187 112.141 79.3844 111.885Z" fill="#777777"/>
<path d="M83.4957 78.9633C83.2614 78.7078 83.304 78.3032 83.5596 78.0689C83.8153 77.8347 84.2201 77.8773 84.4544 78.1328C84.6887 78.3883 84.6461 78.793 84.3905 79.0272C84.1348 79.2614 83.7301 79.2189 83.4957 78.9633Z" fill="#777777"/>
<path d="M43.1691 136.459C42.9347 136.204 42.9774 135.799 43.233 135.565C43.4886 135.331 43.8934 135.373 44.1277 135.629C44.362 135.884 44.3194 136.289 44.0638 136.523C43.8082 136.758 43.4034 136.715 43.1691 136.459Z" fill="#777777"/>
<path d="M45.9171 141.761C45.6828 141.506 45.7254 141.101 45.981 140.867C46.2367 140.633 46.6414 140.675 46.8758 140.931C47.1101 141.186 47.0675 141.591 46.8119 141.825C46.5562 142.059 46.1515 142.017 45.9171 141.761Z" fill="#777777"/>
<path d="M177.868 173.939C177.634 173.683 177.677 173.279 177.932 173.045C178.188 172.81 178.593 172.853 178.827 173.108C179.061 173.364 179.019 173.769 178.763 174.003C178.507 174.237 178.103 174.194 177.868 173.939Z" fill="#777777"/>
<path d="M181.596 231.52C181.362 231.264 181.404 230.86 181.66 230.626C181.915 230.391 182.32 230.434 182.554 230.689C182.789 230.945 182.746 231.35 182.491 231.584C182.235 231.818 181.83 231.775 181.596 231.52Z" fill="#777777"/>
<path d="M215.468 220.979C215.234 220.723 215.276 220.319 215.532 220.085C215.787 219.85 216.192 219.893 216.427 220.148C216.661 220.404 216.618 220.809 216.363 221.043C216.107 221.277 215.702 221.234 215.468 220.979Z" fill="#777777"/>
<path d="M293.863 224.472C293.629 224.217 293.671 223.812 293.927 223.578C294.182 223.343 294.587 223.386 294.822 223.642C295.056 223.897 295.013 224.302 294.758 224.536C294.502 224.77 294.097 224.728 293.863 224.472Z" fill="#777777"/>
<path d="M238.454 72.7241C238.219 72.4685 238.262 72.0639 238.518 71.8297C238.773 71.5954 239.178 71.638 239.412 71.8936C239.647 72.1491 239.604 72.5537 239.348 72.7879C239.093 73.0222 238.688 72.9796 238.454 72.7241Z" fill="#777777"/>
<path d="M276.032 60.9897C275.798 60.7341 275.841 60.3295 276.096 60.0953C276.352 59.861 276.757 59.9036 276.991 60.1592C277.225 60.4147 277.183 60.8193 276.927 61.0536C276.671 61.2878 276.267 61.2452 276.032 60.9897Z" fill="#777777"/>
<path d="M289.453 11.5219C289.219 11.2664 289.262 10.8618 289.517 10.6275C289.773 10.3933 290.178 10.4359 290.412 10.6914C290.646 10.9469 290.604 11.3515 290.348 11.5858C290.092 11.82 289.688 11.7774 289.453 11.5219Z" fill="#777777"/>
<path d="M311.076 30.9428C310.841 30.6873 310.884 30.2827 311.14 30.0484C311.395 29.8142 311.8 29.8568 312.034 30.1123C312.269 30.3678 312.226 30.7724 311.971 31.0067C311.715 31.2409 311.31 31.1983 311.076 30.9428Z" fill="#777777"/>
<path d="M327.714 23.8305C327.479 23.575 327.522 23.1704 327.777 22.9361C328.033 22.7019 328.438 22.7445 328.672 23C328.906 23.2555 328.864 23.6601 328.608 23.8944C328.353 24.1286 327.948 24.086 327.714 23.8305Z" fill="#777777"/>
<path d="M182.96 215.89C182.725 215.635 182.768 215.23 183.024 214.996C183.279 214.761 183.684 214.804 183.918 215.06C184.153 215.315 184.11 215.72 183.854 215.954C183.599 216.188 183.194 216.146 182.96 215.89Z" fill="#777777"/>
<path d="M174.928 310.311C174.694 310.055 174.737 309.651 174.992 309.417C175.248 309.182 175.653 309.225 175.887 309.48C176.121 309.736 176.079 310.141 175.823 310.375C175.567 310.609 175.163 310.567 174.928 310.311Z" fill="#777777"/>
<path d="M211.016 340.827C210.781 340.571 210.824 340.166 211.08 339.932C211.335 339.698 211.74 339.741 211.974 339.996C212.209 340.252 212.166 340.656 211.91 340.89C211.655 341.125 211.25 341.082 211.016 340.827Z" fill="#777777"/>
<path d="M208.118 345.022C207.884 344.766 207.927 344.362 208.182 344.128C208.438 343.893 208.843 343.936 209.077 344.191C209.311 344.447 209.269 344.852 209.013 345.086C208.757 345.32 208.353 345.277 208.118 345.022Z" fill="#777777"/>
<path d="M142.036 336.291C141.802 336.036 141.845 335.631 142.1 335.397C142.356 335.163 142.761 335.205 142.995 335.461C143.229 335.716 143.187 336.121 142.931 336.355C142.675 336.59 142.271 336.547 142.036 336.291Z" fill="#777777"/>
<path d="M148.087 328.625C147.852 328.37 147.895 327.965 148.15 327.731C148.406 327.497 148.811 327.539 149.045 327.795C149.28 328.05 149.237 328.455 148.981 328.689C148.726 328.924 148.321 328.881 148.087 328.625Z" fill="#777777"/>
<path d="M177.868 359.077C177.634 358.821 177.677 358.416 177.932 358.182C178.188 357.948 178.593 357.991 178.827 358.246C179.061 358.502 179.019 358.906 178.763 359.14C178.507 359.375 178.103 359.332 177.868 359.077Z" fill="#777777"/>
<path d="M178.848 363.783C178.613 363.527 178.656 363.123 178.912 362.888C179.167 362.654 179.572 362.697 179.806 362.952C180.041 363.208 179.998 363.612 179.743 363.847C179.487 364.081 179.082 364.038 178.848 363.783Z" fill="#777777"/>
<path d="M183.726 354.882C183.492 354.627 183.534 354.222 183.79 353.988C184.046 353.754 184.451 353.796 184.685 354.052C184.919 354.307 184.877 354.712 184.621 354.946C184.365 355.18 183.961 355.138 183.726 354.882Z" fill="#777777"/>
<path d="M338.664 232.925C338.429 232.67 338.472 232.265 338.728 232.031C338.983 231.797 339.388 231.839 339.622 232.095C339.857 232.35 339.814 232.755 339.558 232.989C339.303 233.223 338.898 233.181 338.664 232.925Z" fill="#777777"/>
<path d="M333.891 251.133C333.657 250.878 333.7 250.473 333.955 250.239C334.211 250.005 334.616 250.047 334.85 250.303C335.084 250.558 335.042 250.963 334.786 251.197C334.53 251.431 334.126 251.389 333.891 251.133Z" fill="#777777"/>
<path d="M312.759 285.865C312.525 285.609 312.567 285.205 312.823 284.97C313.078 284.736 313.483 284.779 313.718 285.034C313.952 285.29 313.909 285.694 313.654 285.929C313.398 286.163 312.993 286.12 312.759 285.865Z" fill="#777777"/>
<path d="M305.857 242.721C305.623 242.466 305.665 242.061 305.921 241.827C306.177 241.592 306.581 241.635 306.816 241.891C307.05 242.146 307.007 242.551 306.752 242.785C306.496 243.019 306.091 242.977 305.857 242.721Z" fill="#777777"/>
<path d="M322.132 229.22C321.898 228.965 321.941 228.56 322.196 228.326C322.452 228.092 322.857 228.134 323.091 228.39C323.325 228.645 323.283 229.05 323.027 229.284C322.772 229.518 322.367 229.476 322.132 229.22Z" fill="#777777"/>
<path d="M432.184 182.35C431.949 182.094 431.992 181.69 432.248 181.456C432.503 181.221 432.908 181.264 433.142 181.52C433.377 181.775 433.334 182.18 433.078 182.414C432.823 182.648 432.418 182.606 432.184 182.35Z" fill="#777777"/>
<path d="M408.41 183.713C408.175 183.458 408.218 183.053 408.473 182.819C408.729 182.585 409.134 182.627 409.368 182.883C409.603 183.138 409.56 183.543 409.304 183.777C409.049 184.011 408.644 183.969 408.41 183.713Z" fill="#777777"/>
<path d="M301.639 165.25C301.404 164.995 301.447 164.59 301.703 164.356C301.958 164.122 302.363 164.164 302.597 164.42C302.832 164.675 302.789 165.08 302.534 165.314C302.278 165.549 301.873 165.506 301.639 165.25Z" fill="#777777"/>
<path d="M237.623 127.153C237.389 126.897 237.431 126.493 237.687 126.258C237.943 126.024 238.347 126.067 238.582 126.322C238.816 126.578 238.774 126.982 238.518 127.217C238.262 127.451 237.858 127.408 237.623 127.153Z" fill="#777777"/>
<path d="M268.151 142.571C267.916 142.315 267.959 141.911 268.214 141.676C268.47 141.442 268.875 141.485 269.109 141.74C269.343 141.996 269.301 142.4 269.045 142.635C268.79 142.869 268.385 142.826 268.151 142.571Z" fill="#777777"/>
<path d="M211.335 68.145C211.101 67.8894 211.143 67.4848 211.399 67.2506C211.655 67.0163 212.059 67.0589 212.294 67.3145C212.528 67.57 212.485 67.9746 212.23 68.2088C211.974 68.4431 211.569 68.4005 211.335 68.145Z" fill="#777777"/>
<path d="M290.604 239.612C290.369 239.356 290.412 238.952 290.668 238.717C290.923 238.483 291.328 238.526 291.562 238.781C291.797 239.037 291.754 239.441 291.498 239.676C291.243 239.91 290.838 239.867 290.604 239.612Z" fill="#777777"/>
<path d="M240.478 140.633C240.244 140.378 240.286 139.973 240.542 139.739C240.798 139.505 241.202 139.547 241.437 139.803C241.671 140.058 241.629 140.463 241.373 140.697C241.117 140.931 240.712 140.889 240.478 140.633Z" fill="#777777"/>
<path d="M398.717 214.718C398.482 214.463 398.525 214.058 398.781 213.824C399.036 213.59 399.441 213.632 399.675 213.888C399.91 214.143 399.867 214.548 399.611 214.782C399.356 215.016 398.951 214.974 398.717 214.718Z" fill="#777777"/>
<path d="M382.25 166.336C382.015 166.081 382.058 165.676 382.314 165.442C382.569 165.208 382.974 165.25 383.208 165.506C383.443 165.761 383.4 166.166 383.144 166.4C382.889 166.634 382.484 166.592 382.25 166.336Z" fill="#777777"/>
<path d="M383.464 170.999C383.229 170.744 383.272 170.339 383.527 170.105C383.783 169.871 384.188 169.913 384.422 170.169C384.656 170.424 384.614 170.829 384.358 171.063C384.103 171.298 383.698 171.255 383.464 170.999Z" fill="#777777"/>
<path d="M42.5514 43.2514C42.3171 42.9959 42.3597 42.5913 42.6153 42.357C42.8709 42.1228 43.2757 42.1654 43.51 42.4209C43.7444 42.6764 43.7018 43.081 43.4461 43.3153C43.1905 43.5495 42.7857 43.5069 42.5514 43.2514Z" fill="#777777"/>
<path d="M325.669 144.807C325.434 144.552 325.477 144.147 325.733 143.913C325.988 143.678 326.393 143.721 326.627 143.977C326.862 144.232 326.819 144.637 326.563 144.871C326.308 145.105 325.903 145.063 325.669 144.807Z" fill="#777777"/>
<path d="M318.063 105.114C317.829 104.858 317.871 104.454 318.127 104.219C318.383 103.985 318.787 104.028 319.022 104.283C319.256 104.539 319.213 104.943 318.958 105.178C318.702 105.412 318.297 105.369 318.063 105.114Z" fill="#777777"/>
<path d="M262.654 86.8002C262.42 86.5447 262.463 86.1401 262.718 85.9058C262.974 85.6716 263.379 85.7142 263.613 85.9697C263.847 86.2253 263.805 86.6299 263.549 86.8641C263.294 87.0984 262.889 87.0558 262.654 86.8002Z" fill="#777777"/>
<path d="M275.926 184.118C275.692 183.862 275.734 183.457 275.99 183.223C276.245 182.989 276.65 183.032 276.885 183.287C277.119 183.543 277.076 183.947 276.821 184.181C276.565 184.416 276.16 184.373 275.926 184.118Z" fill="#777777"/>
<path d="M317.616 187.44C317.382 187.184 317.424 186.78 317.68 186.545C317.935 186.311 318.34 186.354 318.574 186.609C318.809 186.865 318.766 187.27 318.511 187.504C318.255 187.738 317.85 187.695 317.616 187.44Z" fill="#777777"/>
<path d="M128.85 276.538C128.615 276.282 128.658 275.877 128.914 275.643C129.169 275.409 129.574 275.451 129.808 275.707C130.043 275.963 130 276.367 129.744 276.601C129.489 276.836 129.084 276.793 128.85 276.538Z" fill="#777777"/>
<path d="M151.602 313.442C151.367 313.186 151.41 312.782 151.666 312.547C151.921 312.313 152.326 312.356 152.56 312.611C152.795 312.867 152.752 313.271 152.496 313.506C152.241 313.74 151.836 313.697 151.602 313.442Z" fill="#777777"/>
<path d="M116.558 303.646C116.323 303.39 116.366 302.986 116.622 302.752C116.877 302.517 117.282 302.56 117.516 302.815C117.751 303.071 117.708 303.476 117.452 303.71C117.197 303.944 116.792 303.901 116.558 303.646Z" fill="#777777"/>
<path d="M188.797 294.808C188.562 294.552 188.605 294.148 188.86 293.914C189.116 293.679 189.521 293.722 189.755 293.978C189.99 294.233 189.947 294.638 189.691 294.872C189.436 295.106 189.031 295.064 188.797 294.808Z" fill="#777777"/>
<path d="M229.528 255.371C229.294 255.115 229.336 254.71 229.592 254.476C229.848 254.242 230.252 254.284 230.487 254.54C230.721 254.796 230.678 255.2 230.423 255.434C230.167 255.669 229.762 255.626 229.528 255.371Z" fill="#777777"/>
<path d="M252.898 257.712C252.663 257.457 252.706 257.052 252.962 256.818C253.217 256.584 253.622 256.626 253.856 256.882C254.091 257.137 254.048 257.542 253.792 257.776C253.537 258.01 253.132 257.968 252.898 257.712Z" fill="#777777"/>
<path d="M228.803 160.246C228.569 159.99 228.612 159.585 228.867 159.351C229.123 159.117 229.528 159.159 229.762 159.415C229.996 159.671 229.954 160.075 229.698 160.309C229.442 160.544 229.038 160.501 228.803 160.246Z" fill="#777777"/>
<path d="M279.526 185.715C279.292 185.46 279.334 185.055 279.59 184.821C279.846 184.587 280.25 184.629 280.485 184.885C280.719 185.14 280.676 185.545 280.421 185.779C280.165 186.013 279.76 185.971 279.526 185.715Z" fill="#777777"/>
<path d="M266.467 118.487C266.233 118.231 266.276 117.827 266.531 117.592C266.787 117.358 267.192 117.401 267.426 117.656C267.66 117.912 267.618 118.316 267.362 118.551C267.107 118.785 266.702 118.742 266.467 118.487Z" fill="#777777"/>
<path d="M336.128 175.642C335.894 175.386 335.936 174.982 336.192 174.748C336.448 174.513 336.852 174.556 337.087 174.812C337.321 175.067 337.278 175.472 337.023 175.706C336.767 175.94 336.362 175.898 336.128 175.642Z" fill="#777777"/>
<path d="M339.473 175.833C339.238 175.578 339.281 175.173 339.537 174.939C339.792 174.705 340.197 174.747 340.431 175.003C340.666 175.258 340.623 175.663 340.368 175.897C340.112 176.132 339.707 176.089 339.473 175.833Z" fill="#777777"/>
<path d="M359.114 173.151C358.88 172.895 358.922 172.491 359.178 172.256C359.434 172.022 359.838 172.065 360.073 172.32C360.307 172.576 360.265 172.98 360.009 173.215C359.753 173.449 359.348 173.406 359.114 173.151Z" fill="#777777"/>
<path d="M348.484 144.935C348.25 144.679 348.292 144.275 348.548 144.041C348.804 143.806 349.208 143.849 349.443 144.104C349.677 144.36 349.634 144.765 349.379 144.999C349.123 145.233 348.718 145.191 348.484 144.935Z" fill="#777777"/>
<path d="M347.206 189.143C346.971 188.887 347.014 188.483 347.27 188.249C347.525 188.014 347.93 188.057 348.164 188.312C348.399 188.568 348.356 188.973 348.1 189.207C347.845 189.441 347.44 189.399 347.206 189.143Z" fill="#777777"/>
<path d="M375.326 148.151C375.092 147.895 375.134 147.491 375.39 147.256C375.646 147.022 376.05 147.065 376.285 147.32C376.519 147.576 376.476 147.98 376.221 148.215C375.965 148.449 375.56 148.406 375.326 148.151Z" fill="#777777"/>
<path d="M412.5 151.366C412.266 151.11 412.308 150.706 412.564 150.471C412.819 150.237 413.224 150.28 413.459 150.535C413.693 150.791 413.65 151.195 413.395 151.43C413.139 151.664 412.734 151.621 412.5 151.366Z" fill="#777777"/>
<path d="M445.179 159.267C444.944 159.011 444.987 158.607 445.243 158.373C445.498 158.138 445.903 158.181 446.137 158.437C446.372 158.692 446.329 159.097 446.073 159.331C445.818 159.565 445.413 159.523 445.179 159.267Z" fill="#777777"/>
<path d="M450.867 158.649C450.632 158.393 450.675 157.989 450.93 157.754C451.186 157.52 451.591 157.563 451.825 157.818C452.06 158.074 452.017 158.478 451.761 158.713C451.506 158.947 451.101 158.904 450.867 158.649Z" fill="#777777"/>
<path d="M402.53 170.404C402.296 170.148 402.338 169.744 402.594 169.509C402.849 169.275 403.254 169.318 403.489 169.573C403.723 169.829 403.68 170.233 403.425 170.468C403.169 170.702 402.764 170.659 402.53 170.404Z" fill="#777777"/>
<path d="M278.716 139.569C278.482 139.313 278.525 138.909 278.78 138.674C279.036 138.44 279.441 138.483 279.675 138.738C279.909 138.994 279.867 139.398 279.611 139.633C279.356 139.867 278.951 139.824 278.716 139.569Z" fill="#777777"/>
<path d="M216.831 109.84C216.597 109.585 216.639 109.18 216.895 108.946C217.151 108.712 217.555 108.754 217.79 109.01C218.024 109.265 217.982 109.67 217.726 109.904C217.47 110.138 217.066 110.096 216.831 109.84Z" fill="#777777"/>
<path d="M179.849 118.018C179.615 117.762 179.658 117.358 179.913 117.124C180.169 116.889 180.574 116.932 180.808 117.187C181.042 117.443 181 117.848 180.744 118.082C180.488 118.316 180.084 118.274 179.849 118.018Z" fill="#777777"/>
<path d="M150.941 103.942C150.707 103.686 150.749 103.282 151.005 103.047C151.261 102.813 151.665 102.856 151.9 103.111C152.134 103.367 152.091 103.771 151.836 104.006C151.58 104.24 151.175 104.197 150.941 103.942Z" fill="#777777"/>
<path d="M140.311 192.997C140.077 192.742 140.119 192.337 140.375 192.103C140.631 191.869 141.035 191.911 141.27 192.167C141.504 192.423 141.462 192.827 141.206 193.061C140.95 193.296 140.546 193.253 140.311 192.997Z" fill="#777777"/>
<path d="M150.153 155.327C149.919 155.071 149.961 154.666 150.217 154.432C150.473 154.198 150.877 154.241 151.112 154.496C151.346 154.752 151.303 155.156 151.048 155.39C150.792 155.625 150.387 155.582 150.153 155.327Z" fill="#777777"/>
<path d="M174.928 64.0141C174.694 63.7586 174.737 63.354 174.992 63.1197C175.248 62.8855 175.653 62.9281 175.887 63.1836C176.121 63.4391 176.079 63.8437 175.823 64.078C175.567 64.3122 175.163 64.2696 174.928 64.0141Z" fill="#777777"/>
<path d="M189.287 24.5121C189.052 24.2566 189.095 23.852 189.351 23.6178C189.606 23.3835 190.011 23.4261 190.245 23.6816C190.48 23.9372 190.437 24.3418 190.181 24.576C189.926 24.8103 189.521 24.7677 189.287 24.5121Z" fill="#777777"/>
<path d="M231.488 66.1645C231.254 65.9089 231.296 65.5043 231.552 65.2701C231.807 65.0359 232.212 65.0784 232.447 65.334C232.681 65.5895 232.638 65.9941 232.383 66.2284C232.127 66.4626 231.722 66.42 231.488 66.1645Z" fill="#777777"/>
<path d="M225.203 49.6401C224.969 49.3845 225.012 48.9799 225.267 48.7457C225.523 48.5114 225.928 48.554 226.162 48.8096C226.396 49.0651 226.354 49.4697 226.098 49.704C225.842 49.9382 225.438 49.8956 225.203 49.6401Z" fill="#777777"/>
<path d="M171.882 90.4838C171.648 90.2283 171.69 89.8237 171.946 89.5894C172.202 89.3552 172.606 89.3978 172.841 89.6533C173.075 89.9089 173.032 90.3135 172.777 90.5477C172.521 90.782 172.116 90.7394 171.882 90.4838Z" fill="#777777"/>
<path d="M59.2741 200.238C59.0397 199.982 59.0823 199.578 59.338 199.343C59.5936 199.109 59.9984 199.152 60.2327 199.407C60.467 199.663 60.4244 200.067 60.1688 200.302C59.9132 200.536 59.5084 200.493 59.2741 200.238Z" fill="#777777"/>
<path d="M70.799 240.591C70.5646 240.336 70.6072 239.931 70.8629 239.697C71.1185 239.463 71.5233 239.505 71.7576 239.761C71.9919 240.016 71.9493 240.421 71.6937 240.655C71.4381 240.889 71.0333 240.847 70.799 240.591Z" fill="#777777"/>
<path d="M30.3024 227.793C30.068 227.538 30.1107 227.133 30.3663 226.899C30.6219 226.665 31.0267 226.707 31.261 226.963C31.4954 227.218 31.4527 227.623 31.1971 227.857C30.9415 228.092 30.5367 228.049 30.3024 227.793Z" fill="#777777"/>
<path d="M67.6461 260.012C67.4118 259.757 67.4544 259.352 67.71 259.118C67.9657 258.884 68.3704 258.926 68.6048 259.182C68.8391 259.437 68.7965 259.842 68.5409 260.076C68.2852 260.31 67.8805 260.268 67.6461 260.012Z" fill="#777777"/>
<path d="M76.5294 105.795C76.2951 105.54 76.3377 105.135 76.5933 104.901C76.849 104.667 77.2537 104.709 77.4881 104.965C77.7224 105.22 77.6798 105.625 77.4242 105.859C77.1685 106.093 76.7638 106.051 76.5294 105.795Z" fill="#777777"/>
<path d="M120.201 70.2319C119.966 69.9763 120.009 69.5717 120.265 69.3375C120.52 69.1032 120.925 69.1458 121.159 69.4014C121.394 69.6569 121.351 70.0615 121.096 70.2957C120.84 70.53 120.435 70.4874 120.201 70.2319Z" fill="#777777"/>
</g>
</g>
</svg>
